<svg width="844" height="314" viewBox="0 0 844 314" fill="none" xmlns="http://www.w3.org/2000/svg">
<rect x="297" y="14" width="237" height="38" rx="19" fill="#43A047"/>
<path d="M313.433 29.325C312.863 29.325 312.348 29.425 311.888 29.625C311.428 29.815 311.038 30.1 310.718 30.48C310.398 30.85 310.153 31.305 309.983 31.845C309.813 32.375 309.728 32.975 309.728 33.645C309.728 34.525 309.863 35.29 310.133 35.94C310.413 36.59 310.823 37.09 311.363 37.44C311.913 37.79 312.598 37.965 313.418 37.965C313.888 37.965 314.333 37.925 314.753 37.845C315.173 37.765 315.583 37.665 315.983 37.545V38.715C315.583 38.865 315.168 38.975 314.738 39.045C314.318 39.115 313.813 39.15 313.223 39.15C312.133 39.15 311.223 38.925 310.493 38.475C309.763 38.025 309.213 37.385 308.843 36.555C308.483 35.725 308.303 34.75 308.303 33.63C308.303 32.82 308.413 32.08 308.633 31.41C308.863 30.74 309.193 30.16 309.623 29.67C310.063 29.18 310.603 28.805 311.243 28.545C311.883 28.275 312.618 28.14 313.448 28.14C313.998 28.14 314.528 28.195 315.038 28.305C315.548 28.415 316.003 28.57 316.403 28.77L315.863 29.91C315.533 29.76 315.163 29.625 314.753 29.505C314.353 29.385 313.913 29.325 313.433 29.325ZM321.775 28.29C322.665 28.29 323.395 28.405 323.965 28.635C324.545 28.855 324.975 29.19 325.255 29.64C325.535 30.09 325.675 30.655 325.675 31.335C325.675 31.905 325.57 32.38 325.36 32.76C325.15 33.14 324.88 33.445 324.55 33.675C324.23 33.895 323.89 34.07 323.53 34.2L326.47 39H324.895L322.3 34.575H320.17V39H318.82V28.29H321.775ZM321.7 29.46H320.17V33.435H321.775C322.355 33.435 322.83 33.36 323.2 33.21C323.57 33.05 323.84 32.82 324.01 32.52C324.19 32.22 324.28 31.845 324.28 31.395C324.28 30.925 324.185 30.55 323.995 30.27C323.815 29.99 323.535 29.785 323.155 29.655C322.775 29.525 322.29 29.46 321.7 29.46ZM337.996 33.63C337.996 34.46 337.891 35.215 337.681 35.895C337.471 36.565 337.156 37.145 336.736 37.635C336.326 38.125 335.811 38.5 335.191 38.76C334.581 39.02 333.871 39.15 333.061 39.15C332.221 39.15 331.491 39.02 330.871 38.76C330.251 38.49 329.736 38.115 329.326 37.635C328.916 37.145 328.611 36.56 328.411 35.88C328.211 35.2 328.111 34.445 328.111 33.615C328.111 32.515 328.291 31.555 328.651 30.735C329.011 29.915 329.556 29.275 330.286 28.815C331.026 28.355 331.956 28.125 333.076 28.125C334.146 28.125 335.046 28.355 335.776 28.815C336.506 29.265 337.056 29.905 337.426 30.735C337.806 31.555 337.996 32.52 337.996 33.63ZM329.536 33.63C329.536 34.53 329.661 35.305 329.911 35.955C330.161 36.605 330.546 37.105 331.066 37.455C331.596 37.805 332.261 37.98 333.061 37.98C333.871 37.98 334.531 37.805 335.041 37.455C335.561 37.105 335.946 36.605 336.196 35.955C336.446 35.305 336.571 34.53 336.571 33.63C336.571 32.28 336.291 31.225 335.731 30.465C335.171 29.695 334.286 29.31 333.076 29.31C332.266 29.31 331.596 29.485 331.066 29.835C330.546 30.175 330.161 30.67 329.911 31.32C329.661 31.96 329.536 32.73 329.536 33.63ZM353.024 28.29L350.174 39H348.809L346.724 31.98C346.664 31.77 346.604 31.555 346.544 31.335C346.484 31.115 346.429 30.905 346.379 30.705C346.329 30.505 346.284 30.335 346.244 30.195C346.214 30.045 346.194 29.935 346.184 29.865C346.174 29.935 346.154 30.045 346.124 30.195C346.104 30.335 346.069 30.505 346.019 30.705C345.969 30.905 345.914 31.12 345.854 31.35C345.804 31.57 345.744 31.795 345.674 32.025L343.649 39H342.284L339.449 28.29H340.859L342.524 34.83C342.584 35.06 342.639 35.29 342.689 35.52C342.739 35.74 342.784 35.96 342.824 36.18C342.874 36.39 342.914 36.595 342.944 36.795C342.974 36.995 343.004 37.19 343.034 37.38C343.064 37.18 343.094 36.975 343.124 36.765C343.164 36.555 343.209 36.34 343.259 36.12C343.309 35.89 343.364 35.66 343.424 35.43C343.484 35.2 343.544 34.975 343.604 34.755L345.494 28.29H346.889L348.854 34.8C348.924 35.03 348.989 35.265 349.049 35.505C349.109 35.735 349.164 35.96 349.214 36.18C349.264 36.4 349.304 36.615 349.334 36.825C349.374 37.025 349.409 37.21 349.439 37.38C349.469 37.13 349.509 36.87 349.559 36.6C349.609 36.32 349.669 36.03 349.739 35.73C349.809 35.43 349.884 35.125 349.964 34.815L351.614 28.29H353.024ZM363.749 33.54C363.749 34.74 363.524 35.745 363.074 36.555C362.634 37.365 361.999 37.975 361.169 38.385C360.339 38.795 359.334 39 358.154 39H355.169V28.29H358.469C359.549 28.29 360.484 28.49 361.274 28.89C362.064 29.29 362.674 29.88 363.104 30.66C363.534 31.43 363.749 32.39 363.749 33.54ZM362.324 33.585C362.324 32.635 362.164 31.855 361.844 31.245C361.534 30.635 361.074 30.185 360.464 29.895C359.864 29.595 359.134 29.445 358.274 29.445H356.519V37.845H357.974C359.424 37.845 360.509 37.49 361.229 36.78C361.959 36.06 362.324 34.995 362.324 33.585ZM369.641 39H365.771V38.22L367.031 37.935V29.37L365.771 29.07V28.29H369.641V29.07L368.381 29.37V37.935L369.641 38.22V39ZM380.699 39H379.124L373.394 30.105H373.334C373.344 30.285 373.354 30.485 373.364 30.705C373.384 30.925 373.399 31.165 373.409 31.425C373.419 31.675 373.429 31.935 373.439 32.205C373.449 32.475 373.454 32.745 373.454 33.015V39H372.209V28.29H373.769L379.484 37.155H379.544C379.534 37.035 379.524 36.87 379.514 36.66C379.504 36.44 379.494 36.2 379.484 35.94C379.474 35.67 379.464 35.395 379.454 35.115C379.444 34.835 379.439 34.575 379.439 34.335V28.29H380.699V39ZM395.222 39L393.932 35.685H389.687L388.412 39H387.047L391.232 28.245H392.447L396.617 39H395.222ZM392.327 31.245C392.297 31.165 392.247 31.02 392.177 30.81C392.107 30.6 392.037 30.385 391.967 30.165C391.907 29.935 391.857 29.76 391.817 29.64C391.767 29.84 391.712 30.045 391.652 30.255C391.602 30.455 391.547 30.64 391.487 30.81C391.437 30.98 391.392 31.125 391.352 31.245L390.137 34.485H393.527L392.327 31.245ZM401.417 28.29C402.817 28.29 403.837 28.565 404.477 29.115C405.117 29.665 405.437 30.44 405.437 31.44C405.437 31.88 405.362 32.305 405.212 32.715C405.072 33.115 404.837 33.475 404.507 33.795C404.177 34.115 403.737 34.37 403.187 34.56C402.637 34.74 401.962 34.83 401.162 34.83H399.932V39H398.582V28.29H401.417ZM401.297 29.445H399.932V33.675H401.012C401.692 33.675 402.257 33.605 402.707 33.465C403.157 33.315 403.492 33.08 403.712 32.76C403.932 32.44 404.042 32.02 404.042 31.5C404.042 30.81 403.822 30.295 403.382 29.955C402.942 29.615 402.247 29.445 401.297 29.445ZM410.999 28.29C412.399 28.29 413.419 28.565 414.059 29.115C414.699 29.665 415.019 30.44 415.019 31.44C415.019 31.88 414.944 32.305 414.794 32.715C414.654 33.115 414.419 33.475 414.089 33.795C413.759 34.115 413.319 34.37 412.769 34.56C412.219 34.74 411.544 34.83 410.744 34.83H409.514V39H408.164V28.29H410.999ZM410.879 29.445H409.514V33.675H410.594C411.274 33.675 411.839 33.605 412.289 33.465C412.739 33.315 413.074 33.08 413.294 32.76C413.514 32.44 413.624 32.02 413.624 31.5C413.624 30.81 413.404 30.295 412.964 29.955C412.524 29.615 411.829 29.445 410.879 29.445ZM430.723 33.54C430.723 34.74 430.498 35.745 430.048 36.555C429.608 37.365 428.973 37.975 428.143 38.385C427.313 38.795 426.308 39 425.128 39H422.143V28.29H425.443C426.523 28.29 427.458 28.49 428.248 28.89C429.038 29.29 429.648 29.88 430.078 30.66C430.508 31.43 430.723 32.39 430.723 33.54ZM429.298 33.585C429.298 32.635 429.138 31.855 428.818 31.245C428.508 30.635 428.048 30.185 427.438 29.895C426.838 29.595 426.108 29.445 425.248 29.445H423.493V37.845H424.948C426.398 37.845 427.483 37.49 428.203 36.78C428.933 36.06 429.298 34.995 429.298 33.585ZM439.585 39H433.6V28.29H439.585V29.475H434.95V32.82H439.315V33.99H434.95V37.815H439.585V39ZM448.509 36.135C448.509 36.775 448.354 37.32 448.044 37.77C447.734 38.21 447.289 38.55 446.709 38.79C446.139 39.03 445.464 39.15 444.684 39.15C444.284 39.15 443.899 39.13 443.529 39.09C443.169 39.05 442.839 38.995 442.539 38.925C442.239 38.845 441.974 38.75 441.744 38.64V37.35C442.104 37.51 442.549 37.655 443.079 37.785C443.619 37.915 444.174 37.98 444.744 37.98C445.274 37.98 445.719 37.91 446.079 37.77C446.439 37.63 446.709 37.43 446.889 37.17C447.069 36.91 447.159 36.605 447.159 36.255C447.159 35.905 447.084 35.61 446.934 35.37C446.784 35.13 446.524 34.91 446.154 34.71C445.794 34.5 445.289 34.28 444.639 34.05C444.179 33.88 443.774 33.7 443.424 33.51C443.084 33.31 442.799 33.085 442.569 32.835C442.339 32.585 442.164 32.3 442.044 31.98C441.934 31.66 441.879 31.29 441.879 30.87C441.879 30.3 442.024 29.815 442.314 29.415C442.604 29.005 443.004 28.69 443.514 28.47C444.034 28.25 444.629 28.14 445.299 28.14C445.889 28.14 446.429 28.195 446.919 28.305C447.409 28.415 447.854 28.56 448.254 28.74L447.834 29.895C447.464 29.735 447.059 29.6 446.619 29.49C446.189 29.38 445.739 29.325 445.269 29.325C444.819 29.325 444.444 29.39 444.144 29.52C443.844 29.65 443.619 29.835 443.469 30.075C443.319 30.305 443.244 30.575 443.244 30.885C443.244 31.245 443.319 31.545 443.469 31.785C443.619 32.025 443.864 32.24 444.204 32.43C444.544 32.62 445.004 32.825 445.584 33.045C446.214 33.275 446.744 33.525 447.174 33.795C447.614 34.055 447.944 34.37 448.164 34.74C448.394 35.11 448.509 35.575 448.509 36.135ZM455.757 29.325C455.187 29.325 454.672 29.425 454.212 29.625C453.752 29.815 453.362 30.1 453.042 30.48C452.722 30.85 452.477 31.305 452.307 31.845C452.137 32.375 452.052 32.975 452.052 33.645C452.052 34.525 452.187 35.29 452.457 35.94C452.737 36.59 453.147 37.09 453.687 37.44C454.237 37.79 454.922 37.965 455.742 37.965C456.212 37.965 456.657 37.925 457.077 37.845C457.497 37.765 457.907 37.665 458.307 37.545V38.715C457.907 38.865 457.492 38.975 457.062 39.045C456.642 39.115 456.137 39.15 455.547 39.15C454.457 39.15 453.547 38.925 452.817 38.475C452.087 38.025 451.537 37.385 451.167 36.555C450.807 35.725 450.627 34.75 450.627 33.63C450.627 32.82 450.737 32.08 450.957 31.41C451.187 30.74 451.517 30.16 451.947 29.67C452.387 29.18 452.927 28.805 453.567 28.545C454.207 28.275 454.942 28.14 455.772 28.14C456.322 28.14 456.852 28.195 457.362 28.305C457.872 28.415 458.327 28.57 458.727 28.77L458.187 29.91C457.857 29.76 457.487 29.625 457.077 29.505C456.677 29.385 456.237 29.325 455.757 29.325ZM464.099 28.29C464.989 28.29 465.719 28.405 466.289 28.635C466.869 28.855 467.299 29.19 467.579 29.64C467.859 30.09 467.999 30.655 467.999 31.335C467.999 31.905 467.894 32.38 467.684 32.76C467.474 33.14 467.204 33.445 466.874 33.675C466.554 33.895 466.214 34.07 465.854 34.2L468.794 39H467.219L464.624 34.575H462.494V39H461.144V28.29H464.099ZM464.024 29.46H462.494V33.435H464.099C464.679 33.435 465.154 33.36 465.524 33.21C465.894 33.05 466.164 32.82 466.334 32.52C466.514 32.22 466.604 31.845 466.604 31.395C466.604 30.925 466.509 30.55 466.319 30.27C466.139 29.99 465.859 29.785 465.479 29.655C465.099 29.525 464.614 29.46 464.024 29.46ZM474.366 39H473.016V29.475H469.671V28.29H477.696V29.475H474.366V39ZM482.825 39H478.955V38.22L480.215 37.935V29.37L478.955 29.07V28.29H482.825V29.07L481.565 29.37V37.935L482.825 38.22V39ZM488.228 28.29C489.628 28.29 490.648 28.565 491.288 29.115C491.928 29.665 492.248 30.44 492.248 31.44C492.248 31.88 492.173 32.305 492.023 32.715C491.883 33.115 491.648 33.475 491.318 33.795C490.988 34.115 490.548 34.37 489.998 34.56C489.448 34.74 488.773 34.83 487.973 34.83H486.743V39H485.393V28.29H488.228ZM488.108 29.445H486.743V33.675H487.823C488.503 33.675 489.068 33.605 489.518 33.465C489.968 33.315 490.303 33.08 490.523 32.76C490.743 32.44 490.853 32.02 490.853 31.5C490.853 30.81 490.633 30.295 490.193 29.955C489.753 29.615 489.058 29.445 488.108 29.445ZM498.366 39H497.016V29.475H493.671V28.29H501.696V29.475H498.366V39ZM512.863 33.63C512.863 34.46 512.758 35.215 512.548 35.895C512.338 36.565 512.023 37.145 511.603 37.635C511.193 38.125 510.678 38.5 510.058 38.76C509.448 39.02 508.738 39.15 507.928 39.15C507.088 39.15 506.358 39.02 505.738 38.76C505.118 38.49 504.603 38.115 504.193 37.635C503.783 37.145 503.478 36.56 503.278 35.88C503.078 35.2 502.978 34.445 502.978 33.615C502.978 32.515 503.158 31.555 503.518 30.735C503.878 29.915 504.423 29.275 505.153 28.815C505.893 28.355 506.823 28.125 507.943 28.125C509.013 28.125 509.913 28.355 510.643 28.815C511.373 29.265 511.923 29.905 512.293 30.735C512.673 31.555 512.863 32.52 512.863 33.63ZM504.403 33.63C504.403 34.53 504.528 35.305 504.778 35.955C505.028 36.605 505.413 37.105 505.933 37.455C506.463 37.805 507.128 37.98 507.928 37.98C508.738 37.98 509.398 37.805 509.908 37.455C510.428 37.105 510.813 36.605 511.063 35.955C511.313 35.305 511.438 34.53 511.438 33.63C511.438 32.28 511.158 31.225 510.598 30.465C510.038 29.695 509.153 29.31 507.943 29.31C507.133 29.31 506.463 29.485 505.933 29.835C505.413 30.175 505.028 30.67 504.778 31.32C504.528 31.96 504.403 32.73 504.403 33.63ZM518.691 28.29C519.581 28.29 520.311 28.405 520.881 28.635C521.461 28.855 521.891 29.19 522.171 29.64C522.451 30.09 522.591 30.655 522.591 31.335C522.591 31.905 522.486 32.38 522.276 32.76C522.066 33.14 521.796 33.445 521.466 33.675C521.146 33.895 520.806 34.07 520.446 34.2L523.386 39H521.811L519.216 34.575H517.086V39H515.736V28.29H518.691ZM518.616 29.46H517.086V33.435H518.691C519.271 33.435 519.746 33.36 520.116 33.21C520.486 33.05 520.756 32.82 520.926 32.52C521.106 32.22 521.196 31.845 521.196 31.395C521.196 30.925 521.101 30.55 520.911 30.27C520.731 29.99 520.451 29.785 520.071 29.655C519.691 29.525 519.206 29.46 518.616 29.46Z" fill="white"/>
<rect x="352" y="121" width="127" height="38" rx="19" fill="#43A047"/>
<path d="M370.359 146L369.069 142.685H364.824L363.549 146H362.184L366.369 135.245H367.584L371.754 146H370.359ZM367.464 138.245C367.434 138.165 367.384 138.02 367.314 137.81C367.244 137.6 367.174 137.385 367.104 137.165C367.044 136.935 366.994 136.76 366.954 136.64C366.904 136.84 366.849 137.045 366.789 137.255C366.739 137.455 366.684 137.64 366.624 137.81C366.574 137.98 366.529 138.125 366.489 138.245L365.274 141.485H368.664L367.464 138.245ZM376.554 135.29C377.954 135.29 378.974 135.565 379.614 136.115C380.254 136.665 380.574 137.44 380.574 138.44C380.574 138.88 380.499 139.305 380.349 139.715C380.209 140.115 379.974 140.475 379.644 140.795C379.314 141.115 378.874 141.37 378.324 141.56C377.774 141.74 377.099 141.83 376.299 141.83H375.069V146H373.719V135.29H376.554ZM376.434 136.445H375.069V140.675H376.149C376.829 140.675 377.394 140.605 377.844 140.465C378.294 140.315 378.629 140.08 378.849 139.76C379.069 139.44 379.179 139.02 379.179 138.5C379.179 137.81 378.959 137.295 378.519 136.955C378.079 136.615 377.384 136.445 376.434 136.445ZM386.316 146H382.446V145.22L383.706 144.935V136.37L382.446 136.07V135.29H386.316V136.07L385.056 136.37V144.935L386.316 145.22V146ZM396.235 135.29C397.125 135.29 397.855 135.405 398.425 135.635C399.005 135.855 399.435 136.19 399.715 136.64C399.995 137.09 400.135 137.655 400.135 138.335C400.135 138.905 400.03 139.38 399.82 139.76C399.61 140.14 399.34 140.445 399.01 140.675C398.69 140.895 398.35 141.07 397.99 141.2L400.93 146H399.355L396.76 141.575H394.63V146H393.28V135.29H396.235ZM396.16 136.46H394.63V140.435H396.235C396.815 140.435 397.29 140.36 397.66 140.21C398.03 140.05 398.3 139.82 398.47 139.52C398.65 139.22 398.74 138.845 398.74 138.395C398.74 137.925 398.645 137.55 398.455 137.27C398.275 136.99 397.995 136.785 397.615 136.655C397.235 136.525 396.75 136.46 396.16 136.46ZM409.096 146H403.111V135.29H409.096V136.475H404.461V139.82H408.826V140.99H404.461V144.815H409.096V146ZM421.291 140.63C421.291 141.5 421.171 142.29 420.931 143C420.701 143.71 420.356 144.31 419.896 144.8C419.436 145.29 418.861 145.65 418.171 145.88L420.736 148.55H418.801L416.731 146.135C416.671 146.135 416.606 146.135 416.536 146.135C416.476 146.145 416.416 146.15 416.356 146.15C415.516 146.15 414.786 146.02 414.166 145.76C413.546 145.49 413.031 145.115 412.621 144.635C412.211 144.145 411.906 143.56 411.706 142.88C411.506 142.2 411.406 141.445 411.406 140.615C411.406 139.515 411.586 138.555 411.946 137.735C412.306 136.915 412.851 136.275 413.581 135.815C414.321 135.355 415.251 135.125 416.371 135.125C417.441 135.125 418.341 135.355 419.071 135.815C419.801 136.265 420.351 136.905 420.721 137.735C421.101 138.555 421.291 139.52 421.291 140.63ZM412.831 140.63C412.831 141.53 412.956 142.305 413.206 142.955C413.456 143.605 413.841 144.105 414.361 144.455C414.891 144.805 415.556 144.98 416.356 144.98C417.166 144.98 417.826 144.805 418.336 144.455C418.856 144.105 419.241 143.605 419.491 142.955C419.741 142.305 419.866 141.53 419.866 140.63C419.866 139.28 419.586 138.225 419.026 137.465C418.466 136.695 417.581 136.31 416.371 136.31C415.561 136.31 414.891 136.485 414.361 136.835C413.841 137.175 413.456 137.67 413.206 138.32C412.956 138.96 412.831 139.73 412.831 140.63ZM432.31 142.22C432.31 142.96 432.16 143.63 431.86 144.23C431.56 144.82 431.1 145.29 430.48 145.64C429.87 145.98 429.09 146.15 428.14 146.15C426.81 146.15 425.795 145.79 425.095 145.07C424.405 144.34 424.06 143.38 424.06 142.19V135.29H425.41V142.235C425.41 143.105 425.64 143.78 426.1 144.26C426.57 144.74 427.275 144.98 428.215 144.98C428.865 144.98 429.39 144.865 429.79 144.635C430.2 144.395 430.5 144.07 430.69 143.66C430.88 143.24 430.975 142.76 430.975 142.22V135.29H432.31V142.22ZM441.622 146H435.637V135.29H441.622V136.475H436.987V139.82H441.352V140.99H436.987V144.815H441.622V146ZM450.547 143.135C450.547 143.775 450.392 144.32 450.082 144.77C449.772 145.21 449.327 145.55 448.747 145.79C448.177 146.03 447.502 146.15 446.722 146.15C446.322 146.15 445.937 146.13 445.567 146.09C445.207 146.05 444.877 145.995 444.577 145.925C444.277 145.845 444.012 145.75 443.782 145.64V144.35C444.142 144.51 444.587 144.655 445.117 144.785C445.657 144.915 446.212 144.98 446.782 144.98C447.312 144.98 447.757 144.91 448.117 144.77C448.477 144.63 448.747 144.43 448.927 144.17C449.107 143.91 449.197 143.605 449.197 143.255C449.197 142.905 449.122 142.61 448.972 142.37C448.822 142.13 448.562 141.91 448.192 141.71C447.832 141.5 447.327 141.28 446.677 141.05C446.217 140.88 445.812 140.7 445.462 140.51C445.122 140.31 444.837 140.085 444.607 139.835C444.377 139.585 444.202 139.3 444.082 138.98C443.972 138.66 443.917 138.29 443.917 137.87C443.917 137.3 444.062 136.815 444.352 136.415C444.642 136.005 445.042 135.69 445.552 135.47C446.072 135.25 446.667 135.14 447.337 135.14C447.927 135.14 448.467 135.195 448.957 135.305C449.447 135.415 449.892 135.56 450.292 135.74L449.872 136.895C449.502 136.735 449.097 136.6 448.657 136.49C448.227 136.38 447.777 136.325 447.307 136.325C446.857 136.325 446.482 136.39 446.182 136.52C445.882 136.65 445.657 136.835 445.507 137.075C445.357 137.305 445.282 137.575 445.282 137.885C445.282 138.245 445.357 138.545 445.507 138.785C445.657 139.025 445.902 139.24 446.242 139.43C446.582 139.62 447.042 139.825 447.622 140.045C448.252 140.275 448.782 140.525 449.212 140.795C449.652 141.055 449.982 141.37 450.202 141.74C450.432 142.11 450.547 142.575 450.547 143.135ZM456.594 146H455.244V136.475H451.899V135.29H459.924V136.475H456.594V146ZM468.114 143.135C468.114 143.775 467.959 144.32 467.649 144.77C467.339 145.21 466.894 145.55 466.314 145.79C465.744 146.03 465.069 146.15 464.289 146.15C463.889 146.15 463.504 146.13 463.134 146.09C462.774 146.05 462.444 145.995 462.144 145.925C461.844 145.845 461.579 145.75 461.349 145.64V144.35C461.709 144.51 462.154 144.655 462.684 144.785C463.224 144.915 463.779 144.98 464.349 144.98C464.879 144.98 465.324 144.91 465.684 144.77C466.044 144.63 466.314 144.43 466.494 144.17C466.674 143.91 466.764 143.605 466.764 143.255C466.764 142.905 466.689 142.61 466.539 142.37C466.389 142.13 466.129 141.91 465.759 141.71C465.399 141.5 464.894 141.28 464.244 141.05C463.784 140.88 463.379 140.7 463.029 140.51C462.689 140.31 462.404 140.085 462.174 139.835C461.944 139.585 461.769 139.3 461.649 138.98C461.539 138.66 461.484 138.29 461.484 137.87C461.484 137.3 461.629 136.815 461.919 136.415C462.209 136.005 462.609 135.69 463.119 135.47C463.639 135.25 464.234 135.14 464.904 135.14C465.494 135.14 466.034 135.195 466.524 135.305C467.014 135.415 467.459 135.56 467.859 135.74L467.439 136.895C467.069 136.735 466.664 136.6 466.224 136.49C465.794 136.38 465.344 136.325 464.874 136.325C464.424 136.325 464.049 136.39 463.749 136.52C463.449 136.65 463.224 136.835 463.074 137.075C462.924 137.305 462.849 137.575 462.849 137.885C462.849 138.245 462.924 138.545 463.074 138.785C463.224 139.025 463.469 139.24 463.809 139.43C464.149 139.62 464.609 139.825 465.189 140.045C465.819 140.275 466.349 140.525 466.779 140.795C467.219 141.055 467.549 141.37 467.769 141.74C467.999 142.11 468.114 142.575 468.114 143.135Z" fill="white"/>
<path d="M66 32.5V31.5H65V32.5H66ZM66 107.5L71.7735 97.5H60.2265L66 107.5ZM67 96.25V88.75H65V96.25H67ZM67 81.25V73.75H65V81.25H67ZM67 66.25V58.75H65V66.25H67ZM67 51.25V43.75H65V51.25H67ZM67 36.25V32.5H65V36.25H67ZM66 33.5H69.4922V31.5H66V33.5ZM76.4766 33.5H83.4609V31.5H76.4766V33.5ZM90.4453 33.5H97.4297V31.5H90.4453V33.5ZM104.414 33.5H111.398V31.5H104.414V33.5ZM118.383 33.5H125.367V31.5H118.383V33.5ZM132.352 33.5H139.336V31.5H132.352V33.5ZM146.32 33.5H153.305V31.5H146.32V33.5ZM160.289 33.5H167.273V31.5H160.289V33.5ZM174.258 33.5H181.242V31.5H174.258V33.5ZM188.227 33.5H195.211V31.5H188.227V33.5ZM202.195 33.5H209.18V31.5H202.195V33.5ZM216.164 33.5H223.148V31.5H216.164V33.5ZM230.133 33.5H237.117V31.5H230.133V33.5ZM244.102 33.5H251.086V31.5H244.102V33.5ZM258.07 33.5H265.055V31.5H258.07V33.5ZM272.039 33.5H279.023V31.5H272.039V33.5ZM286.008 33.5H289.5V31.5H286.008V33.5Z" fill="#43A047"/>
<path d="M778.5 32V31H779.5V32H778.5ZM778.5 91L772.726 81H784.274L778.5 91ZM777.5 79.9375V72.5625H779.5V79.9375H777.5ZM777.5 65.1875V57.8125H779.5V65.1875H777.5ZM777.5 50.4375V43.0625H779.5V50.4375H777.5ZM777.5 35.6875V32H779.5V35.6875H777.5ZM778.5 33H775.029V31H778.5V33ZM768.088 33H761.147V31H768.088V33ZM754.206 33H747.265V31H754.206V33ZM740.324 33H733.382V31H740.324V33ZM726.441 33H719.5V31H726.441V33ZM712.559 33H705.618V31H712.559V33ZM698.676 33H691.735V31H698.676V33ZM684.794 33H677.853V31H684.794V33ZM670.912 33H663.971V31H670.912V33ZM657.029 33H650.088V31H657.029V33ZM643.147 33H636.206V31H643.147V33ZM629.265 33H622.324V31H629.265V33ZM615.382 33H608.441V31H615.382V33ZM601.5 33H594.559V31H601.5V33ZM587.618 33H580.676V31H587.618V33ZM573.735 33H566.794V31H573.735V33ZM559.853 33H552.912V31H559.853V33ZM545.971 33H542.5V31H545.971V33Z" fill="#43A047"/>
<path d="M317 260L307 265.774V254.226L317 260ZM66 260V261H65V260H66ZM67 191V194.45H65V191H67ZM67 201.35V208.25H65V201.35H67ZM67 215.15V222.05H65V215.15H67ZM67 228.95V235.85H65V228.95H67ZM67 242.75V249.65H65V242.75H67ZM67 256.55V260H65V256.55H67ZM66 259H69.4861V261H66V259ZM76.4583 259H83.4306V261H76.4583V259ZM90.4028 259H97.375V261H90.4028V259ZM104.347 259H111.319V261H104.347V259ZM118.292 259H125.264V261H118.292V259ZM132.236 259H139.208V261H132.236V259ZM146.181 259H153.153V261H146.181V259ZM160.125 259H167.097V261H160.125V259ZM174.069 259H181.042V261H174.069V259ZM188.014 259H194.986V261H188.014V259ZM201.958 259H208.931V261H201.958V259ZM215.903 259H222.875V261H215.903V259ZM229.847 259H236.819V261H229.847V259ZM243.792 259H250.764V261H243.792V259ZM257.736 259H264.708V261H257.736V259ZM271.681 259H278.653V261H271.681V259ZM285.625 259H292.597V261H285.625V259ZM299.57 259H306.542V261H299.57V259Z" fill="#43A047"/>
<path d="M526 260L536 265.774V254.226L526 260ZM777 260V261H778V260H777ZM776 216V219.667H778V216H776ZM776 227V234.333H778V227H776ZM776 241.667V249H778V241.667H776ZM776 256.333V260H778V256.333H776ZM777 259H773.514V261H777V259ZM766.542 259H759.569V261H766.542V259ZM752.597 259H745.625V261H752.597V259ZM738.653 259H731.681V261H738.653V259ZM724.708 259H717.736V261H724.708V259ZM710.764 259H703.792V261H710.764V259ZM696.819 259H689.847V261H696.819V259ZM682.875 259H675.903V261H682.875V259ZM668.931 259H661.958V261H668.931V259ZM654.986 259H648.014V261H654.986V259ZM641.042 259H634.069V261H641.042V259ZM627.097 259H620.125V261H627.097V259ZM613.153 259H606.181V261H613.153V259ZM599.208 259H592.236V261H599.208V259ZM585.264 259H578.292V261H585.264V259ZM571.319 259H564.347V261H571.319V259ZM557.375 259H550.403V261H557.375V259ZM543.43 259H536.458V261H543.43V259Z" fill="#43A047"/>
<path d="M119 141L129 146.774L129 135.227L119 141ZM129.313 142L136.188 142L136.187 140L129.312 140L129.313 142ZM143.063 142L149.938 142L149.937 140L143.062 140L143.063 142ZM156.813 142L163.688 142L163.687 140L156.812 140L156.813 142ZM170.563 142L177.438 142L177.437 140L170.562 140L170.563 142ZM184.313 142L191.188 142L191.187 140L184.312 140L184.313 142ZM198.063 142L204.938 142L204.937 140L198.062 140L198.063 142ZM211.813 142L218.688 142L218.687 140L211.812 140L211.813 142ZM225.563 142L232.438 142L232.437 140L225.562 140L225.563 142ZM239.313 142L246.188 142L246.187 140L239.312 140L239.313 142ZM253.063 142L259.938 142L259.937 140L253.062 140L253.063 142ZM266.813 142L273.688 142L273.687 140L266.812 140L266.813 142ZM280.563 142L287.438 142L287.437 140L280.562 140L280.563 142ZM294.313 142L301.188 142L301.187 140L294.312 140L294.313 142ZM308.063 142L314.938 142L314.937 140L308.062 140L308.063 142ZM321.813 142L328.688 142L328.687 140L321.812 140L321.813 142ZM335.563 142L339 142L339 140L335.562 140L335.563 142Z" fill="#43A047"/>
<path d="M496 141L506 146.774L506 135.227L496 141ZM506.475 142L513.458 142L513.458 140L506.475 140L506.475 142ZM520.442 142L527.425 142L527.425 140L520.442 140L520.442 142ZM534.408 142L541.392 142L541.392 140L534.408 140L534.408 142ZM548.375 142L555.358 142L555.358 140L548.375 140L548.375 142ZM562.342 142L569.325 142L569.325 140L562.342 140L562.342 142ZM576.308 142L583.292 142L583.292 140L576.308 140L576.308 142ZM590.275 142L597.258 142L597.258 140L590.275 140L590.275 142ZM604.242 142L611.225 142L611.225 140L604.242 140L604.242 142ZM618.208 142L625.192 142L625.192 140L618.208 140L618.208 142ZM632.175 142L639.158 142L639.158 140L632.175 140L632.175 142ZM646.142 142L653.125 142L653.125 140L646.142 140L646.142 142ZM660.108 142L667.092 142L667.092 140L660.108 140L660.108 142ZM674.075 142L681.058 142L681.058 140L674.075 140L674.075 142ZM688.042 142L695.025 142L695.025 140L688.042 140L688.042 142ZM702.008 142L705.5 142L705.5 140L702.008 140L702.008 142Z" fill="#43A047"/>
<path d="M404.174 301.968C404.174 302.757 404.014 303.472 403.694 304.112C403.374 304.741 402.883 305.243 402.222 305.616C401.571 305.979 400.739 306.16 399.726 306.16C398.307 306.16 397.224 305.776 396.478 305.008C395.742 304.229 395.374 303.205 395.374 301.936V294.576H396.814V301.984C396.814 302.912 397.059 303.632 397.55 304.144C398.051 304.656 398.803 304.912 399.806 304.912C400.499 304.912 401.059 304.789 401.486 304.544C401.923 304.288 402.243 303.941 402.446 303.504C402.648 303.056 402.75 302.544 402.75 301.968V294.576H404.174V301.968ZM412.581 303.632C412.581 304.187 412.442 304.651 412.165 305.024C411.887 305.397 411.493 305.68 410.981 305.872C410.469 306.064 409.861 306.16 409.157 306.16C408.559 306.16 408.042 306.112 407.605 306.016C407.178 305.92 406.799 305.787 406.469 305.616V304.336C406.81 304.507 407.221 304.667 407.701 304.816C408.191 304.955 408.687 305.024 409.189 305.024C409.903 305.024 410.421 304.912 410.741 304.688C411.061 304.453 411.221 304.144 411.221 303.76C411.221 303.547 411.162 303.355 411.045 303.184C410.927 303.013 410.714 302.843 410.405 302.672C410.106 302.501 409.674 302.309 409.109 302.096C408.554 301.883 408.079 301.669 407.685 301.456C407.29 301.243 406.986 300.987 406.773 300.688C406.559 300.389 406.453 300.005 406.453 299.536C406.453 298.811 406.746 298.251 407.333 297.856C407.93 297.461 408.709 297.264 409.669 297.264C410.191 297.264 410.677 297.317 411.125 297.424C411.583 297.52 412.01 297.659 412.405 297.84L411.925 298.96C411.69 298.853 411.439 298.763 411.173 298.688C410.917 298.603 410.655 298.539 410.389 298.496C410.122 298.443 409.85 298.416 409.573 298.416C408.997 298.416 408.554 298.512 408.245 298.704C407.946 298.885 407.797 299.136 407.797 299.456C407.797 299.691 407.866 299.893 408.005 300.064C408.143 300.224 408.373 300.384 408.693 300.544C409.023 300.693 409.461 300.875 410.005 301.088C410.549 301.291 411.013 301.499 411.397 301.712C411.781 301.925 412.074 302.187 412.277 302.496C412.479 302.795 412.581 303.173 412.581 303.632ZM417.965 297.264C418.701 297.264 419.33 297.424 419.853 297.744C420.386 298.064 420.792 298.517 421.069 299.104C421.357 299.68 421.501 300.357 421.501 301.136V301.984H415.629C415.65 302.955 415.896 303.696 416.365 304.208C416.845 304.709 417.512 304.96 418.365 304.96C418.909 304.96 419.389 304.912 419.805 304.816C420.232 304.709 420.669 304.56 421.117 304.368V305.6C420.68 305.792 420.248 305.931 419.821 306.016C419.394 306.112 418.888 306.16 418.301 306.16C417.49 306.16 416.77 305.995 416.141 305.664C415.522 305.333 415.037 304.843 414.685 304.192C414.344 303.531 414.173 302.725 414.173 301.776C414.173 300.837 414.328 300.032 414.637 299.36C414.957 298.688 415.4 298.171 415.965 297.808C416.541 297.445 417.208 297.264 417.965 297.264ZM417.949 298.416C417.277 298.416 416.744 298.635 416.349 299.072C415.965 299.499 415.736 300.096 415.661 300.864H420.029C420.029 300.373 419.954 299.947 419.805 299.584C419.656 299.221 419.426 298.939 419.117 298.736C418.818 298.523 418.429 298.416 417.949 298.416ZM427.684 297.264C427.844 297.264 428.015 297.275 428.196 297.296C428.388 297.307 428.554 297.328 428.692 297.36L428.516 298.656C428.378 298.624 428.223 298.597 428.052 298.576C427.892 298.555 427.738 298.544 427.588 298.544C427.258 298.544 426.943 298.613 426.644 298.752C426.346 298.891 426.079 299.088 425.844 299.344C425.61 299.589 425.423 299.888 425.284 300.24C425.156 300.592 425.092 300.987 425.092 301.424V306H423.684V297.424H424.836L424.996 298.992H425.06C425.242 298.672 425.46 298.384 425.716 298.128C425.972 297.861 426.266 297.653 426.596 297.504C426.927 297.344 427.29 297.264 427.684 297.264ZM435.878 303.632C435.878 304.187 435.739 304.651 435.462 305.024C435.184 305.397 434.79 305.68 434.278 305.872C433.766 306.064 433.158 306.16 432.454 306.16C431.856 306.16 431.339 306.112 430.902 306.016C430.475 305.92 430.096 305.787 429.766 305.616V304.336C430.107 304.507 430.518 304.667 430.998 304.816C431.488 304.955 431.984 305.024 432.486 305.024C433.2 305.024 433.718 304.912 434.038 304.688C434.358 304.453 434.518 304.144 434.518 303.76C434.518 303.547 434.459 303.355 434.342 303.184C434.224 303.013 434.011 302.843 433.702 302.672C433.403 302.501 432.971 302.309 432.406 302.096C431.851 301.883 431.376 301.669 430.982 301.456C430.587 301.243 430.283 300.987 430.07 300.688C429.856 300.389 429.75 300.005 429.75 299.536C429.75 298.811 430.043 298.251 430.63 297.856C431.227 297.461 432.006 297.264 432.966 297.264C433.488 297.264 433.974 297.317 434.422 297.424C434.88 297.52 435.307 297.659 435.702 297.84L435.222 298.96C434.987 298.853 434.736 298.763 434.47 298.688C434.214 298.603 433.952 298.539 433.686 298.496C433.419 298.443 433.147 298.416 432.87 298.416C432.294 298.416 431.851 298.512 431.542 298.704C431.243 298.885 431.094 299.136 431.094 299.456C431.094 299.691 431.163 299.893 431.302 300.064C431.44 300.224 431.67 300.384 431.99 300.544C432.32 300.693 432.758 300.875 433.302 301.088C433.846 301.291 434.31 301.499 434.694 301.712C435.078 301.925 435.371 302.187 435.574 302.496C435.776 302.795 435.878 303.173 435.878 303.632Z" fill="#263238"/>
<circle cx="354" cy="260" r="24.5" fill="#ECEFF1" stroke="white" stroke-width="3"/>
<path fill-rule="evenodd" clip-rule="evenodd" d="M339 277.488C341.367 274.985 344.34 273.091 347.665 272.011C345.335 270.626 343.524 268.514 342.511 266C341.498 263.486 341.339 260.709 342.057 258.095C342.775 255.482 344.332 253.176 346.488 251.533C348.643 249.89 351.279 249 353.99 249C356.7 249 359.336 249.89 361.491 251.533C363.647 253.176 365.204 255.482 365.922 258.095C366.64 260.709 366.481 263.486 365.468 266C364.455 268.514 362.644 270.626 360.315 272.011C363.618 273.085 366.574 274.961 368.934 277.441C364.907 280.906 359.668 283 353.939 283C348.237 283 343.019 280.925 339 277.488Z" fill="#CFD8DC"/>
<circle cx="388" cy="260" r="24.5" fill="#ECEFF1" stroke="white" stroke-width="3"/>
<path fill-rule="evenodd" clip-rule="evenodd" d="M373 277.488C375.367 274.985 378.34 273.091 381.665 272.011C379.335 270.626 377.524 268.514 376.511 266C375.498 263.486 375.339 260.709 376.057 258.095C376.775 255.482 378.332 253.176 380.488 251.533C382.643 249.89 385.279 249 387.99 249C390.7 249 393.336 249.89 395.491 251.533C397.647 253.176 399.204 255.482 399.922 258.095C400.64 260.709 400.481 263.486 399.468 266C398.455 268.514 396.644 270.626 394.315 272.011C397.618 273.085 400.574 274.961 402.934 277.441C398.907 280.906 393.668 283 387.939 283C382.237 283 377.019 280.925 373 277.488Z" fill="#CFD8DC"/>
<circle cx="422" cy="260" r="24.5" fill="#ECEFF1" stroke="white" stroke-width="3"/>
<path fill-rule="evenodd" clip-rule="evenodd" d="M407 277.488C409.367 274.985 412.34 273.091 415.665 272.011C413.335 270.626 411.524 268.514 410.511 266C409.498 263.486 409.339 260.709 410.057 258.095C410.775 255.482 412.332 253.176 414.488 251.533C416.643 249.89 419.279 249 421.99 249C424.7 249 427.336 249.89 429.491 251.533C431.647 253.176 433.204 255.482 433.922 258.095C434.64 260.709 434.481 263.486 433.468 266C432.455 268.514 430.644 270.626 428.315 272.011C431.618 273.085 434.574 274.961 436.934 277.441C432.907 280.906 427.668 283 421.939 283C416.237 283 411.019 280.925 407 277.488Z" fill="#CFD8DC"/>
<circle cx="489" cy="260" r="24.5" fill="#ECEFF1" stroke="white" stroke-width="3"/>
<path d="M483.666 259.456C483.666 260.107 483.618 260.757 483.522 261.408C483.426 262.048 483.266 262.656 483.042 263.232C482.818 263.797 482.498 264.304 482.082 264.752C481.676 265.189 481.159 265.536 480.53 265.792C479.911 266.037 479.159 266.16 478.274 266.16C478.06 266.16 477.81 266.149 477.522 266.128C477.234 266.107 476.994 266.069 476.802 266.016V264.592C477.004 264.656 477.228 264.704 477.474 264.736C477.73 264.768 477.975 264.784 478.21 264.784C478.946 264.784 479.548 264.677 480.018 264.464C480.498 264.24 480.876 263.931 481.154 263.536C481.442 263.141 481.65 262.683 481.778 262.16C481.906 261.637 481.98 261.083 482.002 260.496H481.906C481.746 260.741 481.548 260.965 481.314 261.168C481.079 261.371 480.791 261.531 480.45 261.648C480.119 261.765 479.719 261.824 479.25 261.824C478.599 261.824 478.023 261.685 477.522 261.408C477.031 261.131 476.652 260.736 476.386 260.224C476.119 259.701 475.986 259.067 475.986 258.32C475.986 257.509 476.135 256.816 476.434 256.24C476.743 255.653 477.175 255.205 477.73 254.896C478.295 254.587 478.951 254.432 479.698 254.432C480.252 254.432 480.77 254.533 481.25 254.736C481.73 254.939 482.151 255.248 482.514 255.664C482.876 256.08 483.159 256.603 483.362 257.232C483.564 257.861 483.666 258.603 483.666 259.456ZM479.714 255.824C479.106 255.824 478.61 256.027 478.226 256.432C477.842 256.837 477.65 257.456 477.65 258.288C477.65 258.971 477.81 259.509 478.13 259.904C478.46 260.299 478.967 260.496 479.65 260.496C480.119 260.496 480.524 260.4 480.866 260.208C481.207 260.005 481.474 259.76 481.666 259.472C481.858 259.173 481.954 258.864 481.954 258.544C481.954 258.224 481.906 257.904 481.81 257.584C481.714 257.264 481.575 256.971 481.394 256.704C481.212 256.437 480.978 256.224 480.69 256.064C480.412 255.904 480.087 255.824 479.714 255.824ZM492.822 259.456C492.822 260.107 492.774 260.757 492.678 261.408C492.582 262.048 492.422 262.656 492.198 263.232C491.974 263.797 491.654 264.304 491.238 264.752C490.833 265.189 490.315 265.536 489.686 265.792C489.067 266.037 488.315 266.16 487.43 266.16C487.217 266.16 486.966 266.149 486.678 266.128C486.39 266.107 486.15 266.069 485.958 266.016V264.592C486.161 264.656 486.385 264.704 486.63 264.736C486.886 264.768 487.131 264.784 487.366 264.784C488.102 264.784 488.705 264.677 489.174 264.464C489.654 264.24 490.033 263.931 490.31 263.536C490.598 263.141 490.806 262.683 490.934 262.16C491.062 261.637 491.137 261.083 491.158 260.496H491.062C490.902 260.741 490.705 260.965 490.47 261.168C490.235 261.371 489.947 261.531 489.606 261.648C489.275 261.765 488.875 261.824 488.406 261.824C487.755 261.824 487.179 261.685 486.678 261.408C486.187 261.131 485.809 260.736 485.542 260.224C485.275 259.701 485.142 259.067 485.142 258.32C485.142 257.509 485.291 256.816 485.59 256.24C485.899 255.653 486.331 255.205 486.886 254.896C487.451 254.587 488.107 254.432 488.854 254.432C489.409 254.432 489.926 254.533 490.406 254.736C490.886 254.939 491.307 255.248 491.67 255.664C492.033 256.08 492.315 256.603 492.518 257.232C492.721 257.861 492.822 258.603 492.822 259.456ZM488.87 255.824C488.262 255.824 487.766 256.027 487.382 256.432C486.998 256.837 486.806 257.456 486.806 258.288C486.806 258.971 486.966 259.509 487.286 259.904C487.617 260.299 488.123 260.496 488.806 260.496C489.275 260.496 489.681 260.4 490.022 260.208C490.363 260.005 490.63 259.76 490.822 259.472C491.014 259.173 491.11 258.864 491.11 258.544C491.11 258.224 491.062 257.904 490.966 257.584C490.87 257.264 490.731 256.971 490.55 256.704C490.369 256.437 490.134 256.224 489.846 256.064C489.569 255.904 489.243 255.824 488.87 255.824ZM498.794 259.712H501.93V261.008H498.794V264.224H497.482V261.008H494.346V259.712H497.482V256.48H498.794V259.712Z" fill="#90A4AE"/>
<path d="M734.448 191.68C733.84 191.68 733.291 191.787 732.8 192C732.309 192.203 731.893 192.507 731.552 192.912C731.211 193.307 730.949 193.792 730.768 194.368C730.587 194.933 730.496 195.573 730.496 196.288C730.496 197.227 730.64 198.043 730.928 198.736C731.227 199.429 731.664 199.963 732.24 200.336C732.827 200.709 733.557 200.896 734.432 200.896C734.933 200.896 735.408 200.853 735.856 200.768C736.304 200.683 736.741 200.576 737.168 200.448V201.696C736.741 201.856 736.299 201.973 735.84 202.048C735.392 202.123 734.853 202.16 734.224 202.16C733.061 202.16 732.091 201.92 731.312 201.44C730.533 200.96 729.947 200.277 729.552 199.392C729.168 198.507 728.976 197.467 728.976 196.272C728.976 195.408 729.093 194.619 729.328 193.904C729.573 193.189 729.925 192.571 730.384 192.048C730.853 191.525 731.429 191.125 732.112 190.848C732.795 190.56 733.579 190.416 734.464 190.416C735.051 190.416 735.616 190.475 736.16 190.592C736.704 190.709 737.189 190.875 737.616 191.088L737.04 192.304C736.688 192.144 736.293 192 735.856 191.872C735.429 191.744 734.96 191.68 734.448 191.68ZM743.469 193.264C743.629 193.264 743.8 193.275 743.981 193.296C744.173 193.307 744.339 193.328 744.477 193.36L744.301 194.656C744.163 194.624 744.008 194.597 743.837 194.576C743.677 194.555 743.523 194.544 743.373 194.544C743.043 194.544 742.728 194.613 742.429 194.752C742.131 194.891 741.864 195.088 741.629 195.344C741.395 195.589 741.208 195.888 741.069 196.24C740.941 196.592 740.877 196.987 740.877 197.424V202H739.469V193.424H740.621L740.781 194.992H740.845C741.027 194.672 741.245 194.384 741.501 194.128C741.757 193.861 742.051 193.653 742.381 193.504C742.712 193.344 743.075 193.264 743.469 193.264ZM753.222 197.696C753.222 198.411 753.126 199.045 752.934 199.6C752.753 200.144 752.486 200.608 752.134 200.992C751.793 201.376 751.372 201.669 750.87 201.872C750.38 202.064 749.83 202.16 749.222 202.16C748.657 202.16 748.134 202.064 747.654 201.872C747.174 201.669 746.758 201.376 746.406 200.992C746.054 200.608 745.777 200.144 745.574 199.6C745.382 199.045 745.286 198.411 745.286 197.696C745.286 196.747 745.446 195.947 745.766 195.296C746.086 194.635 746.545 194.133 747.142 193.792C747.74 193.44 748.449 193.264 749.27 193.264C750.049 193.264 750.732 193.44 751.318 193.792C751.916 194.133 752.38 194.635 752.71 195.296C753.052 195.947 753.222 196.747 753.222 197.696ZM746.742 197.696C746.742 198.368 746.828 198.955 746.998 199.456C747.18 199.947 747.457 200.325 747.83 200.592C748.204 200.859 748.678 200.992 749.254 200.992C749.83 200.992 750.305 200.859 750.678 200.592C751.052 200.325 751.324 199.947 751.494 199.456C751.676 198.955 751.766 198.368 751.766 197.696C751.766 197.013 751.676 196.432 751.494 195.952C751.313 195.472 751.036 195.104 750.662 194.848C750.3 194.581 749.825 194.448 749.238 194.448C748.364 194.448 747.729 194.736 747.334 195.312C746.94 195.888 746.742 196.683 746.742 197.696ZM760.677 197.152C760.613 196.928 760.549 196.709 760.485 196.496C760.421 196.272 760.363 196.064 760.309 195.872C760.267 195.669 760.224 195.483 760.181 195.312C760.139 195.141 760.107 194.997 760.085 194.88H760.021C760 194.997 759.968 195.141 759.925 195.312C759.893 195.483 759.851 195.669 759.797 195.872C759.755 196.075 759.701 196.288 759.637 196.512C759.584 196.725 759.52 196.944 759.445 197.168L757.909 201.984H756.309L753.957 193.408H755.413L756.597 197.984C756.683 198.293 756.763 198.608 756.837 198.928C756.912 199.237 756.976 199.536 757.029 199.824C757.093 200.101 757.136 200.341 757.157 200.544H757.221C757.253 200.416 757.291 200.256 757.333 200.064C757.376 199.872 757.419 199.669 757.461 199.456C757.515 199.243 757.568 199.029 757.621 198.816C757.685 198.603 757.744 198.411 757.797 198.24L759.317 193.408H760.853L762.325 198.24C762.4 198.485 762.475 198.747 762.549 199.024C762.635 199.301 762.709 199.573 762.773 199.84C762.837 200.096 762.88 200.325 762.901 200.528H762.965C762.987 200.347 763.024 200.123 763.077 199.856C763.141 199.579 763.211 199.28 763.285 198.96C763.371 198.629 763.456 198.304 763.541 197.984L764.741 193.408H766.181L763.797 201.984H762.149L760.677 197.152ZM770.759 202.16C769.693 202.16 768.839 201.792 768.199 201.056C767.559 200.309 767.239 199.2 767.239 197.728C767.239 196.256 767.559 195.147 768.199 194.4C768.85 193.643 769.709 193.264 770.775 193.264C771.223 193.264 771.613 193.323 771.943 193.44C772.274 193.547 772.562 193.696 772.807 193.888C773.053 194.08 773.261 194.293 773.431 194.528H773.527C773.517 194.389 773.495 194.187 773.463 193.92C773.442 193.643 773.431 193.424 773.431 193.264V189.84H774.839V202H773.703L773.495 200.848H773.431C773.261 201.093 773.053 201.317 772.807 201.52C772.562 201.712 772.269 201.867 771.927 201.984C771.597 202.101 771.207 202.16 770.759 202.16ZM770.983 200.992C771.89 200.992 772.525 200.747 772.887 200.256C773.261 199.755 773.447 199.003 773.447 198V197.744C773.447 196.677 773.271 195.861 772.919 195.296C772.567 194.72 771.917 194.432 770.967 194.432C770.21 194.432 769.639 194.736 769.255 195.344C768.882 195.941 768.695 196.747 768.695 197.76C768.695 198.784 768.882 199.579 769.255 200.144C769.639 200.709 770.215 200.992 770.983 200.992ZM778.971 193.424V202H777.563V193.424H778.971ZM778.283 190.208C778.496 190.208 778.683 190.283 778.843 190.432C779.014 190.571 779.099 190.795 779.099 191.104C779.099 191.403 779.014 191.627 778.843 191.776C778.683 191.925 778.496 192 778.283 192C778.048 192 777.851 191.925 777.691 191.776C777.531 191.627 777.451 191.403 777.451 191.104C777.451 190.795 777.531 190.571 777.691 190.432C777.851 190.283 778.048 190.208 778.283 190.208ZM785.816 193.264C786.84 193.264 787.613 193.515 788.136 194.016C788.659 194.507 788.92 195.307 788.92 196.416V202H787.528V196.512C787.528 195.819 787.373 195.301 787.064 194.96C786.755 194.619 786.269 194.448 785.608 194.448C784.659 194.448 784.003 194.715 783.64 195.248C783.277 195.781 783.096 196.549 783.096 197.552V202H781.688V193.424H782.824L783.032 194.592H783.112C783.304 194.293 783.539 194.048 783.816 193.856C784.104 193.653 784.419 193.504 784.76 193.408C785.101 193.312 785.453 193.264 785.816 193.264ZM803.095 202L801.719 198.464H797.191L795.831 202H794.375L798.839 190.528H800.135L804.583 202H803.095ZM800.007 193.728C799.975 193.643 799.922 193.488 799.847 193.264C799.772 193.04 799.698 192.811 799.623 192.576C799.559 192.331 799.506 192.144 799.463 192.016C799.41 192.229 799.351 192.448 799.287 192.672C799.234 192.885 799.175 193.083 799.111 193.264C799.058 193.445 799.01 193.6 798.967 193.728L797.671 197.184H801.287L800.007 193.728ZM809.17 190.576C810.663 190.576 811.751 190.869 812.434 191.456C813.116 192.043 813.458 192.869 813.458 193.936C813.458 194.405 813.378 194.859 813.218 195.296C813.068 195.723 812.818 196.107 812.466 196.448C812.114 196.789 811.644 197.061 811.058 197.264C810.471 197.456 809.751 197.552 808.898 197.552H807.586V202H806.146V190.576H809.17ZM809.042 191.808H807.586V196.32H808.738C809.463 196.32 810.066 196.245 810.546 196.096C811.026 195.936 811.383 195.685 811.618 195.344C811.852 195.003 811.97 194.555 811.97 194C811.97 193.264 811.735 192.715 811.266 192.352C810.796 191.989 810.055 191.808 809.042 191.808ZM818.857 190.576C820.351 190.576 821.439 190.869 822.121 191.456C822.804 192.043 823.145 192.869 823.145 193.936C823.145 194.405 823.065 194.859 822.905 195.296C822.756 195.723 822.505 196.107 822.153 196.448C821.801 196.789 821.332 197.061 820.745 197.264C820.159 197.456 819.439 197.552 818.585 197.552H817.273V202H815.833V190.576H818.857ZM818.729 191.808H817.273V196.32H818.425C819.151 196.32 819.753 196.245 820.233 196.096C820.713 195.936 821.071 195.685 821.305 195.344C821.54 195.003 821.657 194.555 821.657 194C821.657 193.264 821.423 192.715 820.953 192.352C820.484 191.989 819.743 191.808 818.729 191.808Z" fill="#263238"/>
<rect opacity="0.2" width="90.278" height="62.3348" rx="1.61211" transform="matrix(0.83205 -0.5547 0.830139 0.557556 716 159.077)" fill="#CFD8DC"/>
<rect opacity="0.5" width="90.278" height="62.3348" rx="1.61211" transform="matrix(0.83205 -0.5547 0.830139 0.557556 716 153.077)" fill="#CFD8DC"/>
<rect x="0.893209" y="0.00153473" width="89.2032" height="61.2601" rx="1.07474" transform="matrix(0.83205 -0.5547 0.830139 0.557556 716.149 147.573)" fill="white" stroke="#CFD8DC" stroke-width="1.07474"/>
<line y1="-0.537369" x2="89.7406" y2="-0.537369" transform="matrix(0.83205 -0.5547 0.830139 0.557556 723.584 151.573)" stroke="#CFD8DC" stroke-width="1.07474"/>
<circle cx="1.07474" cy="1.07474" r="1.07474" transform="matrix(0.83205 -0.5547 0.830139 0.557556 721.358 147.086)" fill="#CFD8DC"/>
<circle cx="1.07474" cy="1.07474" r="1.07474" transform="matrix(0.83205 -0.5547 0.830139 0.557556 724.488 145)" fill="#CFD8DC"/>
<circle cx="1.07474" cy="1.07474" r="1.07474" transform="matrix(0.83205 -0.5547 0.830139 0.557556 727.618 142.913)" fill="#CFD8DC"/>
<line y1="-0.268685" x2="53.1995" y2="-0.268685" transform="matrix(0.830139 0.557556 -0.83205 0.5547 740.576 139.648)" stroke="black" stroke-width="0.537369"/>
<line y1="-0.537369" x2="53.1995" y2="-0.537369" transform="matrix(0.830139 0.557556 -0.83205 0.5547 740.576 139.648)" stroke="#CFD8DC" stroke-width="1.07474"/>
<rect width="9.13527" height="9.13527" rx="1.61211" transform="matrix(0.83205 -0.5547 0.830139 0.557556 748.169 138.765)" fill="#CFD8DC"/>
<rect width="9.13527" height="9.13527" rx="1.61211" transform="matrix(0.83205 -0.5547 0.830139 0.557556 758.452 131.909)" fill="#CFD8DC"/>
<rect width="9.13527" height="9.13527" rx="1.61211" transform="matrix(0.83205 -0.5547 0.830139 0.557556 768.736 125.053)" fill="#CFD8DC"/>
<rect width="9.13527" height="9.13527" rx="1.61211" transform="matrix(0.83205 -0.5547 0.830139 0.557556 789.304 111.342)" fill="#CFD8DC"/>
<rect width="9.13527" height="9.13527" rx="1.61211" transform="matrix(0.83205 -0.5547 0.830139 0.557556 758.43 145.656)" fill="#CFD8DC"/>
<rect width="9.13527" height="9.13527" rx="1.61211" transform="matrix(0.83205 -0.5547 0.830139 0.557556 789.281 125.088)" fill="#CFD8DC"/>
<rect width="9.13527" height="9.13527" rx="1.61211" transform="matrix(0.83205 -0.5547 0.830139 0.557556 799.564 118.233)" fill="#CFD8DC"/>
<rect width="9.13527" height="9.13527" rx="1.61211" transform="matrix(0.83205 -0.5547 0.830139 0.557556 778.974 145.691)" fill="#CFD8DC"/>
<rect width="9.13527" height="9.13527" rx="1.61211" transform="matrix(0.83205 -0.5547 0.830139 0.557556 789.257 138.835)" fill="#CFD8DC"/>
<rect width="9.13527" height="9.13527" rx="1.61211" transform="matrix(0.83205 -0.5547 0.830139 0.557556 799.541 131.979)" fill="#CFD8DC"/>
<rect width="9.13527" height="9.13527" rx="1.61211" transform="matrix(0.83205 -0.5547 0.830139 0.557556 778.95 159.438)" fill="#CFD8DC"/>
<rect width="9.13527" height="9.13527" rx="1.61211" transform="matrix(0.83205 -0.5547 0.830139 0.557556 789.233 152.582)" fill="#CFD8DC"/>
<rect width="9.13527" height="9.13527" rx="1.61211" transform="matrix(0.83205 -0.5547 0.830139 0.557556 809.801 138.871)" fill="#CFD8DC"/>
<rect width="9.13527" height="9.13527" rx="1.61211" transform="matrix(0.83205 -0.5547 0.830139 0.557556 820.085 132.015)" fill="#CFD8DC"/>
<path d="M25.043 167.63C25.043 169.329 25.5596 170.692 26.5929 171.718C27.6261 172.744 29.0231 173.258 30.7846 173.258C32.5461 173.258 33.7315 172.825 34.6126 171.957C35.493 171.084 35.9336 170.071 35.9336 168.92V168.816H33.3852V168.91C33.3852 169.374 33.1837 169.773 32.7816 170.106C32.3794 170.439 31.707 170.605 30.7636 170.605C29.7028 170.605 28.926 170.345 28.4333 169.825C27.9406 169.305 27.695 168.611 27.695 167.745V167.183C27.695 166.316 27.945 165.623 28.4442 165.103C28.9434 164.583 29.7166 164.322 30.7636 164.322C31.6788 164.322 32.3447 164.482 32.7606 164.801C33.1837 165.119 33.3953 165.522 33.3953 166.007V166.111H35.9437L35.9336 165.976C35.8923 164.818 35.4408 163.812 34.5815 162.959C33.7214 162.099 32.4563 161.67 30.7846 161.67C29.0231 161.67 27.6261 162.183 26.5929 163.209C25.5596 164.229 25.043 165.591 25.043 167.298V167.63Z" fill="#263238"/>
<path d="M38.0759 172.946H40.6765V167.543C40.6765 166.36 41.2453 165.748 41.7163 165.415C42.188 165.075 42.7256 164.906 43.3285 164.906C43.5154 164.906 43.6857 164.916 43.8379 164.937C43.9973 164.958 44.1465 164.982 44.2849 165.009V161.826C44.2154 161.799 44.0944 161.768 43.9212 161.733C43.7545 161.698 43.5915 161.681 43.4321 161.681C42.8147 161.681 42.2633 161.847 41.7779 162.18C41.3409 162.48 40.988 162.833 40.7192 163.24C40.6917 163.282 40.6258 163.265 40.6229 163.214L40.3953 161.982H38.0752V172.946H38.0759Z" fill="#263238"/>
<path d="M45.3477 167.63C45.3477 169.329 45.8853 170.692 46.9599 171.718C48.0344 172.744 49.4496 173.258 51.2038 173.258C52.958 173.258 54.3623 172.745 55.4376 171.718C56.5194 170.692 57.0599 169.329 57.0599 167.63V167.298C57.0599 165.592 56.5187 164.229 55.4376 163.209C54.363 162.183 52.9515 161.67 51.2038 161.67C49.4561 161.67 48.0344 162.183 46.9599 163.209C45.8853 164.229 45.3477 165.591 45.3477 167.298V167.63ZM48.0004 167.183C48.0004 166.233 48.2779 165.54 48.8322 165.103C49.3873 164.666 50.1778 164.448 51.2038 164.448C52.2298 164.448 53.0102 164.666 53.5652 165.103C54.1268 165.54 54.4079 166.233 54.4079 167.183V167.745C54.4079 168.729 54.1304 169.433 53.5761 169.856C53.0283 170.272 52.2378 170.48 51.2045 170.48C50.1713 170.48 49.3771 170.272 48.8228 169.856C48.275 169.433 48.0011 168.729 48.0011 167.745V167.183H48.0004Z" fill="#263238"/>
<path d="M58.2412 161.982L61.5077 172.946H64.4662L66.7856 164.985C66.8102 164.899 66.9312 164.898 66.958 164.983L69.4593 172.947H72.4156L75.7024 161.983H72.4859L70.8636 168.089C70.794 168.367 70.7281 168.641 70.6658 168.911C70.6303 169.081 70.5708 169.352 70.5339 169.523C70.5259 169.56 70.4716 169.561 70.4629 169.523C70.4172 169.327 70.3665 169.123 70.3122 168.91C70.2426 168.633 70.1665 168.359 70.0832 168.089L68.2732 161.983H65.1944C65.1944 161.983 63.3764 168.211 63.0416 169.452C63.0271 169.506 62.951 169.505 62.9373 169.452L61.0548 161.983H58.2419L58.2412 161.982Z" fill="#263238"/>
<path d="M76.5527 167.63C76.5527 169.253 76.9933 170.581 77.8737 171.614C78.7613 172.64 79.9924 173.154 81.5669 173.154C82.385 173.154 83.0922 173.005 83.6885 172.707C84.103 172.498 84.6348 172.026 84.9275 171.751C85.0464 172.256 85.2072 172.946 85.2072 172.946H87.7846V157H85.0717V163.303C84.7254 162.818 84.2674 162.443 83.6986 162.18C83.1306 161.91 82.44 161.774 81.6292 161.774C80.1032 161.774 78.8758 162.291 77.9468 163.324C77.0172 164.35 76.5527 165.675 76.5527 167.298V167.63ZM79.2055 167.734L79.1953 167.194C79.1953 166.403 79.4381 165.765 79.9228 165.28C80.4083 164.788 81.1611 164.542 82.1806 164.542C82.8944 164.542 83.5016 164.708 84.0008 165.041C84.0059 165.044 84.0109 165.047 84.016 165.051C84.6834 165.501 85.0717 166.264 85.0717 167.069V167.822C85.0717 168.65 84.6609 169.431 83.9646 169.878C83.9595 169.882 83.9537 169.885 83.9486 169.888C83.4146 170.221 82.7973 170.388 82.0973 170.388C81.0706 170.388 80.3322 170.141 79.8815 169.649C79.4308 169.157 79.2055 168.519 79.2055 167.736V167.734Z" fill="#263238"/>
<path d="M90.8651 172.946H93.4556V161.982H90.8651V172.946ZM90.3145 158.987C90.3145 159.459 90.4739 159.847 90.7927 160.152C91.1187 160.451 91.576 160.599 92.1658 160.599C92.7556 160.599 93.199 160.446 93.5179 160.141C93.8439 159.836 94.007 159.451 94.007 158.987C94.007 158.522 93.8476 158.148 93.528 157.843C93.2092 157.538 92.752 157.385 92.1549 157.385C91.5578 157.385 91.1187 157.538 90.7927 157.843C90.4739 158.148 90.3145 158.529 90.3145 158.987Z" fill="#263238"/>
<path d="M96.5967 172.946H99.1871V168.498C99.1871 165.98 100.077 164.386 102.016 164.386C103.955 164.386 104.367 165.512 104.367 167.096V172.946H106.957V166.445C106.957 164.58 106.576 163.335 105.813 162.71C105.05 162.079 104.076 161.764 102.89 161.764C102.106 161.764 101.382 161.91 100.716 162.201C100.117 162.46 99.6291 162.827 99.2538 163.304C99.2226 163.135 99.0516 161.983 99.0516 161.983H96.5967V172.947V172.946Z" fill="#263238"/>
<path d="M72.6667 121H59.2267C56.4533 121 54.1387 121.917 52.528 123.528C50.9173 125.139 50 127.453 50 130.227V143.667C50 146.504 50.9173 148.829 52.5387 150.461C54.16 152.093 56.496 153 59.3333 153H72.6667C75.504 153 77.8293 152.083 79.4613 150.461C81.0933 148.84 82 146.504 82 143.667V130.333C82 127.496 81.0827 125.171 79.4613 123.539C77.84 121.907 75.504 121 72.6667 121Z" fill="#263238"/>
<path d="M69.798 140.616C69.7873 140.499 69.6913 140.051 69.382 140.04C69.0727 140.04 68.422 140.04 68.422 140.04C68.422 140.04 68.0273 140.04 68.0273 140.424C68.038 141.171 68.4647 141.811 68.9873 142.237C69.4247 142.6 69.958 142.792 70.566 142.792C71.0993 142.781 71.1633 142.397 70.9073 142.28C70.4807 142.077 69.926 141.629 69.8087 140.616H69.798Z" fill="white"/>
<path d="M72.6668 130.333C69.9788 130.333 67.2908 130.984 65.5415 132.04C64.6028 132.605 63.8775 133.288 63.3761 134.077C62.9708 134.717 62.7041 135.411 62.6081 136.157C62.5761 136.403 62.5548 137.171 63.3655 137.373C63.8668 137.501 64.6561 137.555 65.1788 137.619C66.0321 137.715 66.2668 136.765 66.3415 136.605C67.0135 134.749 68.0161 133.501 69.4455 132.68C70.8961 131.848 72.8481 131.464 75.5895 131.464C75.9521 131.464 76.7948 131.507 76.7948 131.091C76.7948 130.344 73.1681 130.344 72.6668 130.344V130.333Z" fill="white"/>
<path d="M68.9232 144.424C67.9526 144.2 66.3206 143.144 65.9472 140.467C65.8726 139.965 65.5952 139.72 65.1686 139.635C64.6032 139.517 63.6112 139.464 63.2912 139.432C62.8326 139.389 62.4912 139.656 62.5446 140.456C62.6406 141.672 63.1312 142.621 63.9526 143.56C64.9232 144.669 66.2032 145.309 67.5686 145.277C69.0726 145.245 69.1792 144.979 69.1899 144.776C69.1899 144.573 69.0939 144.456 68.9232 144.413V144.424Z" fill="white"/>
<path d="M64.8376 146.664C63.3336 146.664 60.1763 144.253 60.1763 140.477C60.1763 139.816 59.7709 139.144 58.9389 138.899C58.2669 138.696 57.3069 138.397 56.6989 138.365C55.2376 138.269 55.3123 139.485 55.3549 140.125C55.4936 142.803 56.6776 145.064 58.6296 146.344C59.4403 146.877 60.4003 147.24 61.5309 147.453C61.7976 147.507 62.7469 147.699 63.7069 147.667C65.1896 147.603 65.3389 147.176 65.3389 147.005C65.3389 146.781 65.1789 146.675 64.8376 146.675V146.664Z" fill="white"/>
<path d="M77.1678 127.72C73.5838 126.685 69.7225 126.387 66.0425 126.771C62.1278 127.187 57.2851 128.744 55.7598 133.405C55.5998 133.885 55.3118 135.645 56.9971 136.072C57.5411 136.211 58.0958 136.456 58.6718 136.563C60.3145 136.861 60.6665 135.304 60.7625 134.995C60.8585 134.696 60.9651 134.408 61.0931 134.109C61.6158 132.989 62.3945 132.04 63.2798 131.304C65.1145 129.768 67.3971 129.043 69.6158 128.691C70.9065 128.488 72.1971 128.403 73.4878 128.435C77.4025 128.52 77.8291 128.819 77.9785 128.392C78.1278 127.965 77.4238 127.784 77.1678 127.72Z" fill="white"/>
<path d="M73.8294 133.832C69.4988 133.832 68.3681 136.008 68.0481 137.459C67.8988 138.163 68.3254 138.216 68.7201 138.291C69.2748 138.387 69.7228 138.301 69.9254 137.768C70.5334 136.115 71.3654 134.493 74.0001 134.493C74.2668 134.493 74.5014 134.323 74.5014 134.163C74.5014 134.003 74.3308 133.832 73.8401 133.832H73.8294Z" fill="white"/>
</svg>
