<svg width="844" height="327" viewBox="0 0 844 327" fill="none" xmlns="http://www.w3.org/2000/svg">
<rect x="306" y="14" width="219" height="38" rx="19" fill="#43A047"/>
<path d="M332.316 29.325C331.746 29.325 331.231 29.425 330.771 29.625C330.311 29.815 329.921 30.1 329.601 30.48C329.281 30.85 329.036 31.305 328.866 31.845C328.696 32.375 328.611 32.975 328.611 33.645C328.611 34.525 328.746 35.29 329.016 35.94C329.296 36.59 329.706 37.09 330.246 37.44C330.796 37.79 331.481 37.965 332.301 37.965C332.771 37.965 333.216 37.925 333.636 37.845C334.056 37.765 334.466 37.665 334.866 37.545V38.715C334.466 38.865 334.051 38.975 333.621 39.045C333.201 39.115 332.696 39.15 332.106 39.15C331.016 39.15 330.106 38.925 329.376 38.475C328.646 38.025 328.096 37.385 327.726 36.555C327.366 35.725 327.186 34.75 327.186 33.63C327.186 32.82 327.296 32.08 327.516 31.41C327.746 30.74 328.076 30.16 328.506 29.67C328.946 29.18 329.486 28.805 330.126 28.545C330.766 28.275 331.501 28.14 332.331 28.14C332.881 28.14 333.411 28.195 333.921 28.305C334.431 28.415 334.886 28.57 335.286 28.77L334.746 29.91C334.416 29.76 334.046 29.625 333.636 29.505C333.236 29.385 332.796 29.325 332.316 29.325ZM341.273 30.81C341.423 30.81 341.583 30.82 341.753 30.84C341.933 30.85 342.088 30.87 342.218 30.9L342.053 32.115C341.923 32.085 341.778 32.06 341.618 32.04C341.468 32.02 341.323 32.01 341.183 32.01C340.873 32.01 340.578 32.075 340.298 32.205C340.018 32.335 339.768 32.52 339.548 32.76C339.328 32.99 339.153 33.27 339.023 33.6C338.903 33.93 338.843 34.3 338.843 34.71V39H337.523V30.96H338.603L338.753 32.43H338.813C338.983 32.13 339.188 31.86 339.428 31.62C339.668 31.37 339.943 31.175 340.253 31.035C340.563 30.885 340.903 30.81 341.273 30.81ZM350.916 34.965C350.916 35.635 350.826 36.23 350.646 36.75C350.476 37.26 350.226 37.695 349.896 38.055C349.576 38.415 349.181 38.69 348.711 38.88C348.251 39.06 347.736 39.15 347.166 39.15C346.636 39.15 346.146 39.06 345.696 38.88C345.246 38.69 344.856 38.415 344.526 38.055C344.196 37.695 343.936 37.26 343.746 36.75C343.566 36.23 343.476 35.635 343.476 34.965C343.476 34.075 343.626 33.325 343.926 32.715C344.226 32.095 344.656 31.625 345.216 31.305C345.776 30.975 346.441 30.81 347.211 30.81C347.941 30.81 348.581 30.975 349.131 31.305C349.691 31.625 350.126 32.095 350.436 32.715C350.756 33.325 350.916 34.075 350.916 34.965ZM344.841 34.965C344.841 35.595 344.921 36.145 345.081 36.615C345.251 37.075 345.511 37.43 345.861 37.68C346.211 37.93 346.656 38.055 347.196 38.055C347.736 38.055 348.181 37.93 348.531 37.68C348.881 37.43 349.136 37.075 349.296 36.615C349.466 36.145 349.551 35.595 349.551 34.965C349.551 34.325 349.466 33.78 349.296 33.33C349.126 32.88 348.866 32.535 348.516 32.295C348.176 32.045 347.731 31.92 347.181 31.92C346.361 31.92 345.766 32.19 345.396 32.73C345.026 33.27 344.841 34.015 344.841 34.965ZM358.405 34.455C358.345 34.245 358.285 34.04 358.225 33.84C358.165 33.63 358.11 33.435 358.06 33.255C358.02 33.065 357.98 32.89 357.94 32.73C357.9 32.57 357.87 32.435 357.85 32.325H357.79C357.77 32.435 357.74 32.57 357.7 32.73C357.67 32.89 357.63 33.065 357.58 33.255C357.54 33.445 357.49 33.645 357.43 33.855C357.38 34.055 357.32 34.26 357.25 34.47L355.81 38.985H354.31L352.105 30.945H353.47L354.58 35.235C354.66 35.525 354.735 35.82 354.805 36.12C354.875 36.41 354.935 36.69 354.985 36.96C355.045 37.22 355.085 37.445 355.105 37.635H355.165C355.195 37.515 355.23 37.365 355.27 37.185C355.31 37.005 355.35 36.815 355.39 36.615C355.44 36.415 355.49 36.215 355.54 36.015C355.6 35.815 355.655 35.635 355.705 35.475L357.13 30.945H358.57L359.95 35.475C360.02 35.705 360.09 35.95 360.16 36.21C360.24 36.47 360.31 36.725 360.37 36.975C360.43 37.215 360.47 37.43 360.49 37.62H360.55C360.57 37.45 360.605 37.24 360.655 36.99C360.715 36.73 360.78 36.45 360.85 36.15C360.93 35.84 361.01 35.535 361.09 35.235L362.215 30.945H363.565L361.33 38.985H359.785L358.405 34.455ZM368.357 39.15C367.357 39.15 366.557 38.805 365.957 38.115C365.357 37.415 365.057 36.375 365.057 34.995C365.057 33.615 365.357 32.575 365.957 31.875C366.567 31.165 367.372 30.81 368.372 30.81C368.792 30.81 369.157 30.865 369.467 30.975C369.777 31.075 370.047 31.215 370.277 31.395C370.507 31.575 370.702 31.775 370.862 31.995H370.952C370.942 31.865 370.922 31.675 370.892 31.425C370.872 31.165 370.862 30.96 370.862 30.81V27.6H372.182V39H371.117L370.922 37.92H370.862C370.702 38.15 370.507 38.36 370.277 38.55C370.047 38.73 369.772 38.875 369.452 38.985C369.142 39.095 368.777 39.15 368.357 39.15ZM368.567 38.055C369.417 38.055 370.012 37.825 370.352 37.365C370.702 36.895 370.877 36.19 370.877 35.25V35.01C370.877 34.01 370.712 33.245 370.382 32.715C370.052 32.175 369.442 31.905 368.552 31.905C367.842 31.905 367.307 32.19 366.947 32.76C366.597 33.32 366.422 34.075 366.422 35.025C366.422 35.985 366.597 36.73 366.947 37.26C367.307 37.79 367.847 38.055 368.567 38.055ZM376.556 30.96V39H375.236V30.96H376.556ZM375.911 27.945C376.111 27.945 376.286 28.015 376.436 28.155C376.596 28.285 376.676 28.495 376.676 28.785C376.676 29.065 376.596 29.275 376.436 29.415C376.286 29.555 376.111 29.625 375.911 29.625C375.691 29.625 375.506 29.555 375.356 29.415C375.206 29.275 375.131 29.065 375.131 28.785C375.131 28.495 375.206 28.285 375.356 28.155C375.506 28.015 375.691 27.945 375.911 27.945ZM383.473 30.81C384.433 30.81 385.158 31.045 385.648 31.515C386.138 31.975 386.383 32.725 386.383 33.765V39H385.078V33.855C385.078 33.205 384.933 32.72 384.643 32.4C384.353 32.08 383.898 31.92 383.278 31.92C382.388 31.92 381.773 32.17 381.433 32.67C381.093 33.17 380.923 33.89 380.923 34.83V39H379.603V30.96H380.668L380.863 32.055H380.938C381.118 31.775 381.338 31.545 381.598 31.365C381.868 31.175 382.163 31.035 382.483 30.945C382.803 30.855 383.133 30.81 383.473 30.81ZM400.672 39L399.382 35.685H395.137L393.862 39H392.497L396.682 28.245H397.897L402.067 39H400.672ZM397.777 31.245C397.747 31.165 397.697 31.02 397.627 30.81C397.557 30.6 397.487 30.385 397.417 30.165C397.357 29.935 397.307 29.76 397.267 29.64C397.217 29.84 397.162 30.045 397.102 30.255C397.052 30.455 396.997 30.64 396.937 30.81C396.887 30.98 396.842 31.125 396.802 31.245L395.587 34.485H398.977L397.777 31.245ZM407.677 30.81C408.667 30.81 409.462 31.155 410.062 31.845C410.672 32.535 410.977 33.575 410.977 34.965C410.977 35.875 410.837 36.645 410.557 37.275C410.287 37.895 409.902 38.365 409.402 38.685C408.912 38.995 408.332 39.15 407.662 39.15C407.252 39.15 406.887 39.095 406.567 38.985C406.247 38.875 405.972 38.735 405.742 38.565C405.522 38.385 405.332 38.19 405.172 37.98H405.082C405.102 38.15 405.122 38.365 405.142 38.625C405.162 38.885 405.172 39.11 405.172 39.3V42.6H403.852V30.96H404.932L405.112 32.055H405.172C405.332 31.825 405.522 31.615 405.742 31.425C405.972 31.235 406.242 31.085 406.552 30.975C406.872 30.865 407.247 30.81 407.677 30.81ZM407.437 31.92C406.897 31.92 406.462 32.025 406.132 32.235C405.802 32.435 405.562 32.74 405.412 33.15C405.262 33.56 405.182 34.08 405.172 34.71V34.965C405.172 35.625 405.242 36.185 405.382 36.645C405.522 37.105 405.757 37.455 406.087 37.695C406.427 37.935 406.887 38.055 407.467 38.055C407.957 38.055 408.357 37.92 408.667 37.65C408.987 37.38 409.222 37.015 409.372 36.555C409.532 36.085 409.612 35.55 409.612 34.95C409.612 34.03 409.432 33.295 409.072 32.745C408.722 32.195 408.177 31.92 407.437 31.92ZM417.406 30.81C418.396 30.81 419.191 31.155 419.791 31.845C420.401 32.535 420.706 33.575 420.706 34.965C420.706 35.875 420.566 36.645 420.286 37.275C420.016 37.895 419.631 38.365 419.131 38.685C418.641 38.995 418.061 39.15 417.391 39.15C416.981 39.15 416.616 39.095 416.296 38.985C415.976 38.875 415.701 38.735 415.471 38.565C415.251 38.385 415.061 38.19 414.901 37.98H414.811C414.831 38.15 414.851 38.365 414.871 38.625C414.891 38.885 414.901 39.11 414.901 39.3V42.6H413.581V30.96H414.661L414.841 32.055H414.901C415.061 31.825 415.251 31.615 415.471 31.425C415.701 31.235 415.971 31.085 416.281 30.975C416.601 30.865 416.976 30.81 417.406 30.81ZM417.166 31.92C416.626 31.92 416.191 32.025 415.861 32.235C415.531 32.435 415.291 32.74 415.141 33.15C414.991 33.56 414.911 34.08 414.901 34.71V34.965C414.901 35.625 414.971 36.185 415.111 36.645C415.251 37.105 415.486 37.455 415.816 37.695C416.156 37.935 416.616 38.055 417.196 38.055C417.686 38.055 418.086 37.92 418.396 37.65C418.716 37.38 418.951 37.015 419.101 36.555C419.261 36.085 419.341 35.55 419.341 34.95C419.341 34.03 419.161 33.295 418.801 32.745C418.451 32.195 417.906 31.92 417.166 31.92ZM436.466 33.54C436.466 34.74 436.241 35.745 435.791 36.555C435.351 37.365 434.716 37.975 433.886 38.385C433.056 38.795 432.051 39 430.871 39H427.886V28.29H431.186C432.266 28.29 433.201 28.49 433.991 28.89C434.781 29.29 435.391 29.88 435.821 30.66C436.251 31.43 436.466 32.39 436.466 33.54ZM435.041 33.585C435.041 32.635 434.881 31.855 434.561 31.245C434.251 30.635 433.791 30.185 433.181 29.895C432.581 29.595 431.851 29.445 430.991 29.445H429.236V37.845H430.691C432.141 37.845 433.226 37.49 433.946 36.78C434.676 36.06 435.041 34.995 435.041 33.585ZM442.268 30.81C442.958 30.81 443.548 30.96 444.038 31.26C444.538 31.56 444.918 31.985 445.178 32.535C445.448 33.075 445.583 33.71 445.583 34.44V35.235H440.078C440.098 36.145 440.328 36.84 440.768 37.32C441.218 37.79 441.843 38.025 442.643 38.025C443.153 38.025 443.603 37.98 443.993 37.89C444.393 37.79 444.803 37.65 445.223 37.47V38.625C444.813 38.805 444.408 38.935 444.008 39.015C443.608 39.105 443.133 39.15 442.583 39.15C441.823 39.15 441.148 38.995 440.558 38.685C439.978 38.375 439.523 37.915 439.193 37.305C438.873 36.685 438.713 35.93 438.713 35.04C438.713 34.16 438.858 33.405 439.148 32.775C439.448 32.145 439.863 31.66 440.393 31.32C440.933 30.98 441.558 30.81 442.268 30.81ZM442.253 31.89C441.623 31.89 441.123 32.095 440.753 32.505C440.393 32.905 440.178 33.465 440.108 34.185H444.203C444.203 33.725 444.133 33.325 443.993 32.985C443.853 32.645 443.638 32.38 443.348 32.19C443.068 31.99 442.703 31.89 442.253 31.89ZM453.364 36.78C453.364 37.3 453.234 37.735 452.974 38.085C452.714 38.435 452.344 38.7 451.864 38.88C451.384 39.06 450.814 39.15 450.154 39.15C449.594 39.15 449.109 39.105 448.699 39.015C448.299 38.925 447.944 38.8 447.634 38.64V37.44C447.954 37.6 448.339 37.75 448.789 37.89C449.249 38.02 449.714 38.085 450.184 38.085C450.854 38.085 451.339 37.98 451.639 37.77C451.939 37.55 452.089 37.26 452.089 36.9C452.089 36.7 452.034 36.52 451.924 36.36C451.814 36.2 451.614 36.04 451.324 35.88C451.044 35.72 450.639 35.54 450.109 35.34C449.589 35.14 449.144 34.94 448.774 34.74C448.404 34.54 448.119 34.3 447.919 34.02C447.719 33.74 447.619 33.38 447.619 32.94C447.619 32.26 447.894 31.735 448.444 31.365C449.004 30.995 449.734 30.81 450.634 30.81C451.124 30.81 451.579 30.86 451.999 30.96C452.429 31.05 452.829 31.18 453.199 31.35L452.749 32.4C452.409 32.26 452.054 32.14 451.684 32.04C451.314 31.94 450.934 31.89 450.544 31.89C450.004 31.89 449.589 31.98 449.299 32.16C449.019 32.33 448.879 32.565 448.879 32.865C448.879 33.085 448.944 33.275 449.074 33.435C449.204 33.585 449.419 33.735 449.719 33.885C450.029 34.025 450.439 34.195 450.949 34.395C451.459 34.585 451.894 34.78 452.254 34.98C452.614 35.18 452.889 35.425 453.079 35.715C453.269 35.995 453.364 36.35 453.364 36.78ZM459.032 39.15C458.322 39.15 457.687 39.005 457.127 38.715C456.577 38.425 456.142 37.975 455.822 37.365C455.512 36.755 455.357 35.975 455.357 35.025C455.357 34.035 455.522 33.23 455.852 32.61C456.182 31.99 456.627 31.535 457.187 31.245C457.757 30.955 458.402 30.81 459.122 30.81C459.532 30.81 459.927 30.855 460.307 30.945C460.687 31.025 460.997 31.125 461.237 31.245L460.832 32.34C460.592 32.25 460.312 32.165 459.992 32.085C459.672 32.005 459.372 31.965 459.092 31.965C458.552 31.965 458.107 32.08 457.757 32.31C457.407 32.54 457.147 32.88 456.977 33.33C456.807 33.78 456.722 34.34 456.722 35.01C456.722 35.65 456.807 36.195 456.977 36.645C457.147 37.095 457.402 37.435 457.742 37.665C458.082 37.895 458.507 38.01 459.017 38.01C459.457 38.01 459.842 37.965 460.172 37.875C460.512 37.785 460.822 37.675 461.102 37.545V38.715C460.832 38.855 460.532 38.96 460.202 39.03C459.882 39.11 459.492 39.15 459.032 39.15ZM467.264 30.81C467.414 30.81 467.574 30.82 467.744 30.84C467.924 30.85 468.079 30.87 468.209 30.9L468.044 32.115C467.914 32.085 467.769 32.06 467.609 32.04C467.459 32.02 467.314 32.01 467.174 32.01C466.864 32.01 466.569 32.075 466.289 32.205C466.009 32.335 465.759 32.52 465.539 32.76C465.319 32.99 465.144 33.27 465.014 33.6C464.894 33.93 464.834 34.3 464.834 34.71V39H463.514V30.96H464.594L464.744 32.43H464.804C464.974 32.13 465.179 31.86 465.419 31.62C465.659 31.37 465.934 31.175 466.244 31.035C466.554 30.885 466.894 30.81 467.264 30.81ZM471.531 30.96V39H470.211V30.96H471.531ZM470.886 27.945C471.086 27.945 471.261 28.015 471.411 28.155C471.571 28.285 471.651 28.495 471.651 28.785C471.651 29.065 471.571 29.275 471.411 29.415C471.261 29.555 471.086 29.625 470.886 29.625C470.666 29.625 470.481 29.555 470.331 29.415C470.181 29.275 470.106 29.065 470.106 28.785C470.106 28.495 470.181 28.285 470.331 28.155C470.481 28.015 470.666 27.945 470.886 27.945ZM478.403 30.81C479.393 30.81 480.188 31.155 480.788 31.845C481.398 32.535 481.703 33.575 481.703 34.965C481.703 35.875 481.563 36.645 481.283 37.275C481.013 37.895 480.628 38.365 480.128 38.685C479.638 38.995 479.058 39.15 478.388 39.15C477.978 39.15 477.613 39.095 477.293 38.985C476.973 38.875 476.698 38.735 476.468 38.565C476.248 38.385 476.058 38.19 475.898 37.98H475.808C475.828 38.15 475.848 38.365 475.868 38.625C475.888 38.885 475.898 39.11 475.898 39.3V42.6H474.578V30.96H475.658L475.838 32.055H475.898C476.058 31.825 476.248 31.615 476.468 31.425C476.698 31.235 476.968 31.085 477.278 30.975C477.598 30.865 477.973 30.81 478.403 30.81ZM478.163 31.92C477.623 31.92 477.188 32.025 476.858 32.235C476.528 32.435 476.288 32.74 476.138 33.15C475.988 33.56 475.908 34.08 475.898 34.71V34.965C475.898 35.625 475.968 36.185 476.108 36.645C476.248 37.105 476.483 37.455 476.813 37.695C477.153 37.935 477.613 38.055 478.193 38.055C478.683 38.055 479.083 37.92 479.393 37.65C479.713 37.38 479.948 37.015 480.098 36.555C480.258 36.085 480.338 35.55 480.338 34.95C480.338 34.03 480.158 33.295 479.798 32.745C479.448 32.195 478.903 31.92 478.163 31.92ZM486.991 38.07C487.191 38.07 487.396 38.055 487.606 38.025C487.816 37.985 487.986 37.945 488.116 37.905V38.91C487.976 38.98 487.776 39.035 487.516 39.075C487.256 39.125 487.006 39.15 486.766 39.15C486.346 39.15 485.956 39.08 485.596 38.94C485.246 38.79 484.961 38.535 484.741 38.175C484.521 37.815 484.411 37.31 484.411 36.66V31.98H483.271V31.35L484.426 30.825L484.951 29.115H485.731V30.96H488.056V31.98H485.731V36.63C485.731 37.12 485.846 37.485 486.076 37.725C486.316 37.955 486.621 38.07 486.991 38.07ZM497.216 34.965C497.216 35.635 497.126 36.23 496.946 36.75C496.776 37.26 496.526 37.695 496.196 38.055C495.876 38.415 495.481 38.69 495.011 38.88C494.551 39.06 494.036 39.15 493.466 39.15C492.936 39.15 492.446 39.06 491.996 38.88C491.546 38.69 491.156 38.415 490.826 38.055C490.496 37.695 490.236 37.26 490.046 36.75C489.866 36.23 489.776 35.635 489.776 34.965C489.776 34.075 489.926 33.325 490.226 32.715C490.526 32.095 490.956 31.625 491.516 31.305C492.076 30.975 492.741 30.81 493.511 30.81C494.241 30.81 494.881 30.975 495.431 31.305C495.991 31.625 496.426 32.095 496.736 32.715C497.056 33.325 497.216 34.075 497.216 34.965ZM491.141 34.965C491.141 35.595 491.221 36.145 491.381 36.615C491.551 37.075 491.811 37.43 492.161 37.68C492.511 37.93 492.956 38.055 493.496 38.055C494.036 38.055 494.481 37.93 494.831 37.68C495.181 37.43 495.436 37.075 495.596 36.615C495.766 36.145 495.851 35.595 495.851 34.965C495.851 34.325 495.766 33.78 495.596 33.33C495.426 32.88 495.166 32.535 494.816 32.295C494.476 32.045 494.031 31.92 493.481 31.92C492.661 31.92 492.066 32.19 491.696 32.73C491.326 33.27 491.141 34.015 491.141 34.965ZM503.558 30.81C503.708 30.81 503.868 30.82 504.038 30.84C504.218 30.85 504.373 30.87 504.503 30.9L504.338 32.115C504.208 32.085 504.063 32.06 503.903 32.04C503.753 32.02 503.608 32.01 503.468 32.01C503.158 32.01 502.863 32.075 502.583 32.205C502.303 32.335 502.053 32.52 501.833 32.76C501.613 32.99 501.438 33.27 501.308 33.6C501.188 33.93 501.128 34.3 501.128 34.71V39H499.808V30.96H500.888L501.038 32.43H501.098C501.268 32.13 501.473 31.86 501.713 31.62C501.953 31.37 502.228 31.175 502.538 31.035C502.848 30.885 503.188 30.81 503.558 30.81Z" fill="white"/>
<rect x="352" y="121" width="134" height="38" rx="19" fill="#43A047"/>
<path d="M378.334 146L377.044 142.685H372.799L371.524 146H370.159L374.344 135.245H375.559L379.729 146H378.334ZM375.439 138.245C375.409 138.165 375.359 138.02 375.289 137.81C375.219 137.6 375.149 137.385 375.079 137.165C375.019 136.935 374.969 136.76 374.929 136.64C374.879 136.84 374.824 137.045 374.764 137.255C374.714 137.455 374.659 137.64 374.599 137.81C374.549 137.98 374.504 138.125 374.464 138.245L373.249 141.485H376.639L375.439 138.245ZM384.529 135.29C385.929 135.29 386.949 135.565 387.589 136.115C388.229 136.665 388.549 137.44 388.549 138.44C388.549 138.88 388.474 139.305 388.324 139.715C388.184 140.115 387.949 140.475 387.619 140.795C387.289 141.115 386.849 141.37 386.299 141.56C385.749 141.74 385.074 141.83 384.274 141.83H383.044V146H381.694V135.29H384.529ZM384.409 136.445H383.044V140.675H384.124C384.804 140.675 385.369 140.605 385.819 140.465C386.269 140.315 386.604 140.08 386.824 139.76C387.044 139.44 387.154 139.02 387.154 138.5C387.154 137.81 386.934 137.295 386.494 136.955C386.054 136.615 385.359 136.445 384.409 136.445ZM394.291 146H390.421V145.22L391.681 144.935V136.37L390.421 136.07V135.29H394.291V136.07L393.031 136.37V144.935L394.291 145.22V146ZM404.21 135.29C405.1 135.29 405.83 135.405 406.4 135.635C406.98 135.855 407.41 136.19 407.69 136.64C407.97 137.09 408.11 137.655 408.11 138.335C408.11 138.905 408.005 139.38 407.795 139.76C407.585 140.14 407.315 140.445 406.985 140.675C406.665 140.895 406.325 141.07 405.965 141.2L408.905 146H407.33L404.735 141.575H402.605V146H401.255V135.29H404.21ZM404.135 136.46H402.605V140.435H404.21C405.08 140.435 405.715 140.265 406.115 139.925C406.515 139.575 406.715 139.065 406.715 138.395C406.715 137.925 406.62 137.55 406.43 137.27C406.25 136.99 405.97 136.785 405.59 136.655C405.21 136.525 404.725 136.46 404.135 136.46ZM414.011 137.81C414.701 137.81 415.291 137.96 415.781 138.26C416.281 138.56 416.661 138.985 416.921 139.535C417.191 140.075 417.326 140.71 417.326 141.44V142.235H411.821C411.841 143.145 412.071 143.84 412.511 144.32C412.961 144.79 413.586 145.025 414.386 145.025C414.896 145.025 415.346 144.98 415.736 144.89C416.136 144.79 416.546 144.65 416.966 144.47V145.625C416.556 145.805 416.151 145.935 415.751 146.015C415.351 146.105 414.876 146.15 414.326 146.15C413.566 146.15 412.891 145.995 412.301 145.685C411.721 145.375 411.266 144.915 410.936 144.305C410.616 143.685 410.456 142.93 410.456 142.04C410.456 141.16 410.601 140.405 410.891 139.775C411.191 139.145 411.606 138.66 412.136 138.32C412.676 137.98 413.301 137.81 414.011 137.81ZM413.996 138.89C413.366 138.89 412.866 139.095 412.496 139.505C412.136 139.905 411.921 140.465 411.851 141.185H415.946C415.946 140.725 415.876 140.325 415.736 139.985C415.596 139.645 415.381 139.38 415.091 139.19C414.811 138.99 414.446 138.89 413.996 138.89ZM425.228 146.165C425.228 145.985 425.233 145.775 425.243 145.535C425.253 145.295 425.273 145.09 425.303 144.92H425.213C424.983 145.26 424.663 145.55 424.253 145.79C423.853 146.03 423.333 146.15 422.693 146.15C421.723 146.15 420.933 145.805 420.323 145.115C419.723 144.415 419.423 143.375 419.423 141.995C419.423 141.075 419.563 140.305 419.843 139.685C420.123 139.065 420.513 138.6 421.013 138.29C421.513 137.97 422.088 137.81 422.738 137.81C423.368 137.81 423.883 137.93 424.283 138.17C424.683 138.41 425.003 138.705 425.243 139.055H425.303L425.498 137.96H426.548V149.6H425.228V146.165ZM422.948 145.055C423.498 145.055 423.938 144.955 424.268 144.755C424.608 144.555 424.853 144.25 425.003 143.84C425.153 143.42 425.233 142.9 425.243 142.28V142.01C425.243 140.99 425.073 140.22 424.733 139.7C424.393 139.17 423.788 138.905 422.918 138.905C422.198 138.905 421.663 139.19 421.313 139.76C420.963 140.32 420.788 141.075 420.788 142.025C420.788 142.975 420.963 143.72 421.313 144.26C421.673 144.79 422.218 145.055 422.948 145.055ZM436.322 137.96V146H435.242L435.047 144.935H434.987C434.817 145.215 434.597 145.445 434.327 145.625C434.057 145.805 433.762 145.935 433.442 146.015C433.122 146.105 432.787 146.15 432.437 146.15C431.797 146.15 431.257 146.05 430.817 145.85C430.387 145.64 430.062 145.32 429.842 144.89C429.622 144.46 429.512 143.905 429.512 143.225V137.96H430.847V143.135C430.847 143.775 430.992 144.255 431.282 144.575C431.572 144.895 432.022 145.055 432.632 145.055C433.232 145.055 433.702 144.945 434.042 144.725C434.392 144.495 434.637 144.165 434.777 143.735C434.927 143.295 435.002 142.765 435.002 142.145V137.96H436.322ZM442.479 137.81C443.169 137.81 443.759 137.96 444.249 138.26C444.749 138.56 445.129 138.985 445.389 139.535C445.659 140.075 445.794 140.71 445.794 141.44V142.235H440.289C440.309 143.145 440.539 143.84 440.979 144.32C441.429 144.79 442.054 145.025 442.854 145.025C443.364 145.025 443.814 144.98 444.204 144.89C444.604 144.79 445.014 144.65 445.434 144.47V145.625C445.024 145.805 444.619 145.935 444.219 146.015C443.819 146.105 443.344 146.15 442.794 146.15C442.034 146.15 441.359 145.995 440.769 145.685C440.189 145.375 439.734 144.915 439.404 144.305C439.084 143.685 438.924 142.93 438.924 142.04C438.924 141.16 439.069 140.405 439.359 139.775C439.659 139.145 440.074 138.66 440.604 138.32C441.144 137.98 441.769 137.81 442.479 137.81ZM442.464 138.89C441.834 138.89 441.334 139.095 440.964 139.505C440.604 139.905 440.389 140.465 440.319 141.185H444.414C444.414 140.725 444.344 140.325 444.204 139.985C444.064 139.645 443.849 139.38 443.559 139.19C443.279 138.99 442.914 138.89 442.464 138.89ZM453.576 143.78C453.576 144.3 453.446 144.735 453.186 145.085C452.926 145.435 452.556 145.7 452.076 145.88C451.596 146.06 451.026 146.15 450.366 146.15C449.806 146.15 449.321 146.105 448.911 146.015C448.511 145.925 448.156 145.8 447.846 145.64V144.44C448.166 144.6 448.551 144.75 449.001 144.89C449.461 145.02 449.926 145.085 450.396 145.085C451.066 145.085 451.551 144.98 451.851 144.77C452.151 144.55 452.301 144.26 452.301 143.9C452.301 143.7 452.246 143.52 452.136 143.36C452.026 143.2 451.826 143.04 451.536 142.88C451.256 142.72 450.851 142.54 450.321 142.34C449.801 142.14 449.356 141.94 448.986 141.74C448.616 141.54 448.331 141.3 448.131 141.02C447.931 140.74 447.831 140.38 447.831 139.94C447.831 139.26 448.106 138.735 448.656 138.365C449.216 137.995 449.946 137.81 450.846 137.81C451.336 137.81 451.791 137.86 452.211 137.96C452.641 138.05 453.041 138.18 453.411 138.35L452.961 139.4C452.621 139.26 452.266 139.14 451.896 139.04C451.526 138.94 451.146 138.89 450.756 138.89C450.216 138.89 449.801 138.98 449.511 139.16C449.231 139.33 449.091 139.565 449.091 139.865C449.091 140.085 449.156 140.275 449.286 140.435C449.416 140.585 449.631 140.735 449.931 140.885C450.241 141.025 450.651 141.195 451.161 141.395C451.671 141.585 452.106 141.78 452.466 141.98C452.826 142.18 453.101 142.425 453.291 142.715C453.481 142.995 453.576 143.35 453.576 143.78ZM458.704 145.07C458.904 145.07 459.109 145.055 459.319 145.025C459.529 144.985 459.699 144.945 459.829 144.905V145.91C459.689 145.98 459.489 146.035 459.229 146.075C458.969 146.125 458.719 146.15 458.479 146.15C458.059 146.15 457.669 146.08 457.309 145.94C456.959 145.79 456.674 145.535 456.454 145.175C456.234 144.815 456.124 144.31 456.124 143.66V138.98H454.984V138.35L456.139 137.825L456.664 136.115H457.444V137.96H459.769V138.98H457.444V143.63C457.444 144.12 457.559 144.485 457.789 144.725C458.029 144.955 458.334 145.07 458.704 145.07ZM467.174 143.78C467.174 144.3 467.044 144.735 466.784 145.085C466.524 145.435 466.154 145.7 465.674 145.88C465.194 146.06 464.624 146.15 463.964 146.15C463.404 146.15 462.919 146.105 462.509 146.015C462.109 145.925 461.754 145.8 461.444 145.64V144.44C461.764 144.6 462.149 144.75 462.599 144.89C463.059 145.02 463.524 145.085 463.994 145.085C464.664 145.085 465.149 144.98 465.449 144.77C465.749 144.55 465.899 144.26 465.899 143.9C465.899 143.7 465.844 143.52 465.734 143.36C465.624 143.2 465.424 143.04 465.134 142.88C464.854 142.72 464.449 142.54 463.919 142.34C463.399 142.14 462.954 141.94 462.584 141.74C462.214 141.54 461.929 141.3 461.729 141.02C461.529 140.74 461.429 140.38 461.429 139.94C461.429 139.26 461.704 138.735 462.254 138.365C462.814 137.995 463.544 137.81 464.444 137.81C464.934 137.81 465.389 137.86 465.809 137.96C466.239 138.05 466.639 138.18 467.009 138.35L466.559 139.4C466.219 139.26 465.864 139.14 465.494 139.04C465.124 138.94 464.744 138.89 464.354 138.89C463.814 138.89 463.399 138.98 463.109 139.16C462.829 139.33 462.689 139.565 462.689 139.865C462.689 140.085 462.754 140.275 462.884 140.435C463.014 140.585 463.229 140.735 463.529 140.885C463.839 141.025 464.249 141.195 464.759 141.395C465.269 141.585 465.704 141.78 466.064 141.98C466.424 142.18 466.699 142.425 466.889 142.715C467.079 142.995 467.174 143.35 467.174 143.78Z" fill="white"/>
<path d="M66 32.5V31.5H65V32.5H66ZM66 107.5L71.7735 97.5H60.2265L66 107.5ZM67 96.25V88.75H65V96.25H67ZM67 81.25V73.75H65V81.25H67ZM67 66.25V58.75H65V66.25H67ZM67 51.25V43.75H65V51.25H67ZM67 36.25V32.5H65V36.25H67ZM66 33.5H69.4922V31.5H66V33.5ZM76.4766 33.5H83.4609V31.5H76.4766V33.5ZM90.4453 33.5H97.4297V31.5H90.4453V33.5ZM104.414 33.5H111.398V31.5H104.414V33.5ZM118.383 33.5H125.367V31.5H118.383V33.5ZM132.352 33.5H139.336V31.5H132.352V33.5ZM146.32 33.5H153.305V31.5H146.32V33.5ZM160.289 33.5H167.273V31.5H160.289V33.5ZM174.258 33.5H181.242V31.5H174.258V33.5ZM188.227 33.5H195.211V31.5H188.227V33.5ZM202.195 33.5H209.18V31.5H202.195V33.5ZM216.164 33.5H223.148V31.5H216.164V33.5ZM230.133 33.5H237.117V31.5H230.133V33.5ZM244.102 33.5H251.086V31.5H244.102V33.5ZM258.07 33.5H265.055V31.5H258.07V33.5ZM272.039 33.5H279.023V31.5H272.039V33.5ZM286.008 33.5H289.5V31.5H286.008V33.5Z" fill="#43A047"/>
<path d="M778.5 32V31H779.5V32H778.5ZM778.5 91L772.726 81H784.274L778.5 91ZM777.5 79.9375V72.5625H779.5V79.9375H777.5ZM777.5 65.1875V57.8125H779.5V65.1875H777.5ZM777.5 50.4375V43.0625H779.5V50.4375H777.5ZM777.5 35.6875V32H779.5V35.6875H777.5ZM778.5 33H775.029V31H778.5V33ZM768.088 33H761.147V31H768.088V33ZM754.206 33H747.265V31H754.206V33ZM740.324 33H733.382V31H740.324V33ZM726.441 33H719.5V31H726.441V33ZM712.559 33H705.618V31H712.559V33ZM698.676 33H691.735V31H698.676V33ZM684.794 33H677.853V31H684.794V33ZM670.912 33H663.971V31H670.912V33ZM657.029 33H650.088V31H657.029V33ZM643.147 33H636.206V31H643.147V33ZM629.265 33H622.324V31H629.265V33ZM615.382 33H608.441V31H615.382V33ZM601.5 33H594.559V31H601.5V33ZM587.618 33H580.676V31H587.618V33ZM573.735 33H566.794V31H573.735V33ZM559.853 33H552.912V31H559.853V33ZM545.971 33H542.5V31H545.971V33Z" fill="#43A047"/>
<path d="M311 260L301 265.774V254.226L311 260ZM66 260V261H65V260H66ZM67 191V194.45H65V191H67ZM67 201.35V208.25H65V201.35H67ZM67 215.15V222.05H65V215.15H67ZM67 228.95V235.85H65V228.95H67ZM67 242.75V249.65H65V242.75H67ZM67 256.55V260H65V256.55H67ZM66 259H69.4028V261H66V259ZM76.2083 259H83.0139V261H76.2083V259ZM89.8194 259H96.625V261H89.8194V259ZM103.431 259H110.236V261H103.431V259ZM117.042 259H123.847V261H117.042V259ZM130.653 259H137.458V261H130.653V259ZM144.264 259H151.069V261H144.264V259ZM157.875 259H164.681V261H157.875V259ZM171.486 259H178.292V261H171.486V259ZM185.097 259H191.903V261H185.097V259ZM198.708 259H205.514V261H198.708V259ZM212.319 259H219.125V261H212.319V259ZM225.931 259H232.736V261H225.931V259ZM239.542 259H246.347V261H239.542V259ZM253.153 259H259.958V261H253.153V259ZM266.764 259H273.569V261H266.764V259ZM280.375 259H287.181V261H280.375V259ZM293.986 259H300.792V261H293.986V259Z" fill="#43A047"/>
<path d="M536.5 260L546.5 265.774V254.226L536.5 260ZM777 260V261H778V260H777ZM776 216V219.667H778V216H776ZM776 227V234.333H778V227H776ZM776 241.667V249H778V241.667H776ZM776 256.333V260H778V256.333H776ZM777 259H773.463V261H777V259ZM766.39 259H759.316V261H766.39V259ZM752.243 259H745.169V261H752.243V259ZM738.096 259H731.022V261H738.096V259ZM723.949 259H716.875V261H723.949V259ZM709.801 259H702.728V261H709.801V259ZM695.654 259H688.581V261H695.654V259ZM681.507 259H674.434V261H681.507V259ZM667.36 259H660.287V261H667.36V259ZM653.213 259H646.14V261H653.213V259ZM639.066 259H631.993V261H639.066V259ZM624.919 259H617.846V261H624.919V259ZM610.772 259H603.699V261H610.772V259ZM596.625 259H589.551V261H596.625V259ZM582.478 259H575.404V261H582.478V259ZM568.331 259H561.257V261H568.331V259ZM554.184 259H547.11V261H554.184V259Z" fill="#43A047"/>
<path d="M119 141L129 146.774L129 135.227L119 141ZM129.313 142L136.188 142L136.187 140L129.312 140L129.313 142ZM143.063 142L149.938 142L149.937 140L143.062 140L143.063 142ZM156.813 142L163.688 142L163.687 140L156.812 140L156.813 142ZM170.563 142L177.438 142L177.437 140L170.562 140L170.563 142ZM184.313 142L191.188 142L191.187 140L184.312 140L184.313 142ZM198.063 142L204.938 142L204.937 140L198.062 140L198.063 142ZM211.813 142L218.688 142L218.687 140L211.812 140L211.813 142ZM225.563 142L232.438 142L232.437 140L225.562 140L225.563 142ZM239.313 142L246.188 142L246.187 140L239.312 140L239.313 142ZM253.063 142L259.938 142L259.937 140L253.062 140L253.063 142ZM266.813 142L273.688 142L273.687 140L266.812 140L266.813 142ZM280.563 142L287.438 142L287.437 140L280.562 140L280.563 142ZM294.313 142L301.188 142L301.187 140L294.312 140L294.313 142ZM308.063 142L314.938 142L314.937 140L308.062 140L308.063 142ZM321.813 142L328.688 142L328.687 140L321.812 140L321.813 142ZM335.563 142L339 142L339 140L335.562 140L335.563 142Z" fill="#43A047"/>
<path d="M496 141L506 146.774L506 135.227L496 141ZM506.475 142L513.458 142L513.458 140L506.475 140L506.475 142ZM520.442 142L527.425 142L527.425 140L520.442 140L520.442 142ZM534.408 142L541.392 142L541.392 140L534.408 140L534.408 142ZM548.375 142L555.358 142L555.358 140L548.375 140L548.375 142ZM562.342 142L569.325 142L569.325 140L562.342 140L562.342 142ZM576.308 142L583.292 142L583.292 140L576.308 140L576.308 142ZM590.275 142L597.258 142L597.258 140L590.275 140L590.275 142ZM604.242 142L611.225 142L611.225 140L604.242 140L604.242 142ZM618.208 142L625.192 142L625.192 140L618.208 140L618.208 142ZM632.175 142L639.158 142L639.158 140L632.175 140L632.175 142ZM646.142 142L653.125 142L653.125 140L646.142 140L646.142 142ZM660.108 142L667.092 142L667.092 140L660.108 140L660.108 142ZM674.075 142L681.058 142L681.058 140L674.075 140L674.075 142ZM688.042 142L695.025 142L695.025 140L688.042 140L688.042 142ZM702.008 142L705.5 142L705.5 140L702.008 140L702.008 142Z" fill="#43A047"/>
<rect x="317.5" y="211.5" width="208" height="96" rx="14.5" stroke="white" stroke-opacity="0.3"/>
<circle cx="354" cy="259.5" r="24.5" fill="#ECEFF1" stroke="white" stroke-width="3"/>
<path fill-rule="evenodd" clip-rule="evenodd" d="M339 276.988C341.367 274.485 344.34 272.591 347.665 271.511C345.335 270.126 343.524 268.014 342.511 265.5C341.498 262.986 341.339 260.209 342.057 257.595C342.775 254.982 344.332 252.676 346.488 251.033C348.643 249.39 351.279 248.5 353.99 248.5C356.7 248.5 359.336 249.39 361.491 251.033C363.647 252.676 365.204 254.982 365.922 257.595C366.64 260.209 366.481 262.986 365.468 265.5C364.455 268.014 362.644 270.126 360.315 271.511C363.618 272.585 366.574 274.461 368.934 276.941C364.907 280.406 359.668 282.5 353.939 282.5C348.237 282.5 343.019 280.425 339 276.988Z" fill="#CFD8DC"/>
<circle cx="388" cy="259.5" r="24.5" fill="#ECEFF1" stroke="white" stroke-width="3"/>
<path fill-rule="evenodd" clip-rule="evenodd" d="M373 276.988C375.367 274.485 378.34 272.591 381.665 271.511C379.335 270.126 377.524 268.014 376.511 265.5C375.498 262.986 375.339 260.209 376.057 257.595C376.775 254.982 378.332 252.676 380.488 251.033C382.643 249.39 385.279 248.5 387.99 248.5C390.7 248.5 393.336 249.39 395.491 251.033C397.647 252.676 399.204 254.982 399.922 257.595C400.64 260.209 400.481 262.986 399.468 265.5C398.455 268.014 396.644 270.126 394.315 271.511C397.618 272.585 400.574 274.461 402.934 276.941C398.907 280.406 393.668 282.5 387.939 282.5C382.237 282.5 377.019 280.425 373 276.988Z" fill="#CFD8DC"/>
<circle cx="422" cy="259.5" r="24.5" fill="#ECEFF1" stroke="white" stroke-width="3"/>
<path fill-rule="evenodd" clip-rule="evenodd" d="M407 276.988C409.367 274.485 412.34 272.591 415.665 271.511C413.335 270.126 411.524 268.014 410.511 265.5C409.498 262.986 409.339 260.209 410.057 257.595C410.775 254.982 412.332 252.676 414.488 251.033C416.643 249.39 419.279 248.5 421.99 248.5C424.7 248.5 427.336 249.39 429.491 251.033C431.647 252.676 433.204 254.982 433.922 257.595C434.64 260.209 434.481 262.986 433.468 265.5C432.455 268.014 430.644 270.126 428.315 271.511C431.618 272.585 434.574 274.461 436.934 276.941C432.907 280.406 427.668 282.5 421.939 282.5C416.237 282.5 411.019 280.425 407 276.988Z" fill="#CFD8DC"/>
<circle cx="489" cy="259.5" r="24.5" fill="#ECEFF1" stroke="white" stroke-width="3"/>
<path d="M483.666 258.956C483.666 259.607 483.618 260.257 483.522 260.908C483.426 261.548 483.266 262.156 483.042 262.732C482.818 263.297 482.498 263.804 482.082 264.252C481.676 264.689 481.159 265.036 480.53 265.292C479.911 265.537 479.159 265.66 478.274 265.66C478.06 265.66 477.81 265.649 477.522 265.628C477.234 265.607 476.994 265.569 476.802 265.516V264.092C477.004 264.156 477.228 264.204 477.474 264.236C477.73 264.268 477.975 264.284 478.21 264.284C478.946 264.284 479.548 264.177 480.018 263.964C480.498 263.74 480.876 263.431 481.154 263.036C481.442 262.641 481.65 262.183 481.778 261.66C481.906 261.137 481.98 260.583 482.002 259.996H481.906C481.746 260.241 481.548 260.465 481.314 260.668C481.079 260.871 480.791 261.031 480.45 261.148C480.119 261.265 479.719 261.324 479.25 261.324C478.599 261.324 478.023 261.185 477.522 260.908C477.031 260.631 476.652 260.236 476.386 259.724C476.119 259.201 475.986 258.567 475.986 257.82C475.986 257.009 476.135 256.316 476.434 255.74C476.743 255.153 477.175 254.705 477.73 254.396C478.295 254.087 478.951 253.932 479.698 253.932C480.252 253.932 480.77 254.033 481.25 254.236C481.73 254.439 482.151 254.748 482.514 255.164C482.876 255.58 483.159 256.103 483.362 256.732C483.564 257.361 483.666 258.103 483.666 258.956ZM479.714 255.324C479.106 255.324 478.61 255.527 478.226 255.932C477.842 256.337 477.65 256.956 477.65 257.788C477.65 258.471 477.81 259.009 478.13 259.404C478.46 259.799 478.967 259.996 479.65 259.996C480.119 259.996 480.524 259.9 480.866 259.708C481.207 259.505 481.474 259.26 481.666 258.972C481.858 258.673 481.954 258.364 481.954 258.044C481.954 257.724 481.906 257.404 481.81 257.084C481.714 256.764 481.575 256.471 481.394 256.204C481.212 255.937 480.978 255.724 480.69 255.564C480.412 255.404 480.087 255.324 479.714 255.324ZM492.822 258.956C492.822 259.607 492.774 260.257 492.678 260.908C492.582 261.548 492.422 262.156 492.198 262.732C491.974 263.297 491.654 263.804 491.238 264.252C490.833 264.689 490.315 265.036 489.686 265.292C489.067 265.537 488.315 265.66 487.43 265.66C487.217 265.66 486.966 265.649 486.678 265.628C486.39 265.607 486.15 265.569 485.958 265.516V264.092C486.161 264.156 486.385 264.204 486.63 264.236C486.886 264.268 487.131 264.284 487.366 264.284C488.102 264.284 488.705 264.177 489.174 263.964C489.654 263.74 490.033 263.431 490.31 263.036C490.598 262.641 490.806 262.183 490.934 261.66C491.062 261.137 491.137 260.583 491.158 259.996H491.062C490.902 260.241 490.705 260.465 490.47 260.668C490.235 260.871 489.947 261.031 489.606 261.148C489.275 261.265 488.875 261.324 488.406 261.324C487.755 261.324 487.179 261.185 486.678 260.908C486.187 260.631 485.809 260.236 485.542 259.724C485.275 259.201 485.142 258.567 485.142 257.82C485.142 257.009 485.291 256.316 485.59 255.74C485.899 255.153 486.331 254.705 486.886 254.396C487.451 254.087 488.107 253.932 488.854 253.932C489.409 253.932 489.926 254.033 490.406 254.236C490.886 254.439 491.307 254.748 491.67 255.164C492.033 255.58 492.315 256.103 492.518 256.732C492.721 257.361 492.822 258.103 492.822 258.956ZM488.87 255.324C488.262 255.324 487.766 255.527 487.382 255.932C486.998 256.337 486.806 256.956 486.806 257.788C486.806 258.471 486.966 259.009 487.286 259.404C487.617 259.799 488.123 259.996 488.806 259.996C489.275 259.996 489.681 259.9 490.022 259.708C490.363 259.505 490.63 259.26 490.822 258.972C491.014 258.673 491.11 258.364 491.11 258.044C491.11 257.724 491.062 257.404 490.966 257.084C490.87 256.764 490.731 256.471 490.55 256.204C490.369 255.937 490.134 255.724 489.846 255.564C489.569 255.404 489.243 255.324 488.87 255.324ZM498.794 259.212H501.93V260.508H498.794V263.724H497.482V260.508H494.346V259.212H497.482V255.98H498.794V259.212Z" fill="#90A4AE"/>
<rect x="387" y="298.5" width="69" height="28" rx="14" fill="white"/>
<path d="M410.24 314.468C410.24 315.257 410.08 315.972 409.76 316.612C409.44 317.241 408.949 317.743 408.288 318.116C407.637 318.479 406.805 318.66 405.792 318.66C404.373 318.66 403.291 318.276 402.544 317.508C401.808 316.729 401.44 315.705 401.44 314.436V307.076H402.88V314.484C402.88 315.412 403.125 316.132 403.616 316.644C404.117 317.156 404.869 317.412 405.872 317.412C406.565 317.412 407.125 317.289 407.552 317.044C407.989 316.788 408.309 316.441 408.512 316.004C408.715 315.556 408.816 315.044 408.816 314.468V307.076H410.24V314.468ZM418.647 316.132C418.647 316.687 418.508 317.151 418.231 317.524C417.954 317.897 417.559 318.18 417.047 318.372C416.535 318.564 415.927 318.66 415.223 318.66C414.626 318.66 414.108 318.612 413.671 318.516C413.244 318.42 412.866 318.287 412.535 318.116V316.836C412.876 317.007 413.287 317.167 413.767 317.316C414.258 317.455 414.754 317.524 415.255 317.524C415.97 317.524 416.487 317.412 416.807 317.188C417.127 316.953 417.287 316.644 417.287 316.26C417.287 316.047 417.228 315.855 417.111 315.684C416.994 315.513 416.78 315.343 416.471 315.172C416.172 315.001 415.74 314.809 415.175 314.596C414.62 314.383 414.146 314.169 413.751 313.956C413.356 313.743 413.052 313.487 412.839 313.188C412.626 312.889 412.519 312.505 412.519 312.036C412.519 311.311 412.812 310.751 413.399 310.356C413.996 309.961 414.775 309.764 415.735 309.764C416.258 309.764 416.743 309.817 417.191 309.924C417.65 310.02 418.076 310.159 418.471 310.34L417.991 311.46C417.756 311.353 417.506 311.263 417.239 311.188C416.983 311.103 416.722 311.039 416.455 310.996C416.188 310.943 415.916 310.916 415.639 310.916C415.063 310.916 414.62 311.012 414.311 311.204C414.012 311.385 413.863 311.636 413.863 311.956C413.863 312.191 413.932 312.393 414.071 312.564C414.21 312.724 414.439 312.884 414.759 313.044C415.09 313.193 415.527 313.375 416.071 313.588C416.615 313.791 417.079 313.999 417.463 314.212C417.847 314.425 418.14 314.687 418.343 314.996C418.546 315.295 418.647 315.673 418.647 316.132ZM424.031 309.764C424.767 309.764 425.397 309.924 425.919 310.244C426.453 310.564 426.858 311.017 427.135 311.604C427.423 312.18 427.567 312.857 427.567 313.636V314.484H421.695C421.717 315.455 421.962 316.196 422.431 316.708C422.911 317.209 423.578 317.46 424.431 317.46C424.975 317.46 425.455 317.412 425.871 317.316C426.298 317.209 426.735 317.06 427.183 316.868V318.1C426.746 318.292 426.314 318.431 425.887 318.516C425.461 318.612 424.954 318.66 424.367 318.66C423.557 318.66 422.837 318.495 422.207 318.164C421.589 317.833 421.103 317.343 420.751 316.692C420.41 316.031 420.239 315.225 420.239 314.276C420.239 313.337 420.394 312.532 420.703 311.86C421.023 311.188 421.466 310.671 422.031 310.308C422.607 309.945 423.274 309.764 424.031 309.764ZM424.015 310.916C423.343 310.916 422.81 311.135 422.415 311.572C422.031 311.999 421.802 312.596 421.727 313.364H426.095C426.095 312.873 426.021 312.447 425.871 312.084C425.722 311.721 425.493 311.439 425.183 311.236C424.885 311.023 424.495 310.916 424.015 310.916ZM433.751 309.764C433.911 309.764 434.081 309.775 434.263 309.796C434.455 309.807 434.62 309.828 434.759 309.86L434.583 311.156C434.444 311.124 434.289 311.097 434.119 311.076C433.959 311.055 433.804 311.044 433.655 311.044C433.324 311.044 433.009 311.113 432.711 311.252C432.412 311.391 432.145 311.588 431.911 311.844C431.676 312.089 431.489 312.388 431.351 312.74C431.223 313.092 431.159 313.487 431.159 313.924V318.5H429.751V309.924H430.903L431.063 311.492H431.127C431.308 311.172 431.527 310.884 431.783 310.628C432.039 310.361 432.332 310.153 432.663 310.004C432.993 309.844 433.356 309.764 433.751 309.764ZM441.944 316.132C441.944 316.687 441.805 317.151 441.528 317.524C441.251 317.897 440.856 318.18 440.344 318.372C439.832 318.564 439.224 318.66 438.52 318.66C437.923 318.66 437.405 318.612 436.968 318.516C436.541 318.42 436.163 318.287 435.832 318.116V316.836C436.173 317.007 436.584 317.167 437.064 317.316C437.555 317.455 438.051 317.524 438.552 317.524C439.267 317.524 439.784 317.412 440.104 317.188C440.424 316.953 440.584 316.644 440.584 316.26C440.584 316.047 440.525 315.855 440.408 315.684C440.291 315.513 440.077 315.343 439.768 315.172C439.469 315.001 439.037 314.809 438.472 314.596C437.917 314.383 437.443 314.169 437.048 313.956C436.653 313.743 436.349 313.487 436.136 313.188C435.923 312.889 435.816 312.505 435.816 312.036C435.816 311.311 436.109 310.751 436.696 310.356C437.293 309.961 438.072 309.764 439.032 309.764C439.555 309.764 440.04 309.817 440.488 309.924C440.947 310.02 441.373 310.159 441.768 310.34L441.288 311.46C441.053 311.353 440.803 311.263 440.536 311.188C440.28 311.103 440.019 311.039 439.752 310.996C439.485 310.943 439.213 310.916 438.936 310.916C438.36 310.916 437.917 311.012 437.608 311.204C437.309 311.385 437.16 311.636 437.16 311.956C437.16 312.191 437.229 312.393 437.368 312.564C437.507 312.724 437.736 312.884 438.056 313.044C438.387 313.193 438.824 313.375 439.368 313.588C439.912 313.791 440.376 313.999 440.76 314.212C441.144 314.425 441.437 314.687 441.64 314.996C441.843 315.295 441.944 315.673 441.944 316.132Z" fill="#263238"/>
<path d="M715 207C715 199.268 721.268 193 729 193H823C830.732 193 837 199.268 837 207V207C837 214.732 830.732 221 823 221H729C721.268 221 715 214.732 715 207V207Z" fill="white"/>
<path d="M734.448 202.68C733.84 202.68 733.291 202.787 732.8 203C732.309 203.203 731.893 203.507 731.552 203.912C731.211 204.307 730.949 204.792 730.768 205.368C730.587 205.933 730.496 206.573 730.496 207.288C730.496 208.227 730.64 209.043 730.928 209.736C731.227 210.429 731.664 210.963 732.24 211.336C732.827 211.709 733.557 211.896 734.432 211.896C734.933 211.896 735.408 211.853 735.856 211.768C736.304 211.683 736.741 211.576 737.168 211.448V212.696C736.741 212.856 736.299 212.973 735.84 213.048C735.392 213.123 734.853 213.16 734.224 213.16C733.061 213.16 732.091 212.92 731.312 212.44C730.533 211.96 729.947 211.277 729.552 210.392C729.168 209.507 728.976 208.467 728.976 207.272C728.976 206.408 729.093 205.619 729.328 204.904C729.573 204.189 729.925 203.571 730.384 203.048C730.853 202.525 731.429 202.125 732.112 201.848C732.795 201.56 733.579 201.416 734.464 201.416C735.051 201.416 735.616 201.475 736.16 201.592C736.704 201.709 737.189 201.875 737.616 202.088L737.04 203.304C736.688 203.144 736.293 203 735.856 202.872C735.429 202.744 734.96 202.68 734.448 202.68ZM743.469 204.264C743.629 204.264 743.8 204.275 743.981 204.296C744.173 204.307 744.339 204.328 744.477 204.36L744.301 205.656C744.163 205.624 744.008 205.597 743.837 205.576C743.677 205.555 743.523 205.544 743.373 205.544C743.043 205.544 742.728 205.613 742.429 205.752C742.131 205.891 741.864 206.088 741.629 206.344C741.395 206.589 741.208 206.888 741.069 207.24C740.941 207.592 740.877 207.987 740.877 208.424V213H739.469V204.424H740.621L740.781 205.992H740.845C741.027 205.672 741.245 205.384 741.501 205.128C741.757 204.861 742.051 204.653 742.381 204.504C742.712 204.344 743.075 204.264 743.469 204.264ZM753.222 208.696C753.222 209.411 753.126 210.045 752.934 210.6C752.753 211.144 752.486 211.608 752.134 211.992C751.793 212.376 751.372 212.669 750.87 212.872C750.38 213.064 749.83 213.16 749.222 213.16C748.657 213.16 748.134 213.064 747.654 212.872C747.174 212.669 746.758 212.376 746.406 211.992C746.054 211.608 745.777 211.144 745.574 210.6C745.382 210.045 745.286 209.411 745.286 208.696C745.286 207.747 745.446 206.947 745.766 206.296C746.086 205.635 746.545 205.133 747.142 204.792C747.74 204.44 748.449 204.264 749.27 204.264C750.049 204.264 750.732 204.44 751.318 204.792C751.916 205.133 752.38 205.635 752.71 206.296C753.052 206.947 753.222 207.747 753.222 208.696ZM746.742 208.696C746.742 209.368 746.828 209.955 746.998 210.456C747.18 210.947 747.457 211.325 747.83 211.592C748.204 211.859 748.678 211.992 749.254 211.992C749.83 211.992 750.305 211.859 750.678 211.592C751.052 211.325 751.324 210.947 751.494 210.456C751.676 209.955 751.766 209.368 751.766 208.696C751.766 208.013 751.676 207.432 751.494 206.952C751.313 206.472 751.036 206.104 750.662 205.848C750.3 205.581 749.825 205.448 749.238 205.448C748.364 205.448 747.729 205.736 747.334 206.312C746.94 206.888 746.742 207.683 746.742 208.696ZM760.677 208.152C760.613 207.928 760.549 207.709 760.485 207.496C760.421 207.272 760.363 207.064 760.309 206.872C760.267 206.669 760.224 206.483 760.181 206.312C760.139 206.141 760.107 205.997 760.085 205.88H760.021C760 205.997 759.968 206.141 759.925 206.312C759.893 206.483 759.851 206.669 759.797 206.872C759.755 207.075 759.701 207.288 759.637 207.512C759.584 207.725 759.52 207.944 759.445 208.168L757.909 212.984H756.309L753.957 204.408H755.413L756.597 208.984C756.683 209.293 756.763 209.608 756.837 209.928C756.912 210.237 756.976 210.536 757.029 210.824C757.093 211.101 757.136 211.341 757.157 211.544H757.221C757.253 211.416 757.291 211.256 757.333 211.064C757.376 210.872 757.419 210.669 757.461 210.456C757.515 210.243 757.568 210.029 757.621 209.816C757.685 209.603 757.744 209.411 757.797 209.24L759.317 204.408H760.853L762.325 209.24C762.4 209.485 762.475 209.747 762.549 210.024C762.635 210.301 762.709 210.573 762.773 210.84C762.837 211.096 762.88 211.325 762.901 211.528H762.965C762.987 211.347 763.024 211.123 763.077 210.856C763.141 210.579 763.211 210.28 763.285 209.96C763.371 209.629 763.456 209.304 763.541 208.984L764.741 204.408H766.181L763.797 212.984H762.149L760.677 208.152ZM770.759 213.16C769.693 213.16 768.839 212.792 768.199 212.056C767.559 211.309 767.239 210.2 767.239 208.728C767.239 207.256 767.559 206.147 768.199 205.4C768.85 204.643 769.709 204.264 770.775 204.264C771.223 204.264 771.613 204.323 771.943 204.44C772.274 204.547 772.562 204.696 772.807 204.888C773.053 205.08 773.261 205.293 773.431 205.528H773.527C773.517 205.389 773.495 205.187 773.463 204.92C773.442 204.643 773.431 204.424 773.431 204.264V200.84H774.839V213H773.703L773.495 211.848H773.431C773.261 212.093 773.053 212.317 772.807 212.52C772.562 212.712 772.269 212.867 771.927 212.984C771.597 213.101 771.207 213.16 770.759 213.16ZM770.983 211.992C771.89 211.992 772.525 211.747 772.887 211.256C773.261 210.755 773.447 210.003 773.447 209V208.744C773.447 207.677 773.271 206.861 772.919 206.296C772.567 205.72 771.917 205.432 770.967 205.432C770.21 205.432 769.639 205.736 769.255 206.344C768.882 206.941 768.695 207.747 768.695 208.76C768.695 209.784 768.882 210.579 769.255 211.144C769.639 211.709 770.215 211.992 770.983 211.992ZM778.971 204.424V213H777.563V204.424H778.971ZM778.283 201.208C778.496 201.208 778.683 201.283 778.843 201.432C779.014 201.571 779.099 201.795 779.099 202.104C779.099 202.403 779.014 202.627 778.843 202.776C778.683 202.925 778.496 203 778.283 203C778.048 203 777.851 202.925 777.691 202.776C777.531 202.627 777.451 202.403 777.451 202.104C777.451 201.795 777.531 201.571 777.691 201.432C777.851 201.283 778.048 201.208 778.283 201.208ZM785.816 204.264C786.84 204.264 787.613 204.515 788.136 205.016C788.659 205.507 788.92 206.307 788.92 207.416V213H787.528V207.512C787.528 206.819 787.373 206.301 787.064 205.96C786.755 205.619 786.269 205.448 785.608 205.448C784.659 205.448 784.003 205.715 783.64 206.248C783.277 206.781 783.096 207.549 783.096 208.552V213H781.688V204.424H782.824L783.032 205.592H783.112C783.304 205.293 783.539 205.048 783.816 204.856C784.104 204.653 784.419 204.504 784.76 204.408C785.101 204.312 785.453 204.264 785.816 204.264ZM803.095 213L801.719 209.464H797.191L795.831 213H794.375L798.839 201.528H800.135L804.583 213H803.095ZM800.007 204.728C799.975 204.643 799.922 204.488 799.847 204.264C799.772 204.04 799.698 203.811 799.623 203.576C799.559 203.331 799.506 203.144 799.463 203.016C799.41 203.229 799.351 203.448 799.287 203.672C799.234 203.885 799.175 204.083 799.111 204.264C799.058 204.445 799.01 204.6 798.967 204.728L797.671 208.184H801.287L800.007 204.728ZM809.17 201.576C810.663 201.576 811.751 201.869 812.434 202.456C813.116 203.043 813.458 203.869 813.458 204.936C813.458 205.405 813.378 205.859 813.218 206.296C813.068 206.723 812.818 207.107 812.466 207.448C812.114 207.789 811.644 208.061 811.058 208.264C810.471 208.456 809.751 208.552 808.898 208.552H807.586V213H806.146V201.576H809.17ZM809.042 202.808H807.586V207.32H808.738C809.463 207.32 810.066 207.245 810.546 207.096C811.026 206.936 811.383 206.685 811.618 206.344C811.852 206.003 811.97 205.555 811.97 205C811.97 204.264 811.735 203.715 811.266 203.352C810.796 202.989 810.055 202.808 809.042 202.808ZM818.857 201.576C820.351 201.576 821.439 201.869 822.121 202.456C822.804 203.043 823.145 203.869 823.145 204.936C823.145 205.405 823.065 205.859 822.905 206.296C822.756 206.723 822.505 207.107 822.153 207.448C821.801 207.789 821.332 208.061 820.745 208.264C820.159 208.456 819.439 208.552 818.585 208.552H817.273V213H815.833V201.576H818.857ZM818.729 202.808H817.273V207.32H818.425C819.151 207.32 819.753 207.245 820.233 207.096C820.713 206.936 821.071 206.685 821.305 206.344C821.54 206.003 821.657 205.555 821.657 205C821.657 204.264 821.423 203.715 820.953 203.352C820.484 202.989 819.743 202.808 818.729 202.808Z" fill="#263238"/>
<rect opacity="0.2" width="90.278" height="62.3348" rx="1.61211" transform="matrix(0.83205 -0.5547 0.830139 0.557556 712 159.077)" fill="#CFD8DC"/>
<rect opacity="0.5" width="90.278" height="62.3348" rx="1.61211" transform="matrix(0.83205 -0.5547 0.830139 0.557556 712 153.077)" fill="#CFD8DC"/>
<rect x="0.893209" y="0.00153473" width="89.2032" height="61.2601" rx="1.07474" transform="matrix(0.83205 -0.5547 0.830139 0.557556 712.149 147.573)" fill="white" stroke="#CFD8DC" stroke-width="1.07474"/>
<line y1="-0.537369" x2="89.7406" y2="-0.537369" transform="matrix(0.83205 -0.5547 0.830139 0.557556 719.584 151.573)" stroke="#CFD8DC" stroke-width="1.07474"/>
<circle cx="1.07474" cy="1.07474" r="1.07474" transform="matrix(0.83205 -0.5547 0.830139 0.557556 717.358 147.086)" fill="#CFD8DC"/>
<circle cx="1.07474" cy="1.07474" r="1.07474" transform="matrix(0.83205 -0.5547 0.830139 0.557556 720.488 145)" fill="#CFD8DC"/>
<circle cx="1.07474" cy="1.07474" r="1.07474" transform="matrix(0.83205 -0.5547 0.830139 0.557556 723.618 142.913)" fill="#CFD8DC"/>
<line y1="-0.268685" x2="53.1995" y2="-0.268685" transform="matrix(0.830139 0.557556 -0.83205 0.5547 736.576 139.648)" stroke="black" stroke-width="0.537369"/>
<line y1="-0.537369" x2="53.1995" y2="-0.537369" transform="matrix(0.830139 0.557556 -0.83205 0.5547 736.576 139.648)" stroke="#CFD8DC" stroke-width="1.07474"/>
<rect width="9.13527" height="9.13527" rx="1.61211" transform="matrix(0.83205 -0.5547 0.830139 0.557556 744.169 138.765)" fill="#CFD8DC"/>
<rect width="9.13527" height="9.13527" rx="1.61211" transform="matrix(0.83205 -0.5547 0.830139 0.557556 754.452 131.909)" fill="#CFD8DC"/>
<rect width="9.13527" height="9.13527" rx="1.61211" transform="matrix(0.83205 -0.5547 0.830139 0.557556 764.736 125.053)" fill="#CFD8DC"/>
<rect width="9.13527" height="9.13527" rx="1.61211" transform="matrix(0.83205 -0.5547 0.830139 0.557556 785.304 111.342)" fill="#CFD8DC"/>
<rect width="9.13527" height="9.13527" rx="1.61211" transform="matrix(0.83205 -0.5547 0.830139 0.557556 754.43 145.656)" fill="#CFD8DC"/>
<rect width="9.13527" height="9.13527" rx="1.61211" transform="matrix(0.83205 -0.5547 0.830139 0.557556 785.281 125.088)" fill="#CFD8DC"/>
<rect width="9.13527" height="9.13527" rx="1.61211" transform="matrix(0.83205 -0.5547 0.830139 0.557556 795.564 118.232)" fill="#CFD8DC"/>
<rect width="9.13527" height="9.13527" rx="1.61211" transform="matrix(0.83205 -0.5547 0.830139 0.557556 774.974 145.691)" fill="#CFD8DC"/>
<rect width="9.13527" height="9.13527" rx="1.61211" transform="matrix(0.83205 -0.5547 0.830139 0.557556 785.257 138.835)" fill="#CFD8DC"/>
<rect width="9.13527" height="9.13527" rx="1.61211" transform="matrix(0.83205 -0.5547 0.830139 0.557556 795.541 131.979)" fill="#CFD8DC"/>
<rect width="9.13527" height="9.13527" rx="1.61211" transform="matrix(0.83205 -0.5547 0.830139 0.557556 774.95 159.438)" fill="#CFD8DC"/>
<rect width="9.13527" height="9.13527" rx="1.61211" transform="matrix(0.83205 -0.5547 0.830139 0.557556 785.233 152.582)" fill="#CFD8DC"/>
<rect width="9.13527" height="9.13527" rx="1.61211" transform="matrix(0.83205 -0.5547 0.830139 0.557556 805.801 138.871)" fill="#CFD8DC"/>
<rect width="9.13527" height="9.13527" rx="1.61211" transform="matrix(0.83205 -0.5547 0.830139 0.557556 816.085 132.015)" fill="#CFD8DC"/>
<rect x="18" y="111" width="94" height="69" rx="12" fill="white"/>
<path d="M28.9189 162.48C28.9189 163.992 29.3741 165.204 30.2843 166.117C31.1946 167.03 32.4253 167.487 33.9771 167.487C35.5288 167.487 36.5732 167.101 37.3494 166.33C38.1249 165.552 38.513 164.652 38.513 163.628V163.536H36.268V163.619C36.268 164.032 36.0906 164.386 35.7363 164.683C35.382 164.979 34.7897 165.127 33.9586 165.127C33.024 165.127 32.3398 164.896 31.9057 164.433C31.4716 163.97 31.2552 163.353 31.2552 162.582V162.083C31.2552 161.312 31.4755 160.695 31.9153 160.232C32.3551 159.769 33.0362 159.538 33.9586 159.538C34.7648 159.538 35.3514 159.68 35.7178 159.963C36.0906 160.247 36.277 160.605 36.277 161.037V161.129H38.522L38.513 161.009C38.4767 159.979 38.079 159.084 37.3219 158.326C36.5642 157.56 35.4497 157.178 33.9771 157.178C32.4253 157.178 31.1946 157.635 30.2843 158.548C29.3741 159.455 28.9189 160.667 28.9189 162.185V162.48Z" fill="#263238"/>
<path d="M40.401 167.209H42.692V162.403C42.692 161.351 43.1931 160.806 43.608 160.51C44.0235 160.208 44.4972 160.057 45.0283 160.057C45.193 160.057 45.343 160.066 45.477 160.085C45.6175 160.103 45.749 160.125 45.8709 160.149V157.318C45.8096 157.293 45.703 157.265 45.5504 157.234C45.4036 157.203 45.26 157.188 45.1196 157.188C44.5757 157.188 44.0899 157.336 43.6623 157.632C43.2773 157.899 42.9665 158.213 42.7297 158.575C42.7054 158.612 42.6473 158.597 42.6448 158.552L42.4443 157.456H40.4004V167.209H40.401Z" fill="#263238"/>
<path d="M46.8066 162.48C46.8066 163.992 47.2803 165.204 48.2269 166.117C49.1736 167.03 50.4202 167.487 51.9656 167.487C53.511 167.487 54.7481 167.03 55.6954 166.117C56.6484 165.204 57.1246 163.992 57.1246 162.48V162.185C57.1246 160.667 56.6478 159.455 55.6954 158.548C54.7487 157.635 53.5053 157.178 51.9656 157.178C50.426 157.178 49.1736 157.635 48.2269 158.548C47.2803 159.455 46.8066 160.667 46.8066 162.185V162.48ZM49.1436 162.083C49.1436 161.238 49.388 160.621 49.8764 160.232C50.3653 159.843 51.0617 159.649 51.9656 159.649C52.8695 159.649 53.557 159.843 54.0459 160.232C54.5406 160.621 54.7883 161.238 54.7883 162.083V162.582C54.7883 163.458 54.5438 164.084 54.0555 164.461C53.5729 164.831 52.8765 165.015 51.9663 165.015C51.056 165.015 50.3564 164.831 49.8681 164.461C49.3855 164.084 49.1442 163.458 49.1442 162.582V162.083H49.1436Z" fill="#263238"/>
<path d="M58.165 157.456L61.0426 167.209H63.6489L65.6922 160.127C65.7139 160.051 65.8205 160.05 65.8441 160.126L68.0477 167.21H70.652L73.5475 157.457H70.714L69.2847 162.889C69.2235 163.136 69.1654 163.379 69.1105 163.62C69.0792 163.771 69.0269 164.012 68.9943 164.164C68.9873 164.197 68.9394 164.198 68.9317 164.164C68.8915 163.99 68.8468 163.808 68.799 163.619C68.7377 163.372 68.6707 163.129 68.5973 162.888L67.0027 157.456H64.2905C64.2905 157.456 62.6889 162.997 62.394 164.101C62.3812 164.149 62.3142 164.148 62.3021 164.101L60.6437 157.456H58.1657L58.165 157.456Z" fill="#263238"/>
<path d="M74.2969 162.481C74.2969 163.924 74.685 165.105 75.4605 166.024C76.2425 166.937 77.327 167.394 78.7141 167.394C79.4348 167.394 80.0578 167.261 80.5831 166.996C80.9483 166.81 81.4168 166.391 81.6747 166.146C81.7794 166.595 81.9211 167.209 81.9211 167.209H84.1916V153.024H81.8017V158.631C81.4966 158.199 81.0932 157.866 80.5921 157.632C80.0916 157.392 79.4833 157.271 78.769 157.271C77.4247 157.271 76.3434 157.731 75.525 158.65C74.706 159.563 74.2969 160.741 74.2969 162.185V162.481ZM76.6338 162.573L76.6249 162.092C76.6249 161.389 76.8387 160.821 77.2657 160.39C77.6934 159.952 78.3567 159.733 79.2548 159.733C79.8835 159.733 80.4185 159.881 80.8583 160.177C80.8627 160.18 80.8672 160.183 80.8717 160.186C81.4596 160.586 81.8017 161.265 81.8017 161.981V162.651C81.8017 163.387 81.4398 164.082 80.8264 164.48C80.8219 164.483 80.8168 164.486 80.8123 164.489C80.3419 164.785 79.798 164.933 79.1814 164.933C78.2769 164.933 77.6264 164.714 77.2294 164.276C76.8323 163.839 76.6338 163.271 76.6338 162.574V162.573Z" fill="#263238"/>
<path d="M86.9051 167.209H89.1871V157.456H86.9051V167.209ZM86.4199 154.792C86.4199 155.211 86.5604 155.557 86.8412 155.828C87.1285 156.094 87.5312 156.226 88.0508 156.226C88.5705 156.226 88.9611 156.09 89.242 155.818C89.5292 155.547 89.6728 155.205 89.6728 154.792C89.6728 154.378 89.5324 154.045 89.2509 153.774C88.97 153.502 88.5673 153.366 88.0413 153.366C87.5153 153.366 87.1285 153.502 86.8412 153.774C86.5604 154.045 86.4199 154.384 86.4199 154.792Z" fill="#263238"/>
<path d="M91.9551 167.209H94.2371V163.253C94.2371 161.013 95.021 159.594 96.7291 159.594C98.4373 159.594 98.8005 160.596 98.8005 162.005V167.209H101.082V161.426C101.082 159.767 100.746 158.659 100.074 158.104C99.4018 157.542 98.5439 157.262 97.499 157.262C96.8089 157.262 96.1706 157.392 95.584 157.651C95.0561 157.881 94.6265 158.208 94.2958 158.632C94.2684 158.481 94.1177 157.457 94.1177 157.457H91.9551V167.21V167.209Z" fill="#263238"/>
<path d="M70.8726 121H59.0326C56.5894 121 54.5503 121.816 53.1313 123.249C51.7124 124.682 50.9043 126.741 50.9043 129.208V141.163C50.9043 143.687 51.7124 145.756 53.1407 147.208C54.5691 148.659 56.627 149.466 59.1265 149.466H70.8726C73.3721 149.466 75.4206 148.65 76.8583 147.208C78.296 145.765 79.0948 143.687 79.0948 141.163V129.303C79.0948 126.779 78.2866 124.71 76.8583 123.258C75.43 121.807 73.3721 121 70.8726 121Z" fill="#263238"/>
<path d="M68.345 138.45C68.3356 138.345 68.2511 137.947 67.9786 137.937C67.706 137.937 67.1328 137.937 67.1328 137.937C67.1328 137.937 66.7852 137.937 66.7852 138.279C66.7946 138.943 67.1704 139.512 67.6309 139.892C68.0161 140.215 68.486 140.385 69.0216 140.385C69.4914 140.376 69.5478 140.034 69.3223 139.93C68.9464 139.75 68.4578 139.351 68.3544 138.45H68.345Z" fill="white"/>
<path d="M70.8723 129.302C68.5043 129.302 66.1363 129.881 64.5952 130.821C63.7683 131.324 63.1293 131.931 62.6876 132.633C62.3306 133.202 62.0956 133.819 62.0111 134.483C61.9829 134.702 61.9641 135.385 62.6783 135.565C63.1199 135.679 63.8153 135.726 64.2757 135.783C65.0275 135.869 65.2342 135.024 65.3 134.882C65.892 133.231 66.7753 132.121 68.0344 131.39C69.3124 130.65 71.032 130.308 73.447 130.308C73.7665 130.308 74.5089 130.346 74.5089 129.976C74.5089 129.312 71.3139 129.312 70.8723 129.312V129.302Z" fill="white"/>
<path d="M67.5743 141.837C66.7192 141.638 65.2815 140.698 64.9526 138.317C64.8868 137.871 64.6425 137.653 64.2667 137.577C63.7686 137.472 62.8947 137.425 62.6128 137.396C62.2087 137.358 61.9081 137.596 61.955 138.307C62.0396 139.389 62.4719 140.234 63.1954 141.069C64.0505 142.055 65.1781 142.625 66.3809 142.596C67.7059 142.568 67.7999 142.331 67.8093 142.15C67.8093 141.97 67.7247 141.866 67.5743 141.828V141.837Z" fill="white"/>
<path d="M63.9752 143.83C62.6503 143.83 59.8688 141.685 59.8688 138.326C59.8688 137.738 59.5117 137.14 58.7788 136.922C58.1868 136.742 57.3411 136.476 56.8055 136.447C55.5181 136.362 55.5839 137.444 55.6215 138.013C55.7436 140.395 56.7867 142.406 58.5063 143.545C59.2204 144.019 60.0662 144.342 61.0622 144.532C61.2971 144.579 62.1335 144.75 62.9792 144.721C64.2853 144.665 64.4169 144.285 64.4169 144.133C64.4169 143.934 64.2759 143.839 63.9752 143.839V143.83Z" fill="white"/>
<path d="M74.8377 126.978C71.6804 126.057 68.2787 125.792 65.0368 126.133C61.5882 126.503 57.322 127.889 55.9783 132.035C55.8373 132.462 55.5836 134.028 57.0683 134.407C57.5476 134.531 58.0362 134.749 58.5436 134.844C59.9907 135.11 60.3008 133.724 60.3854 133.449C60.47 133.183 60.564 132.927 60.6767 132.661C61.1372 131.665 61.8231 130.821 62.6031 130.166C64.2193 128.8 66.2302 128.154 68.1848 127.841C69.3218 127.661 70.4588 127.585 71.5958 127.614C75.0445 127.689 75.4203 127.955 75.5519 127.576C75.6834 127.196 75.0633 127.035 74.8377 126.978Z" fill="white"/>
<path d="M71.8963 132.415C68.0812 132.415 67.0852 134.35 66.8033 135.641C66.6717 136.267 67.0476 136.315 67.3953 136.381C67.8839 136.466 68.2786 136.391 68.4571 135.916C68.9927 134.445 69.7257 133.003 72.0467 133.003C72.2816 133.003 72.4883 132.851 72.4883 132.709C72.4883 132.567 72.338 132.415 71.9057 132.415H71.8963Z" fill="white"/>
</svg>
