<?xml version="1.0" encoding="UTF-8"?>
<svg xmlns="http://www.w3.org/2000/svg" xmlns:xlink="http://www.w3.org/1999/xlink" width="16px" height="16px" viewBox="0 0 16 16" version="1.1">
<g id="surface1">
<path style=" stroke:none;fill-rule:nonzero;fill:rgb(0%,0%,0%);fill-opacity:1;" d="M 8.96875 10.398438 C 8.921875 10.347656 8.839844 10.347656 8.792969 10.398438 L 6.976562 12.210938 C 6.136719 13.054688 4.71875 13.140625 3.789062 12.210938 C 2.859375 11.28125 2.949219 9.867188 3.789062 9.023438 L 5.605469 7.210938 C 5.652344 7.160156 5.652344 7.082031 5.605469 7.03125 L 4.984375 6.410156 C 4.933594 6.363281 4.855469 6.363281 4.804688 6.410156 L 2.992188 8.226562 C 1.667969 9.546875 1.667969 11.6875 2.992188 13.007812 C 4.3125 14.328125 6.453125 14.328125 7.773438 13.007812 L 9.585938 11.191406 C 9.636719 11.144531 9.636719 11.0625 9.585938 11.015625 Z M 13.007812 2.992188 C 11.6875 1.667969 9.546875 1.667969 8.226562 2.992188 L 6.410156 4.804688 C 6.363281 4.855469 6.363281 4.933594 6.410156 4.984375 L 7.03125 5.601562 C 7.078125 5.652344 7.160156 5.652344 7.207031 5.601562 L 9.023438 3.789062 C 9.863281 2.945312 11.28125 2.859375 12.210938 3.789062 C 13.140625 4.71875 13.050781 6.132812 12.210938 6.976562 L 10.394531 8.789062 C 10.347656 8.839844 10.347656 8.917969 10.394531 8.96875 L 11.015625 9.589844 C 11.066406 9.636719 11.144531 9.636719 11.195312 9.589844 L 13.007812 7.773438 C 14.328125 6.453125 14.328125 4.3125 13.007812 2.992188 Z M 13.007812 2.992188 "/>
<path style=" stroke:none;fill-rule:nonzero;fill:rgb(0%,0%,0%);fill-opacity:1;" d="M 9.53125 5.816406 C 9.484375 5.769531 9.40625 5.769531 9.355469 5.816406 L 5.816406 9.355469 C 5.769531 9.402344 5.769531 9.484375 5.816406 9.53125 L 6.4375 10.148438 C 6.484375 10.199219 6.5625 10.199219 6.613281 10.148438 L 10.148438 6.613281 C 10.199219 6.5625 10.199219 6.484375 10.148438 6.4375 Z M 9.53125 5.816406 "/>
</g>
</svg>
