<svg width="20" height="20" viewBox="0 0 20 20" fill="none" xmlns="http://www.w3.org/2000/svg">
<path fill-rule="evenodd" clip-rule="evenodd" d="M18.646 16.6C18.472 17.044 18.07 17.668 17.494 18.112C17.164 18.364 16.768 18.61 16.228 18.772C15.652 18.946 14.938 19 14.05 19H5.95C5.062 19 4.354 18.94 3.772 18.772C3.232 18.61 2.836 18.37 2.506 18.112C1.936 17.674 1.528 17.044 1.354 16.6C1.006 15.706 1 14.692 1 14.05V5.95C1 5.308 1.006 4.294 1.354 3.4C1.528 2.956 1.93 2.332 2.506 1.888C2.836 1.636 3.232 1.39 3.772 1.228C4.354 1.06 5.062 1 5.95 1H14.05C14.938 1 15.646 1.06 16.228 1.228C16.768 1.39 17.164 1.63 17.494 1.888C18.064 2.326 18.472 2.956 18.646 3.4C19 4.294 19 5.314 19 5.95V14.05C19 14.692 18.994 15.706 18.646 16.6ZM9.982 2.992C6.538 3.004 3.718 5.8 3.67 9.244C3.634 12.034 5.416 14.422 7.906 15.298C7.966 15.322 8.026 15.268 8.02 15.208C8.01 15.136 7.99933 15.064 7.98867 14.992L7.98866 14.992C7.96733 14.848 7.946 14.704 7.93 14.56C7.918 14.482 7.87 14.422 7.804 14.386C5.836 13.528 4.462 11.554 4.486 9.268C4.516 6.268 6.964 3.826 9.958 3.802C13.024 3.778 15.526 6.262 15.526 9.322C15.526 11.584 14.158 13.528 12.208 14.386C12.136 14.416 12.088 14.482 12.082 14.56L11.992 15.208C11.98 15.274 12.046 15.322 12.106 15.298C14.572 14.434 16.342 12.082 16.342 9.322C16.33 5.83 13.48 2.986 9.982 2.992ZM9.99999 10.282C10.816 10.282 11.476 9.622 11.476 8.806C11.476 7.996 10.816 7.33 9.99999 7.33C9.18399 7.33 8.52399 7.99 8.52399 8.806C8.52399 9.622 9.18399 10.282 9.99999 10.282ZM11.302 11.35C11.446 11.494 11.518 11.65 11.542 11.866C11.59 12.286 11.566 12.646 11.512 13.228C11.464 13.78 11.374 14.512 11.26 15.262C11.176 15.796 11.11 16.084 11.05 16.288C10.954 16.618 10.582 16.912 10 16.912C9.418 16.912 9.052 16.624 8.95 16.288C8.89 16.084 8.824 15.796 8.74 15.262C8.626 14.518 8.536 13.78 8.488 13.228L8.48746 13.2215C8.43978 12.6433 8.41018 12.2844 8.458 11.866C8.482 11.65 8.56 11.5 8.698 11.35C8.968 11.062 9.442 10.882 10 10.882C10.558 10.882 11.032 11.068 11.302 11.35ZM5.764 9.274C5.794 7.03 7.594 5.176 9.838 5.092C12.25 4.996 14.248 6.934 14.242 9.322C14.242 10.774 13.504 12.064 12.388 12.826C12.328 12.868 12.25 12.82 12.256 12.754C12.268 12.496 12.274 12.268 12.262 12.034C12.262 11.956 12.292 11.884 12.346 11.83C13.012 11.2 13.432 10.312 13.432 9.328C13.432 7.396 11.824 5.824 9.868 5.902C8.068 5.974 6.622 7.438 6.574 9.238C6.55 10.258 6.97 11.182 7.66 11.83C7.72 11.884 7.75 11.956 7.744 12.034C7.732 12.274 7.732 12.502 7.75 12.76C7.75 12.826 7.672 12.868 7.618 12.832C6.484 12.058 5.746 10.75 5.764 9.274Z" fill="black"/>
</svg>
