<svg width="24" height="24" viewBox="0 0 24 24" fill="none" xmlns="http://www.w3.org/2000/svg">
<g clip-path="url(#clip0_14848_41548)">
<mask id="mask0_14848_41548" style="mask-type:alpha" maskUnits="userSpaceOnUse" x="6" y="6" width="12" height="12">
<path d="M15.158 6.31641H8.84223C7.44699 6.31641 6.31592 7.44748 6.31592 8.84272V15.1585C6.31592 16.5538 7.44699 17.6848 8.84223 17.6848H15.158C16.5533 17.6848 17.6843 16.5538 17.6843 15.1585V8.84272C17.6843 7.44748 16.5533 6.31641 15.158 6.31641Z" fill="white"/>
</mask>
<g mask="url(#mask0_14848_41548)">
<path d="M15.158 6.31641H8.84223C7.44699 6.31641 6.31592 7.44748 6.31592 8.84272V15.1585C6.31592 16.5538 7.44699 17.6848 8.84223 17.6848H15.158C16.5533 17.6848 17.6843 16.5538 17.6843 15.1585V8.84272C17.6843 7.44748 16.5533 6.31641 15.158 6.31641Z" fill="#DADADA"/>
</g>
</g>
<defs>
<clipPath id="clip0_14848_41548">
<rect width="24" height="24" fill="white"/>
</clipPath>
</defs>
</svg>
