<svg width="19" height="19" viewBox="0 0 19 19" fill="none" xmlns="http://www.w3.org/2000/svg">
<mask id="mask0_11174_77847" style="mask-type:alpha" maskUnits="userSpaceOnUse" x="4" y="4" width="11" height="11">
<rect x="4" y="4" width="11" height="11" fill="#D9D9D9"/>
</mask>
<g mask="url(#mask0_11174_77847)">
<path d="M11.0123 11.6516L11.654 11.0099L9.95817 9.31406V7.20573H9.0415V9.68073L11.0123 11.6516ZM9.49984 14.0807C8.86581 14.0807 8.26998 13.9604 7.71234 13.7198C7.1547 13.4792 6.66963 13.1526 6.25713 12.7401C5.84463 12.3276 5.51807 11.8425 5.27744 11.2849C5.03682 10.7273 4.9165 10.1314 4.9165 9.4974C4.9165 8.86337 5.03682 8.26753 5.27744 7.7099C5.51807 7.15226 5.84463 6.66719 6.25713 6.25469C6.66963 5.84219 7.1547 5.51562 7.71234 5.275C8.26998 5.03437 8.86581 4.91406 9.49984 4.91406C10.1339 4.91406 10.7297 5.03437 11.2873 5.275C11.845 5.51562 12.33 5.84219 12.7425 6.25469C13.155 6.66719 13.4816 7.15226 13.7222 7.7099C13.9629 8.26753 14.0832 8.86337 14.0832 9.4974C14.0832 10.1314 13.9629 10.7273 13.7222 11.2849C13.4816 11.8425 13.155 12.3276 12.7425 12.7401C12.33 13.1526 11.845 13.4792 11.2873 13.7198C10.7297 13.9604 10.1339 14.0807 9.49984 14.0807ZM9.49984 13.1641C10.5158 13.1641 11.3809 12.8069 12.0951 12.0927C12.8094 11.3785 13.1665 10.5134 13.1665 9.4974C13.1665 8.48142 12.8094 7.61632 12.0951 6.90208C11.3809 6.18785 10.5158 5.83073 9.49984 5.83073C8.48386 5.83073 7.61876 6.18785 6.90452 6.90208C6.19029 7.61632 5.83317 8.48142 5.83317 9.4974C5.83317 10.5134 6.19029 11.3785 6.90452 12.0927C7.61876 12.8069 8.48386 13.1641 9.49984 13.1641Z" fill="#CFD8DC"/>
</g>
</svg>
