<svg width="20" height="20" viewBox="0 0 20 20" fill="none" xmlns="http://www.w3.org/2000/svg">
<path d="M15.3238 8.97868C12.4227 7.25578 7.63744 7.0974 4.86799 7.93793C4.42314 8.07286 3.9529 7.82186 3.81821 7.37709C3.68344 6.93208 3.9342 6.46208 4.37921 6.32691C7.55845 5.36193 12.8432 5.54828 16.183 7.5308C16.5831 7.76834 16.7142 8.28492 16.4771 8.68423C16.2398 9.08427 15.7228 9.21621 15.3237 8.97868M15.2287 11.5304C15.0252 11.8607 14.5933 11.9643 14.2635 11.7615C11.845 10.2749 8.15685 9.84411 5.29543 10.7127C4.92441 10.8247 4.53244 10.6156 4.41975 10.2452C4.36604 10.0671 4.38513 9.875 4.47284 9.71097C4.56055 9.54694 4.70972 9.42438 4.88766 9.37017C8.15636 8.37818 12.22 8.85858 14.9979 10.5658C15.3277 10.7689 15.4315 11.2009 15.2287 11.5304ZM14.1275 13.9811C14.0891 14.044 14.0388 14.0988 13.9792 14.1423C13.9197 14.1858 13.8522 14.2171 13.7805 14.2344C13.7089 14.2517 13.6345 14.2548 13.5617 14.2433C13.4889 14.2319 13.419 14.2062 13.3562 14.1678C11.2427 12.8761 8.58259 12.5844 5.44978 13.3C5.378 13.3164 5.30369 13.3185 5.23109 13.3062C5.15849 13.2939 5.08903 13.2674 5.02667 13.2282C4.96431 13.1891 4.91028 13.138 4.86766 13.078C4.82504 13.0179 4.79467 12.9501 4.77828 12.8783C4.76177 12.8065 4.7596 12.7321 4.77187 12.6594C4.78415 12.5868 4.81063 12.5173 4.84981 12.4549C4.889 12.3925 4.9401 12.3384 5.0002 12.2958C5.06031 12.2532 5.12823 12.2228 5.20008 12.2065C8.62837 11.4229 11.5691 11.7601 13.9413 13.2097C14.0042 13.2481 14.0589 13.2985 14.1023 13.3581C14.1457 13.4177 14.1769 13.4852 14.1942 13.5568C14.2115 13.6284 14.2145 13.7028 14.2031 13.7756C14.1916 13.8484 14.166 13.9182 14.1275 13.9811M9.99984 1C5.02952 1 1 5.02936 1 9.99984C1 14.9708 5.02952 19 9.99992 19C14.9706 19 19 14.9708 19 9.99984C19 5.02944 14.9706 1 9.99992 1" fill="black"/>
</svg>
