<svg width="180" height="118" viewBox="0 0 180 118" fill="none" xmlns="http://www.w3.org/2000/svg">
<path d="M2.23511 99.8912C2.23511 103.531 3.34218 106.449 5.55632 108.649C7.77046 110.847 10.7641 111.947 14.5387 111.947C18.3133 111.947 20.8535 111.019 22.7415 109.161C24.6281 107.289 25.5721 105.121 25.5721 102.654V102.432H20.1113V102.632C20.1113 103.627 19.6796 104.481 18.8179 105.195C17.9561 105.908 16.5152 106.265 14.4936 106.265C12.2205 106.265 10.556 105.707 9.50016 104.593C8.44433 103.478 7.91797 101.993 7.91797 100.136V98.9335C7.91797 97.0771 8.45365 95.5916 9.52345 94.4771C10.5933 93.3626 12.25 92.8054 14.4936 92.8054C16.4547 92.8054 17.8816 93.1468 18.7729 93.8298C19.6796 94.5128 20.133 95.3743 20.133 96.4143V96.6378H25.5938L25.5721 96.3475C25.4836 93.8671 24.5163 91.7126 22.6748 89.8856C20.8317 88.0431 18.1207 87.1227 14.5387 87.1227C10.7641 87.1227 7.77046 88.2217 5.55632 90.4211C3.34218 92.6051 2.23511 95.5233 2.23511 99.1788V99.8912Z" fill="white"/>
<path d="M30.1639 111.279H35.7365V99.7052C35.7365 97.1705 36.9554 95.8588 37.9646 95.1464C38.9754 94.4184 40.1275 94.0552 41.4194 94.0552C41.82 94.0552 42.1849 94.0769 42.5109 94.1219C42.8525 94.1669 43.1724 94.2181 43.4689 94.2771V87.4582C43.3199 87.3993 43.0606 87.3325 42.6895 87.258C42.3324 87.1835 41.983 87.1462 41.6414 87.1462C40.3185 87.1462 39.1369 87.5033 38.0966 88.2157C37.1603 88.8583 36.4042 89.6143 35.8281 90.4866C35.7691 90.5766 35.6278 90.5394 35.6216 90.4307L35.1341 87.792H30.1624V111.279H30.1639Z" fill="white"/>
<path d="M45.7446 99.8912C45.7446 103.531 46.8967 106.449 49.1994 108.649C51.502 110.847 54.5344 111.947 58.2935 111.947C62.0526 111.947 65.0617 110.848 67.3659 108.649C69.6841 106.451 70.8424 103.531 70.8424 99.8912V99.1788C70.8424 95.5248 69.6825 92.6051 67.3659 90.4211C65.0632 88.2232 62.0386 87.1227 58.2935 87.1227C54.5484 87.1227 51.502 88.2217 49.1994 90.4211C46.8967 92.6051 45.7446 95.5233 45.7446 99.1788V99.8912ZM51.429 98.9335C51.429 96.8986 52.0237 95.4131 53.2115 94.4771C54.4009 93.5411 56.0949 93.0739 58.2935 93.0739C60.4921 93.0739 62.1644 93.5411 63.3537 94.4771C64.5571 95.4131 65.1595 96.8986 65.1595 98.9335V100.136C65.1595 102.246 64.5648 103.753 63.377 104.66C62.2032 105.551 60.5092 105.996 58.2951 105.996C56.0809 105.996 54.3792 105.551 53.1914 104.66C52.0175 103.753 51.4306 102.246 51.4306 100.136V98.9335H51.429Z" fill="white"/>
<path d="M73.3748 87.7915L80.3743 111.278H86.714L91.6841 94.2239C91.7369 94.0407 91.9962 94.0376 92.0537 94.2208L97.4136 111.281H103.749L110.792 87.7946H103.899L100.423 100.875C100.274 101.47 100.132 102.056 99.9988 102.635C99.9227 103 99.7954 103.579 99.7162 103.945C99.6991 104.026 99.5827 104.028 99.564 103.945C99.4662 103.526 99.3575 103.089 99.2411 102.634C99.092 102.039 98.929 101.453 98.7504 100.874L94.8718 87.7931H88.2744C88.2744 87.7931 84.3787 101.136 83.6614 103.795C83.6303 103.91 83.4673 103.908 83.4378 103.793L79.4039 87.7931H73.3763L73.3748 87.7915Z" fill="white"/>
<path d="M112.613 99.892C112.613 103.367 113.557 106.213 115.444 108.426C117.346 110.624 119.984 111.725 123.358 111.725C125.111 111.725 126.626 111.405 127.904 110.767C128.792 110.318 129.932 109.308 130.559 108.719C130.814 109.8 131.159 111.279 131.159 111.279H136.682V77.1194H130.868V90.6221C130.126 89.5821 129.145 88.7797 127.926 88.2162C126.709 87.6372 125.229 87.347 123.491 87.347C120.221 87.347 117.591 88.4537 115.601 90.6671C113.609 92.8651 112.613 95.7025 112.613 99.1795V99.892ZM118.298 100.114L118.276 98.956C118.276 97.2625 118.796 95.895 119.835 94.8566C120.875 93.8026 122.488 93.2749 124.673 93.2749C126.202 93.2749 127.504 93.6319 128.573 94.3444C128.584 94.3521 128.595 94.3583 128.606 94.3661C130.036 95.33 130.868 96.9645 130.868 98.689V100.303C130.868 102.076 129.988 103.749 128.496 104.707C128.485 104.715 128.472 104.721 128.462 104.729C127.317 105.441 125.994 105.798 124.494 105.798C122.294 105.798 120.712 105.27 119.746 104.216C118.781 103.163 118.298 101.795 118.298 100.117V100.114Z" fill="white"/>
<path d="M143.283 111.279H148.834V87.7924H143.283V111.279ZM142.103 81.3756C142.103 82.3861 142.445 83.218 143.128 83.8715C143.827 84.511 144.806 84.8292 146.07 84.8292C147.334 84.8292 148.284 84.5017 148.967 83.8482C149.666 83.1948 150.016 82.3705 150.016 81.3756C150.016 80.3806 149.674 79.5781 148.989 78.9246C148.306 78.2711 147.326 77.9436 146.047 77.9436C144.767 77.9436 143.827 78.2711 143.128 78.9246C142.445 79.5781 142.103 80.3946 142.103 81.3756Z" fill="white"/>
<path d="M155.565 111.279H161.116V101.751C161.116 96.3573 163.023 92.9409 167.178 92.9409C171.333 92.9409 172.216 95.3546 172.216 98.7477V111.279H177.765V97.3523C177.765 93.3569 176.949 90.6902 175.314 89.3521C173.679 88.0002 171.592 87.325 169.05 87.325C167.372 87.325 165.819 87.6369 164.392 88.2609C163.108 88.8151 162.063 89.6021 161.259 90.6234C161.192 90.2617 160.825 87.7937 160.825 87.7937H155.565V111.28V111.279Z" fill="white"/>
<path d="M103.076 68.5504H76.9241C63.3565 68.5504 55.7144 60.7665 55.7144 47.3472V21.2033C55.7144 7.78393 63.3565 0 76.9241 0H103.076C116.929 0 124.286 7.49896 124.286 21.2033V47.3472C124.286 61.0515 116.929 68.5504 103.076 68.5504Z" fill="white"/>
<path d="M99.7678 46.7034C98.4848 46.7034 97.3415 46.3053 96.3952 45.5255C95.2647 44.6076 94.366 43.2389 94.3342 41.6301C94.3183 40.8175 95.1726 40.8175 95.1726 40.8175C95.1726 40.8175 96.5603 40.801 97.2336 40.801C97.9068 40.8175 98.1037 41.788 98.1355 42.0315C98.3959 44.2128 99.5867 45.1636 100.501 45.5979C101.051 45.8578 100.914 46.6705 99.7678 46.7067V46.7034Z" fill="#263238"/>
<path d="M88.2469 35.6193C87.1164 35.4811 85.4396 35.3627 84.3568 35.0863C82.6006 34.6389 82.6482 33.0037 82.7245 32.4707C82.9372 30.8718 83.5025 29.3912 84.3726 28.016C85.4555 26.3315 87.0116 24.851 89.0123 23.6468C92.7659 21.3931 98.0152 20.1364 103.782 20.1364C108.009 20.1364 112.42 20.7055 112.464 20.7055C112.861 20.7582 113.15 21.153 113.135 21.6004C113.119 22.0479 112.814 22.39 112.417 22.4262C111.775 22.4098 111.15 22.4098 110.556 22.4098C104.681 22.4098 100.499 23.2356 97.3865 25.0254C94.3188 26.7789 92.1816 29.4636 90.7335 33.438C90.581 33.7834 90.0761 35.8298 88.2469 35.6226V35.6193Z" fill="#263238"/>
<path d="M93.3728 52.0203C90.4576 52.0828 87.7106 50.7174 85.6306 48.3355C83.8681 46.3187 82.8074 44.2854 82.6105 41.6764C82.4898 39.9722 83.2171 39.3833 84.2047 39.4852C84.8875 39.5543 87.012 39.6596 88.2282 39.9195C89.1397 40.1104 89.7462 40.6335 89.8986 41.7093C90.7021 47.4471 94.1953 49.7041 96.2754 50.191C96.6406 50.2766 96.866 50.52 96.8533 50.9576C96.8375 51.3755 96.6056 51.9479 93.376 52.017L93.3728 52.0203Z" fill="#263238"/>
<path d="M85.068 57.1132C83.0006 57.2021 80.9777 56.7711 80.3997 56.6658C77.9672 56.2183 75.9284 55.4452 74.1818 54.297C69.9995 51.5531 67.4748 46.7068 67.1731 40.969C67.0969 39.6069 66.9286 37.0045 70.063 37.2019C71.3555 37.2743 73.4069 37.9191 74.8519 38.3501C76.6461 38.87 77.5131 40.3044 77.5131 41.7224C77.5131 49.8126 84.5853 55.159 87.672 55.159C88.4087 55.159 88.5834 55.613 88.4945 56.0473C88.4246 56.3927 88.2373 56.9783 85.0711 57.1165L85.068 57.1132Z" fill="#263238"/>
<path d="M74.2804 33.3391C73.0578 33.1121 71.8638 32.589 70.7015 32.2896C67.1066 31.3651 67.7195 27.6079 68.0562 26.5781C71.3271 16.6027 81.7115 13.2666 90.092 12.375C97.9835 11.536 106.24 12.1842 113.932 14.4017C114.481 14.553 115.996 14.9314 115.669 15.8526C115.342 16.7738 114.43 16.1322 106.04 15.9414C103.274 15.8789 100.511 16.0599 97.739 16.5007C92.9819 17.2508 88.0914 18.807 84.1599 22.0905C82.264 23.6796 80.5968 25.7063 79.4822 28.1014C79.19 28.7298 78.9614 29.3582 78.7645 29.9866C78.5644 30.6512 77.815 33.9873 74.2836 33.3424L74.2804 33.3391Z" fill="#263238"/>
<path d="M94.398 35.264C95.0713 32.1417 98.0627 27.1935 107.323 27.5356C109.447 27.6047 108.476 29.105 107.428 29.0721C102.191 28.8846 99.7077 32.3819 98.4057 35.9285C97.9865 37.0702 97.0306 37.2413 95.8334 37.0373C94.995 36.8827 94.0836 36.7807 94.398 35.264Z" fill="#263238"/>
</svg>
