<svg width="381" height="227" viewBox="0 0 381 227" fill="none" xmlns="http://www.w3.org/2000/svg">
<path d="M210.333 20.3333L195.833 5.83325H176.5C175.218 5.83325 173.989 6.34247 173.082 7.24891C172.176 8.15533 171.667 9.38471 171.667 10.6666V49.3332C171.667 50.615 172.176 51.8444 173.082 52.7509C173.989 53.6574 175.218 54.1666 176.5 54.1666H205.5C206.782 54.1666 208.011 53.6574 208.917 52.7509C209.824 51.8444 210.333 50.615 210.333 49.3332V20.3333ZM206.926 20.3333H195.833V9.24075L206.926 20.3333ZM207.917 49.3332C207.917 49.9741 207.662 50.5889 207.209 51.0421C206.756 51.4952 206.141 51.7499 205.5 51.7499H176.5C175.859 51.7499 175.244 51.4952 174.791 51.0421C174.338 50.5889 174.083 49.9741 174.083 49.3332V10.6666C174.083 10.0256 174.338 9.41096 174.791 8.95774C175.244 8.50454 175.859 8.24992 176.5 8.24992H193.417V22.7499H207.917V49.3332Z" fill="#999999"/>
<path d="M182.735 32.1991C182.554 32.196 182.374 32.2284 182.206 32.2946C182.038 32.361 181.884 32.4599 181.754 32.5855C181.624 32.7112 181.52 32.8613 181.448 33.0271C181.375 33.1931 181.337 33.3717 181.333 33.5524V39.1591C181.378 39.5023 181.547 39.8174 181.807 40.0455C182.067 40.2739 182.401 40.3998 182.747 40.3998C183.093 40.3998 183.428 40.2739 183.688 40.0455C183.948 39.8174 184.116 39.5023 184.161 39.1591V33.5524C184.158 33.3695 184.118 33.189 184.045 33.0215C183.971 32.8538 183.865 32.7027 183.732 32.5766C183.599 32.4507 183.443 32.3523 183.272 32.2876C183.1 32.2228 182.918 32.1926 182.735 32.1991Z" fill="white"/>
<path d="M194.118 27.1484L195.085 25.4326C195.085 25.4326 195.085 25.2392 195.085 25.1909C195.049 25.1569 195.001 25.1379 194.952 25.1379C194.902 25.1379 194.855 25.1569 194.819 25.1909L193.828 26.9309C192.93 26.5718 191.966 26.407 191 26.4476C190.056 26.4437 189.12 26.6242 188.245 26.9792L187.255 25.1667C187.219 25.1327 187.171 25.1138 187.122 25.1138C187.072 25.1138 187.025 25.1327 186.989 25.1667C186.961 25.201 186.946 25.2436 186.946 25.2876C186.946 25.3315 186.961 25.3741 186.989 25.4084L187.98 27.1242C187.041 27.5452 186.239 28.2216 185.667 29.0762C185.094 29.9309 184.773 30.9293 184.741 31.9576H197.453C197.421 30.9293 197.1 29.9309 196.527 29.0762C195.955 28.2216 195.153 27.5452 194.215 27.1242L194.118 27.1484ZM188.197 29.7826C188.06 29.7828 187.928 29.7301 187.829 29.6354C187.73 29.5409 187.672 29.4118 187.665 29.2751C187.665 29.2064 187.679 29.1383 187.706 29.0752C187.733 29.0119 187.773 28.9548 187.823 28.9075C187.872 28.8599 187.931 28.8231 187.995 28.799C188.06 28.775 188.128 28.7642 188.197 28.7676C188.266 28.7642 188.334 28.775 188.399 28.799C188.463 28.8231 188.522 28.8599 188.572 28.9075C188.621 28.9548 188.661 29.0119 188.688 29.0752C188.715 29.1383 188.729 29.2064 188.729 29.2751C188.729 29.3437 188.715 29.4118 188.688 29.4749C188.661 29.5382 188.621 29.5953 188.572 29.6426C188.522 29.6902 188.463 29.727 188.399 29.7511C188.334 29.7751 188.266 29.7857 188.197 29.7826ZM193.997 29.7826C193.928 29.7857 193.86 29.7751 193.795 29.7511C193.731 29.727 193.672 29.6902 193.623 29.6426C193.573 29.5953 193.533 29.5382 193.506 29.4749C193.479 29.4118 193.465 29.3437 193.465 29.2751C193.465 29.2064 193.479 29.1383 193.506 29.0752C193.533 29.0119 193.573 28.9548 193.623 28.9075C193.672 28.8599 193.731 28.8231 193.795 28.799C193.86 28.775 193.928 28.7642 193.997 28.7676C194.066 28.7642 194.134 28.775 194.199 28.799C194.263 28.8231 194.322 28.8599 194.372 28.9075C194.421 28.9548 194.461 29.0119 194.488 29.0752C194.515 29.1383 194.529 29.2064 194.529 29.2751C194.523 29.4118 194.464 29.5409 194.365 29.6354C194.266 29.7301 194.134 29.7828 193.997 29.7826Z" fill="white"/>
<path d="M184.693 41.1651C184.699 41.3587 184.743 41.5491 184.823 41.7257C184.903 41.9022 185.017 42.0612 185.159 42.1936C185.3 42.3261 185.466 42.4292 185.647 42.4974C185.829 42.5655 186.022 42.5974 186.215 42.5909H187.23V45.5634C187.275 45.9066 187.443 46.2217 187.704 46.4499C187.964 46.6782 188.298 46.8041 188.644 46.8041C188.99 46.8041 189.325 46.6782 189.585 46.4499C189.845 46.2217 190.013 45.9066 190.058 45.5634V42.5909H191.943V45.5634C191.949 45.7497 191.992 45.9327 192.07 46.1021C192.148 46.2715 192.259 46.4235 192.396 46.5497C192.533 46.6756 192.694 46.773 192.87 46.836C193.045 46.8991 193.231 46.9264 193.417 46.9167C193.598 46.9199 193.778 46.8875 193.946 46.8213C194.114 46.7548 194.268 46.6562 194.398 46.5303C194.528 46.4047 194.633 46.2546 194.705 46.0888C194.777 45.9228 194.815 45.7444 194.819 45.5634V42.5909H195.834C196.026 42.5974 196.218 42.5653 196.398 42.4969C196.578 42.4285 196.742 42.3248 196.882 42.1922C197.021 42.0595 197.133 41.9002 197.21 41.7238C197.287 41.5476 197.329 41.3577 197.332 41.1651V32.4167H184.693V41.1651Z" fill="white"/>
<path d="M199.265 32.1991C199.082 32.1926 198.9 32.2228 198.729 32.2876C198.558 32.3523 198.401 32.4507 198.268 32.5766C198.136 32.7027 198.029 32.8538 197.956 33.0215C197.882 33.189 197.842 33.3695 197.839 33.5524V39.1591C197.884 39.5023 198.053 39.8174 198.313 40.0455C198.573 40.2739 198.907 40.3998 199.253 40.3998C199.599 40.3998 199.933 40.2739 200.193 40.0455C200.454 39.8174 200.622 39.5023 200.667 39.1591V33.5524C200.664 33.3717 200.625 33.1931 200.553 33.0271C200.481 32.8613 200.376 32.7112 200.246 32.5855C200.116 32.4599 199.962 32.361 199.794 32.2946C199.626 32.2284 199.446 32.196 199.265 32.1991Z" fill="white"/>
<path d="M182.735 32.4167C181.962 32.4167 181.333 32.8034 181.333 33.5526V39.1592C181.337 39.3402 181.375 39.5186 181.448 39.6846C181.52 39.8504 181.624 40.0005 181.754 40.1261C181.884 40.2518 182.038 40.3506 182.206 40.4171C182.374 40.4833 182.554 40.5157 182.735 40.5126C183.533 40.5126 183.75 39.9084 183.75 39.1592V33.5526C183.75 32.8034 183.533 32.4167 182.735 32.4167ZM194.118 27.1484L195.084 25.4326C195.084 25.4326 195.084 25.2392 195.084 25.1909C195.048 25.1569 195.001 25.1379 194.951 25.1379C194.902 25.1379 194.855 25.1569 194.818 25.1909L193.828 26.9309C192.93 26.5718 191.966 26.407 191 26.4476C190.056 26.4437 189.12 26.6242 188.245 26.9792L187.254 25.1667C187.218 25.1327 187.171 25.1138 187.121 25.1138C187.072 25.1138 187.025 25.1327 186.988 25.1667C186.961 25.201 186.946 25.2436 186.946 25.2876C186.946 25.3315 186.961 25.3741 186.988 25.4084L187.979 27.1242C187.041 27.5452 186.239 28.2216 185.667 29.0762C185.094 29.9309 184.773 30.9293 184.741 31.9576H197.453C197.42 30.9293 197.1 29.9309 196.527 29.0762C195.954 28.2216 195.153 27.5452 194.214 27.1242L194.118 27.1484ZM188.197 29.7826C188.06 29.7828 187.928 29.7301 187.829 29.6354C187.73 29.5409 187.671 29.4118 187.665 29.2751C187.665 29.2064 187.679 29.1383 187.706 29.0752C187.733 29.0119 187.772 28.9548 187.822 28.9075C187.872 28.8599 187.931 28.8231 187.995 28.799C188.06 28.775 188.128 28.7642 188.197 28.7676C188.265 28.7642 188.334 28.775 188.398 28.799C188.463 28.8231 188.522 28.8599 188.571 28.9075C188.621 28.9548 188.661 29.0119 188.688 29.0752C188.715 29.1383 188.728 29.2064 188.728 29.2751C188.728 29.3437 188.715 29.4118 188.688 29.4749C188.661 29.5382 188.621 29.5953 188.571 29.6426C188.522 29.6902 188.463 29.727 188.398 29.7511C188.334 29.7751 188.265 29.7857 188.197 29.7826ZM193.997 29.7826C193.928 29.7857 193.86 29.7751 193.795 29.7511C193.731 29.727 193.672 29.6902 193.622 29.6426C193.572 29.5953 193.533 29.5382 193.506 29.4749C193.479 29.4118 193.465 29.3437 193.465 29.2751C193.465 29.2064 193.479 29.1383 193.506 29.0752C193.533 29.0119 193.572 28.9548 193.622 28.9075C193.672 28.8599 193.731 28.8231 193.795 28.799C193.86 28.775 193.928 28.7642 193.997 28.7676C194.065 28.7642 194.134 28.775 194.198 28.799C194.263 28.8231 194.322 28.8599 194.371 28.9075C194.421 28.9548 194.461 29.0119 194.488 29.0752C194.515 29.1383 194.528 29.2064 194.528 29.2751C194.522 29.4118 194.463 29.5409 194.364 29.6354C194.265 29.7301 194.134 29.7828 193.997 29.7826ZM184.693 32.4167V41.1651C184.693 41.9626 185.369 42.0834 186.215 42.0834H187.23V45.5634C187.275 45.9066 187.443 46.2217 187.703 46.4498C187.964 46.6782 188.298 46.8039 188.644 46.8039C188.99 46.8039 189.324 46.6782 189.584 46.4498C189.845 46.2217 190.013 45.9066 190.058 45.5634V42.0834H191.943V45.5634C191.949 45.7497 191.992 45.9327 192.07 46.1021C192.148 46.2715 192.258 46.4235 192.396 46.5494C192.533 46.6755 192.694 46.7729 192.869 46.836C193.045 46.8991 193.231 46.9264 193.417 46.9167C193.598 46.9199 193.777 46.8875 193.946 46.8213C194.114 46.7548 194.268 46.656 194.398 46.5303C194.528 46.4046 194.632 46.2546 194.704 46.0888C194.777 45.9227 194.815 45.7444 194.818 45.5634V42.0834H195.833C196.655 42.0834 197.332 41.9626 197.332 41.1651V32.4167H184.693ZM200.667 33.5526C200.667 32.8034 200.038 32.4167 199.265 32.4167C198.492 32.4167 198.25 32.8034 198.25 33.5526V39.1592C198.25 39.9084 198.468 40.5126 199.265 40.5126C199.446 40.5157 199.626 40.4833 199.794 40.4171C199.963 40.3506 200.116 40.2518 200.246 40.1261C200.377 40.0005 200.481 39.8504 200.553 39.6846C200.625 39.5186 200.664 39.3402 200.667 39.1592V33.5526Z" fill="#A4C439"/>
<path d="M291.333 20.3333L276.833 5.83325H257.5C256.218 5.83325 254.989 6.34247 254.082 7.24891C253.176 8.15533 252.667 9.38471 252.667 10.6666V49.3332C252.667 50.615 253.176 51.8444 254.082 52.7509C254.989 53.6574 256.218 54.1666 257.5 54.1666H286.5C287.782 54.1666 289.011 53.6574 289.917 52.7509C290.824 51.8444 291.333 50.615 291.333 49.3332V20.3333ZM287.926 20.3333H276.833V9.24075L287.926 20.3333ZM288.917 49.3332C288.917 49.9741 288.662 50.5889 288.209 51.0421C287.756 51.4952 287.141 51.7499 286.5 51.7499H257.5C256.859 51.7499 256.244 51.4952 255.791 51.0421C255.338 50.5889 255.083 49.9741 255.083 49.3332V10.6666C255.083 10.0256 255.338 9.41096 255.791 8.95774C256.244 8.50454 256.859 8.24992 257.5 8.24992H274.417V22.7499H288.917V49.3332Z" fill="#999999"/>
<path d="M262.838 42.2735L271.977 47.3666L281.163 42.2046L282.875 27.8042L271.965 24.0044L261.125 27.8726L262.838 42.2735Z" fill="#B3B3B3"/>
<path d="M271.94 46.1498L280.198 41.5157L281.794 28.6365L271.94 25.2292V46.1498Z" fill="#A6120D"/>
<path d="M271.94 46.1498V25.2288L262.342 28.6979L263.81 41.5773L271.94 46.1498Z" fill="#DD1B16"/>
<path d="M274.652 36.3662L271.94 37.6523H269.081L267.737 41.0605L265.237 41.1074L271.94 25.9888L274.652 36.3662ZM274.39 35.7188L271.958 30.8364L269.962 35.6347H271.94L274.39 35.7188Z" fill="#F2F2F2"/>
<path d="M274.222 35.6385H271.945L271.94 37.6492L275.088 37.6523L276.559 41.1082L278.951 41.1531L271.94 25.9888L271.958 30.8364L274.222 35.6385Z" fill="#B3B3B3"/>
<path d="M129.333 20.3333L114.833 5.83325H95.4998C94.218 5.83325 92.9886 6.34247 92.0822 7.24891C91.1757 8.15533 90.6665 9.38471 90.6665 10.6666V49.3332C90.6665 50.615 91.1757 51.8444 92.0822 52.7509C92.9886 53.6574 94.218 54.1666 95.4998 54.1666H124.5C125.782 54.1666 127.011 53.6574 127.917 52.7509C128.824 51.8444 129.333 50.615 129.333 49.3332V20.3333ZM125.926 20.3333H114.833V9.24075L125.926 20.3333ZM126.917 49.3332C126.917 49.9741 126.662 50.5889 126.209 51.0421C125.756 51.4952 125.141 51.7499 124.5 51.7499H95.4998C94.8589 51.7499 94.2442 51.4952 93.791 51.0421C93.3378 50.5889 93.0832 49.9741 93.0832 49.3332V10.6666C93.0832 10.0256 93.3378 9.41096 93.791 8.95774C94.2442 8.50454 94.8589 8.24992 95.4998 8.24992H112.417V22.7499H126.917V49.3332Z" fill="#999999"/>
<path d="M112.417 28.0909C113.091 27.2724 113.42 26.2238 113.335 25.1667C112.293 25.2682 111.331 25.7709 110.653 26.5684C110.312 26.9469 110.05 27.3901 109.884 27.8717C109.718 28.3534 109.651 28.8635 109.686 29.3717C110.21 29.3899 110.731 29.2831 111.206 29.0605C111.68 28.8377 112.096 28.5054 112.417 28.0909Z" fill="#010101"/>
<path d="M113.335 29.5649C111.836 29.5649 110.556 30.4349 109.831 30.4349C109.106 30.4349 108.018 29.6133 106.834 29.6374C106.048 29.6708 105.285 29.912 104.623 30.3366C103.96 30.7612 103.422 31.3537 103.064 32.0541C102.453 33.5517 102.239 35.1813 102.442 36.7859C102.645 38.3904 103.259 39.9153 104.224 41.2133C104.973 42.3491 105.891 43.6299 107.1 43.6299C108.308 43.6299 108.695 42.8808 110.072 42.8808C111.45 42.8808 111.885 43.6299 113.093 43.6058C114.301 43.5816 115.123 42.4941 115.896 41.3583C116.48 40.5023 116.936 39.5663 117.25 38.5791C116.547 38.2949 115.938 37.8183 115.493 37.204C115.048 36.5897 114.785 35.8625 114.735 35.1056C114.684 34.3487 114.848 33.5933 115.208 32.9253C115.567 32.2573 116.107 31.7042 116.766 31.3291C116.389 30.7875 115.892 30.3402 115.313 30.0217C114.735 29.7032 114.091 29.5222 113.431 29.4924" fill="#010101"/>
<path d="M257.25 129.125L261.668 122.998L259.815 117.25H262.594L263.211 119.625C263.211 119.91 263.33 120.195 263.401 120.504C263.473 120.812 263.544 121.121 263.615 121.477L264.375 120.504L264.826 119.625L266.275 117.25H268.935L264.755 123.14L266.75 129.125H263.971L263.282 126.536C263.282 126.227 263.14 125.919 263.045 125.61C262.95 125.301 262.903 124.969 262.808 124.613C262.618 124.969 262.404 125.301 262.214 125.61C262.024 125.919 261.834 126.251 261.62 126.56L259.91 129.125H257.25Z" fill="#EC2127"/>
<path d="M267.415 128.009L269.576 117.25H271.951L270.17 126.109H274.255L273.898 128.009H267.415Z" fill="#0D71BA"/>
<path d="M275.68 128.009L277.817 117.25H280.192L278.031 128.009H275.68Z" fill="#0D71BA"/>
<path d="M280.524 128.009L282.686 117.25H289.051L288.671 119.15H284.538L284.016 121.786H287.531L287.151 123.686H283.659L282.781 128.009H280.524Z" fill="#0D71BA"/>
<path d="M288.837 128.009L290.974 117.25H297.339L296.983 119.15H292.874L292.352 121.786H295.867L295.487 123.686H291.948L291.093 128.009H288.837Z" fill="#0D71BA"/>
<path d="M293.944 128.65H266.085V129.149H293.944V128.65Z" fill="#EC2127"/>
<path d="M285.75 133.875H257.25C256.62 133.875 256.016 133.625 255.571 133.179C255.125 132.734 254.875 132.13 254.875 131.5V93.5C254.875 92.8701 255.125 92.266 255.571 91.8206C256.016 91.3752 256.62 91.125 257.25 91.125H273.875V105.375H288.125V114.875H290.5V103L276.25 88.75H257.25C255.99 88.75 254.782 89.2504 253.891 90.1413C253 91.032 252.5 92.2402 252.5 93.5V131.5C252.5 132.76 253 133.968 253.891 134.859C254.782 135.75 255.99 136.25 257.25 136.25H285.75C287.01 136.25 288.218 135.75 289.109 134.859C290 133.968 290.5 132.76 290.5 131.5H288.125C288.125 132.13 287.875 132.734 287.429 133.179C286.984 133.625 286.38 133.875 285.75 133.875ZM276.25 92.0988L287.151 103H276.25V92.0988Z" fill="#999999"/>
<path d="M371.333 188L356.833 173.75H337.5C336.218 173.75 334.989 174.25 334.082 175.141C333.176 176.032 332.667 177.24 332.667 178.5V216.5C332.667 217.76 333.176 218.968 334.082 219.859C334.989 220.75 336.218 221.25 337.5 221.25H366.5C367.782 221.25 369.011 220.75 369.917 219.859C370.824 218.968 371.333 217.76 371.333 216.5V188ZM367.926 188H356.833V177.099L367.926 188ZM368.917 216.5C368.917 217.13 368.662 217.734 368.209 218.179C367.756 218.625 367.141 218.875 366.5 218.875H337.5C336.859 218.875 336.244 218.625 335.791 218.179C335.338 217.734 335.083 217.13 335.083 216.5V178.5C335.083 177.87 335.338 177.266 335.791 176.821C336.244 176.375 336.859 176.125 337.5 176.125H354.417V190.375H368.917V216.5Z" fill="#999999"/>
<path d="M339.917 196.075L349.583 194.745V202.25H339.917V196.075ZM352 194.555L364.083 192.75V202.25H352V194.555ZM339.917 204.625H349.583V213.65L339.917 211.75V204.625ZM352 204.625H364.083V216.5L352 214.125" fill="#2F76BC"/>
<path d="M357.25 104V89.75H354.875V104V106.375H357.25H371.5V104H357.25Z" fill="#999999"/>
<path d="M366.75 134.875H338.25C337.62 134.875 337.016 134.625 336.571 134.179C336.125 133.734 335.875 133.13 335.875 132.5V94.5C335.875 93.8701 336.125 93.266 336.571 92.8206C337.016 92.3752 337.62 92.125 338.25 92.125H356.276L369.125 104.974V115.875H371.5V104L357.25 89.75H338.25C336.99 89.75 335.782 90.2504 334.891 91.1413C334 92.032 333.5 93.2402 333.5 94.5V132.5C333.5 133.76 334 134.968 334.891 135.859C335.782 136.75 336.99 137.25 338.25 137.25H366.75C368.01 137.25 369.218 136.75 370.109 135.859C371 134.968 371.5 133.76 371.5 132.5H369.125C369.125 133.13 368.875 133.734 368.429 134.179C367.984 134.625 367.38 134.875 366.75 134.875Z" fill="#999999"/>
<path d="M352.096 118.25C352.61 118.229 353.122 118.316 353.601 118.506C354.079 118.695 354.512 118.983 354.872 119.349C355.232 119.716 355.512 120.155 355.692 120.636C355.873 121.118 355.95 121.632 355.92 122.145C355.951 122.664 355.872 123.183 355.689 123.669C355.506 124.155 355.222 124.597 354.857 124.967C354.492 125.336 354.053 125.625 353.57 125.814C353.086 126.003 352.568 126.088 352.049 126.064H349.555V130.125H347.75V118.25H352.096ZM349.555 124.52H351.621C351.94 124.549 352.262 124.508 352.564 124.399C352.865 124.29 353.139 124.116 353.365 123.889C353.592 123.662 353.766 123.389 353.875 123.088C353.984 122.786 354.025 122.464 353.996 122.145C354.025 121.826 353.984 121.504 353.875 121.203C353.766 120.901 353.592 120.628 353.365 120.401C353.139 120.174 352.865 120 352.564 119.891C352.262 119.782 351.94 119.741 351.621 119.77H349.555V124.52Z" fill="#777BB3"/>
<path d="M364.85 130.125V124.876H358.889V130.125H357.084V118.25H358.889V123.261H364.85V118.25H366.916V130.125H364.85Z" fill="#777BB3"/>
<path d="M373.376 118.25C373.888 118.233 374.398 118.322 374.873 118.513C375.348 118.704 375.779 118.992 376.136 119.358C376.494 119.725 376.771 120.162 376.95 120.642C377.129 121.122 377.206 121.634 377.176 122.145C377.207 122.663 377.128 123.183 376.945 123.669C376.762 124.155 376.478 124.597 376.113 124.966C375.748 125.336 375.31 125.625 374.826 125.814C374.342 126.003 373.824 126.088 373.305 126.064H370.811V130.125H369.125V118.25H373.376ZM370.811 124.52H372.877C373.507 124.52 374.112 124.27 374.557 123.824C375.002 123.379 375.252 122.775 375.252 122.145C375.252 121.515 375.002 120.911 374.557 120.466C374.112 120.02 373.507 119.77 372.877 119.77H370.788L370.811 124.52Z" fill="#777BB3"/>
<path d="M357.25 5.75H338.25C336.99 5.75 335.782 6.25044 334.891 7.14125C334 8.03204 333.5 9.24023 333.5 10.5V48.5C333.5 49.7597 334 50.9679 334.891 51.8587C335.782 52.7496 336.99 53.25 338.25 53.25H366.75C367.966 53.2519 369.136 52.7873 370.02 51.9523C370.903 51.1172 371.433 49.9751 371.5 48.7613V20L357.25 5.75ZM368.175 20H357.25V9.075L368.175 20ZM369.125 48.5C369.146 48.8173 369.099 49.1356 368.987 49.4331C368.875 49.7307 368.701 50.001 368.476 50.2259C368.251 50.4508 367.981 50.6252 367.683 50.737C367.386 50.8489 367.067 50.8959 366.75 50.875H338.25C337.933 50.8959 337.615 50.8489 337.317 50.737C337.019 50.6252 336.749 50.4508 336.524 50.2259C336.299 50.001 336.125 49.7307 336.013 49.4331C335.901 49.1356 335.854 48.8173 335.875 48.5V10.5C335.854 10.1827 335.901 9.86455 336.013 9.56686C336.125 9.2692 336.299 8.99888 336.524 8.77402C336.749 8.54915 337.019 8.37492 337.317 8.26299C337.615 8.15105 337.933 8.104 338.25 8.125H354.875V22.375H369.125V48.5Z" fill="#989898"/>
<path d="M364.375 43.75H340.625C340.018 43.6835 339.452 43.4118 339.02 42.98C338.588 42.5483 338.317 41.9821 338.25 41.375V29.5C338.317 28.8929 338.588 28.3267 339.02 27.895C339.452 27.4632 340.018 27.1915 340.625 27.125H364.375C364.982 27.1915 365.548 27.4632 365.98 27.895C366.412 28.3267 366.683 28.8929 366.75 29.5V41.375C366.683 41.9821 366.412 42.5483 365.98 42.98C365.548 43.4118 364.982 43.6835 364.375 43.75ZM340.625 29.5V41.375H364.375V29.5H340.625Z" fill="#010101"/>
<path d="M343 39V31.875H345.375L347.75 34.25L350.125 31.875H352.5V39H350.125V34.25L347.75 37.7175L345.375 34.25V39H343Z" fill="#010101"/>
<path d="M359.174 39.4513L355.16 35.1525H357.844V31.875H360.528V35.1525H363.188L359.174 39.4513Z" fill="#010101"/>
<path d="M195.833 104V89.75H193.417V104V106.375H195.833H210.333V104H195.833Z" fill="#999999"/>
<path d="M205.5 134.875H176.5C175.859 134.875 175.244 134.625 174.791 134.179C174.338 133.734 174.083 133.13 174.083 132.5V94.5C174.083 93.8701 174.338 93.266 174.791 92.8206C175.244 92.3752 175.859 92.125 176.5 92.125H194.842L207.917 104.974V115.875H210.333V104L195.833 89.75H176.5C175.218 89.75 173.989 90.2504 173.082 91.1413C172.176 92.032 171.667 93.2402 171.667 94.5V132.5C171.667 133.76 172.176 134.968 173.082 135.859C173.989 136.75 175.218 137.25 176.5 137.25H205.5C206.782 137.25 208.011 136.75 208.917 135.859C209.824 134.968 210.333 133.76 210.333 132.5H207.917C207.917 133.13 207.662 133.734 207.209 134.179C206.756 134.625 206.141 134.875 205.5 134.875Z" fill="#999999"/>
<path d="M181.333 130.125H178.917V118.25L184.958 124.188L191 118.25V130.125H188.462V124.188L184.958 127.75L181.333 124.188V130.125Z" fill="#263238"/>
<path d="M207.01 118.25L205.5 119.766L209.905 124.188L205.5 128.609L207.01 130.125L211.542 125.577L216.073 130.125L217.583 128.609L213.178 124.188L217.583 119.766L216.073 118.25L211.542 122.798L207.01 118.25Z" fill="#F9AC00"/>
<path d="M193.417 124.516L194.927 123L198.25 126.335V118.25H200.667V126.335L203.989 123L205.5 124.516L199.458 130.327L193.417 124.516Z" fill="#263238"/>
<path d="M129.333 103.333L114.833 88.8333H95.4998C94.218 88.8333 92.9886 89.3425 92.0822 90.2489C91.1757 91.1553 90.6665 92.3847 90.6665 93.6666V132.333C90.6665 133.615 91.1757 134.844 92.0822 135.751C92.9886 136.657 94.218 137.167 95.4998 137.167H124.5C125.782 137.167 127.011 136.657 127.917 135.751C128.824 134.844 129.333 133.615 129.333 132.333H126.917C126.917 132.974 126.662 133.589 126.209 134.042C125.756 134.495 125.141 134.75 124.5 134.75H95.4998C94.8589 134.75 94.2442 134.495 93.791 134.042C93.3378 133.589 93.0832 132.974 93.0832 132.333V93.6666C93.0832 93.0256 93.3378 92.411 93.791 91.9577C94.2442 91.5045 94.8589 91.2499 95.4998 91.2499H112.417V105.75H126.917V115.417H129.333V103.333ZM114.833 92.2408L125.926 103.333H114.833V92.2408Z" fill="#999999"/>
<path d="M97.2644 126.678C97.2673 126.9 97.3152 127.12 97.4052 127.323C97.4952 127.526 97.6255 127.709 97.7881 127.86C97.9508 128.011 98.1424 128.128 98.3515 128.203C98.5605 128.279 98.7826 128.31 99.0044 128.297C100.189 128.297 100.334 127.597 100.334 126.267V117.833H102.75V126.267C102.788 126.763 102.717 127.26 102.542 127.724C102.367 128.189 102.093 128.61 101.738 128.958C101.384 129.305 100.957 129.571 100.489 129.737C100.021 129.902 99.5228 129.964 99.0286 129.917C98.5788 129.961 98.1248 129.91 97.6961 129.767C97.2674 129.623 96.8738 129.391 96.5408 129.086C96.2078 128.78 95.9431 128.408 95.7638 127.993C95.5845 127.578 95.4947 127.13 95.5002 126.678H97.2644Z" fill="#231F20"/>
<path d="M106.956 126.437C106.956 127.597 108.212 128.346 109.735 128.346C111.257 128.346 112.151 127.597 112.151 126.557C112.151 125.518 111.499 125.107 110.001 124.721L108.478 124.358C106.351 123.851 105.046 122.86 105.046 121.217C105.046 119.211 107.101 117.833 109.59 117.833C112.079 117.833 113.746 119.211 113.795 121.217H112.031C112.031 120.057 110.967 119.356 109.614 119.356C108.261 119.356 107.197 120.081 107.197 121.096C107.197 122.111 107.826 122.401 109.324 122.787L110.605 123.102C113.021 123.657 113.988 124.624 113.988 126.316C113.988 128.515 112.248 129.868 109.493 129.868C106.738 129.868 105.167 128.539 105.046 126.437H106.956Z" fill="#231F20"/>
<path d="M125.757 123.899C125.829 124.66 125.741 125.427 125.499 126.151C125.257 126.876 124.866 127.541 124.352 128.106C123.838 128.671 123.212 129.122 122.513 129.431C121.814 129.74 121.059 129.899 120.295 129.899C119.532 129.899 118.776 129.74 118.078 129.431C117.379 129.122 116.753 128.671 116.239 128.106C115.724 127.541 115.334 126.876 115.092 126.151C114.85 125.427 114.762 124.66 114.834 123.899C114.762 123.139 114.85 122.372 115.092 121.647C115.334 120.923 115.724 120.257 116.239 119.692C116.753 119.127 117.379 118.676 118.078 118.367C118.776 118.059 119.532 117.899 120.295 117.899C121.059 117.899 121.814 118.059 122.513 118.367C123.212 118.676 123.838 119.127 124.352 119.692C124.866 120.257 125.257 120.923 125.499 121.647C125.741 122.372 125.829 123.139 125.757 123.899ZM116.67 123.899C116.67 126.606 118.072 128.322 120.295 128.322C122.519 128.322 123.896 126.606 123.896 123.899C123.896 121.193 122.495 119.477 120.295 119.477C118.096 119.477 116.67 121.193 116.67 123.899Z" fill="#231F20"/>
<path d="M126.917 129.917V117.833H129.333L134.167 126.606V117.833H136.583V129.917H134.167L129.333 121.072V129.917H126.917Z" fill="#231F20"/>
<path d="M34.25 19.3333V4.83325H31.875V19.3333V21.7499H34.25H48.5V19.3333H34.25Z" fill="#999999"/>
<path d="M43.75 50.7499H15.25C14.6201 50.7499 14.016 50.4952 13.5706 50.0421C13.1252 49.5889 12.875 48.9741 12.875 48.3332V9.66658C12.875 9.02564 13.1252 8.41096 13.5706 7.95774C14.016 7.50454 14.6201 7.24992 15.25 7.24992H33.2763L46.125 20.3241V28.9999H48.5V19.3333L34.25 4.83325H15.25C13.9902 4.83325 12.782 5.34247 11.8913 6.24891C11.0004 7.15533 10.5 8.38471 10.5 9.66658V48.3332C10.5 49.615 11.0004 50.8444 11.8913 51.7509C12.782 52.6574 13.9902 53.1666 15.25 53.1666H43.75C45.0097 53.1666 46.2179 52.6574 47.1087 51.7509C47.9996 50.8444 48.5 49.615 48.5 48.3332H46.125C46.125 48.9741 45.8747 49.5889 45.4294 50.0421C44.984 50.4952 44.3798 50.7499 43.75 50.7499Z" fill="#999999"/>
<path d="M48.1435 46.8592C47.0974 46.9138 46.0554 46.6881 45.1218 46.2047C44.1885 45.7212 43.3959 44.9969 42.8235 44.1042C42.6335 43.8142 42.6098 43.645 42.966 43.4517C43.3223 43.2583 44.1535 42.7992 44.7235 42.4367C45.2935 42.0742 45.1035 42.2675 45.3173 42.5575C45.6681 43.1506 46.1963 43.6138 46.8245 43.8792C47.4529 44.1445 48.1483 44.1979 48.8085 44.0317C49.1289 43.9961 49.4308 43.8613 49.673 43.645C49.9153 43.4287 50.0861 43.1418 50.1623 42.8233C50.2167 42.4951 50.1623 42.1578 50.0074 41.8646C49.8526 41.5715 49.6063 41.339 49.3073 41.2042C48.6071 40.7994 47.8766 40.4519 47.1223 40.165C46.4758 39.8905 45.8624 39.5417 45.2935 39.1258C44.5554 38.5988 44.0011 37.8462 43.7106 36.9774C43.4204 36.1086 43.4092 35.1683 43.6785 34.2925C43.9227 33.4972 44.3989 32.7961 45.0435 32.2826C45.6883 31.769 46.4713 31.4669 47.2885 31.4167C48.0849 31.319 48.8926 31.3848 49.6635 31.61C50.6653 31.9423 51.5111 32.6395 52.0385 33.5675C52.1573 33.7608 52.0385 33.8575 52.0385 33.9783L50.186 35.235C49.9723 35.38 49.8773 35.3558 49.7348 35.235C49.5474 34.8674 49.2527 34.5678 48.8912 34.3773C48.5297 34.1869 48.1193 34.1151 47.716 34.1717C47.4519 34.1811 47.1973 34.2746 46.9883 34.4397C46.7796 34.6045 46.6271 34.8319 46.5523 35.09C46.4628 35.3462 46.4514 35.6238 46.519 35.8868C46.5867 36.1497 46.7309 36.3856 46.9323 36.5642C47.3232 36.8737 47.755 37.1258 48.2148 37.3133C49.2204 37.7002 50.1901 38.1773 51.1123 38.7392C51.9131 39.2157 52.5378 39.947 52.8897 40.8206C53.2417 41.694 53.3013 42.6609 53.0598 43.5725C52.8878 44.3794 52.477 45.1131 51.8825 45.675C51.2878 46.2366 50.5383 46.5994 49.7348 46.7142C49.2111 46.821 48.6777 46.8696 48.1435 46.8592Z" fill="#FFC80B"/>
<path d="M41.3749 37.3376V42.3643C41.3624 43.0525 41.2256 43.7323 40.9712 44.3701C40.7104 45.0226 40.2817 45.5915 39.73 46.0168C39.1783 46.4422 38.524 46.7082 37.8362 46.7868C36.6323 47.0405 35.3809 46.9141 34.2499 46.4243C33.2427 46.0122 32.4043 45.2619 31.8749 44.2976C31.7324 44.0559 31.8749 43.9593 32.0174 43.8384C32.7062 43.4759 33.3712 43.0651 34.0362 42.6784C34.2737 42.5093 34.3924 42.5576 34.5349 42.7993C34.6824 43.1296 34.9064 43.4187 35.1876 43.6417C35.4688 43.8645 35.7989 44.0151 36.1499 44.0801C36.3635 44.1417 36.5879 44.154 36.8069 44.1163C37.0258 44.0789 37.2337 43.9921 37.4156 43.8626C37.5975 43.7328 37.7488 43.5639 37.8585 43.3674C37.9682 43.171 38.0336 42.952 38.0499 42.7268C38.0499 42.4609 38.0499 42.1709 38.0499 41.9051V32.0209C38.0499 31.6826 38.0499 31.5618 38.5012 31.5618H40.8762C41.2087 31.5618 41.3035 31.5618 41.3035 31.9726C41.3035 33.7609 41.3035 35.5493 41.3035 37.3376H41.3749Z" fill="#FFC80B"/>
<path d="M48.3332 104L33.8332 89.75H14.4998C13.218 89.75 11.9886 90.2504 11.0822 91.1413C10.1757 92.032 9.6665 93.2402 9.6665 94.5V132.5C9.6665 133.76 10.1757 134.968 11.0822 135.859C11.9886 136.75 13.218 137.25 14.4998 137.25H43.4998C44.7816 137.25 46.011 136.75 46.9175 135.859C47.824 134.968 48.3332 133.76 48.3332 132.5V104ZM44.9257 104H33.8332V93.0988L44.9257 104ZM45.9165 132.5C45.9165 133.13 45.6618 133.734 45.2087 134.179C44.7555 134.625 44.1407 134.875 43.4998 134.875H14.4998C13.8589 134.875 13.2442 134.625 12.791 134.179C12.3378 133.734 12.0832 133.13 12.0832 132.5V94.5C12.0832 93.8701 12.3378 93.266 12.791 92.8206C13.2442 92.3752 13.8589 92.125 14.4998 92.125H31.4165V106.375H45.9165V132.5Z" fill="#999999"/>
<path d="M25.061 125.945C24.2831 126.662 23.2518 127.054 22.1852 127.037C21.688 127.071 21.1938 126.939 20.7818 126.664C20.3699 126.388 20.0641 125.984 19.9136 125.517C19.733 124.989 19.7346 124.416 19.918 123.888C20.1015 123.36 20.4566 122.906 20.9286 122.596C21.8491 122.063 22.9056 121.799 23.9736 121.836C24.916 121.836 24.916 121.836 24.8435 120.91C24.8534 120.734 24.8271 120.559 24.7662 120.394C24.7053 120.229 24.611 120.077 24.4892 119.948C24.3674 119.82 24.2205 119.717 24.057 119.645C23.8937 119.574 23.7174 119.535 23.5386 119.532C22.6463 119.451 21.7467 119.564 20.9044 119.865C20.6869 119.865 20.4452 120.031 20.4452 119.699C20.4452 119.366 20.0102 119.057 20.4452 118.844C21.7132 118.297 23.1176 118.132 24.481 118.369C25.0579 118.411 25.5968 118.668 25.9873 119.087C26.3781 119.507 26.5912 120.056 26.5835 120.625C26.5835 122.549 26.5835 124.496 26.5835 126.42C26.5835 126.752 26.5835 126.847 26.1485 126.824H25.7618C25.3752 126.824 25.1335 126.824 25.1577 126.349C25.1366 126.212 25.1043 126.077 25.061 125.945ZM24.8435 124.045V123.19C24.8435 123.047 24.8435 122.881 24.626 122.881C23.8052 122.807 22.978 122.921 22.2094 123.214C21.9527 123.346 21.746 123.556 21.6198 123.813C21.4937 124.069 21.4547 124.359 21.5086 124.639C21.5012 124.888 21.5812 125.133 21.7351 125.332C21.889 125.531 22.1076 125.672 22.3544 125.731C22.7301 125.8 23.1163 125.788 23.4873 125.698C23.8582 125.608 24.2053 125.441 24.5052 125.209C25.0368 124.876 24.771 124.401 24.8435 124.045Z" fill="#ED252E"/>
<path d="M42.0252 125.945L41.4211 126.349C41.039 126.633 40.6016 126.836 40.1359 126.947C39.6699 127.057 39.1861 127.072 38.7144 126.99C38.2707 126.974 37.8449 126.814 37.5036 126.534C37.1624 126.255 36.9253 125.872 36.8294 125.446C36.6474 124.965 36.6293 124.438 36.7774 123.946C36.9256 123.454 37.232 123.022 37.6511 122.715C38.4548 122.167 39.4039 121.862 40.3819 121.836H40.6719C41.0344 121.836 41.5902 122.121 41.7352 121.575C41.8113 121.385 41.8474 121.182 41.8408 120.978C41.8341 120.774 41.7852 120.574 41.697 120.389C41.6086 120.205 41.4829 120.04 41.3275 119.905C41.1719 119.77 40.9899 119.667 40.7927 119.604C40.0859 119.437 39.3488 119.437 38.6419 119.604L38.0861 119.746C37.3852 119.936 37.4094 119.936 37.2402 119.247C37.2216 119.199 37.2139 119.148 37.2177 119.096C37.2214 119.045 37.2364 118.995 37.2615 118.95C37.2869 118.904 37.3219 118.865 37.364 118.835C37.4062 118.804 37.4546 118.783 37.5061 118.772C38.7122 118.279 40.0271 118.099 41.3244 118.25C41.9225 118.309 42.4769 118.585 42.879 119.024C43.2812 119.463 43.5023 120.034 43.4994 120.625C43.4994 122.501 43.4994 124.377 43.4994 126.254C43.4994 126.61 43.4994 126.705 43.0402 126.729C42.5811 126.752 41.9527 126.752 42.0252 125.945ZM41.7594 124.021V123.166C41.7594 123.047 41.7594 122.881 41.5902 122.881C40.6753 122.761 39.7453 122.928 38.9319 123.356C38.7187 123.521 38.5612 123.745 38.4792 123.999C38.3973 124.253 38.3951 124.526 38.4727 124.781C38.4964 125.006 38.5904 125.218 38.7419 125.388C38.8935 125.559 39.0948 125.678 39.3186 125.731C39.696 125.796 40.0832 125.781 40.4541 125.687C40.8251 125.593 41.1714 125.422 41.4694 125.185C41.9769 124.852 41.6627 124.354 41.7594 124.021Z" fill="#ED252E"/>
<path d="M32.6975 124.876C33.3722 123.229 33.8744 121.518 34.1958 119.77C34.1842 119.636 34.1842 119.501 34.1958 119.366C34.1958 119.034 34.1958 118.464 34.4617 118.345C34.9646 118.25 35.4813 118.25 35.9842 118.345C36.2983 118.345 36.1292 118.559 36.105 118.701C35.6954 120.926 35.0639 123.105 34.22 125.209C33.5675 126.824 33.5675 126.8 31.8033 126.8C31.6658 126.821 31.5254 126.787 31.4126 126.708C31.2995 126.628 31.2229 126.507 31.1992 126.373C30.4258 123.831 29.6283 121.29 28.7825 118.773C28.6617 118.369 28.7825 118.321 29.1208 118.321C30.4983 118.321 30.5225 118.321 30.9092 119.58C31.5858 121.29 32.2383 123 32.6975 124.876Z" fill="#ED252E"/>
<path d="M14.5 129.484C14.5 129.246 15.08 128.961 15.37 128.7C15.6603 128.411 15.8839 128.065 16.0257 127.684C16.1675 127.303 16.2241 126.896 16.1917 126.491C16.1917 123.142 16.1917 119.818 16.1917 116.493C16.1917 115.875 16.3367 115.875 16.9167 115.875C18.125 115.875 18.125 115.875 18.125 117.062V125.779C18.1491 126.23 18.1491 126.681 18.125 127.132C18.0658 127.77 17.8386 128.381 17.4656 128.906C17.0927 129.431 16.587 129.851 15.9983 130.125C15.7567 130.125 14.7175 130.386 14.5 129.484Z" fill="#ED252E"/>
<path fill-rule="evenodd" clip-rule="evenodd" d="M290.333 188.333L275.833 173.833H273.417H256.5C253.842 173.833 251.667 176.008 251.667 178.667V217.333C251.667 219.992 253.842 222.167 256.5 222.167H285.5C288.158 222.167 290.333 219.992 290.333 217.333V190.75V188.333ZM286.95 188.333H275.833V177.217L286.95 188.333ZM285.5 219.75C286.95 219.75 287.917 218.783 287.917 217.333V190.75H275.833H273.417V188.333V176.25H256.5C255.05 176.25 254.083 177.217 254.083 178.667V217.333C254.083 218.783 255.05 219.75 256.5 219.75H285.5Z" fill="#999999"/>
<path d="M258.675 204.042L266.167 207.667V210.083L256.5 205.25V202.833L266.167 198V200.417L258.675 204.042Z" fill="#F15C34"/>
<path d="M266.167 212.5L273.417 195.583H275.833L268.583 212.5H266.167Z" fill="#F15C34"/>
<path d="M275.833 198L285.5 202.833V205.25L275.833 210.083V207.667L282.842 204.283L275.833 200.417V198Z" fill="#F15C34"/>
<path d="M49.5 188L35.25 173.75H16.25C14.9902 173.75 13.782 174.25 12.8913 175.141C12.0004 176.032 11.5 177.24 11.5 178.5V216.5C11.5 217.76 12.0004 218.968 12.8913 219.859C13.782 220.75 14.9902 221.25 16.25 221.25H44.75C46.0097 221.25 47.2179 220.75 48.1087 219.859C48.9996 218.968 49.5 217.76 49.5 216.5V188ZM46.1513 188H35.25V177.099L46.1513 188ZM47.125 216.5C47.125 217.13 46.8747 217.734 46.4294 218.179C45.984 218.625 45.3798 218.875 44.75 218.875H16.25C15.6201 218.875 15.016 218.625 14.5706 218.179C14.1252 217.734 13.875 217.13 13.875 216.5V178.5C13.875 177.87 14.1252 177.266 14.5706 176.821C15.016 176.375 15.6201 176.125 16.25 176.125H32.875V190.375H47.125V216.5Z" fill="#999999"/>
<mask id="mask0_268_109" style="mask-type:luminance" maskUnits="userSpaceOnUse" x="23" y="192" width="15" height="23">
<path d="M37.625 192.75H23.375V214.125H37.625V192.75Z" fill="white"/>
</mask>
<g mask="url(#mask0_268_109)">
<path d="M33.0288 194.968V198.988L37.4 210.599C37.4 210.599 38.7343 213.435 34.9153 214.125H26.2097C26.2097 214.125 22.6529 213.74 23.5042 210.827L28.0961 198.988V194.968H33.0288Z" fill="#009688"/>
<path d="M33.1207 194.496H27.8752C27.452 194.496 27.1069 194.106 27.1069 193.621C27.1069 193.14 27.452 192.75 27.88 192.75H33.1254C33.5532 192.75 33.8982 193.14 33.8982 193.626C33.8937 194.106 33.5486 194.496 33.1207 194.496Z" fill="#004D40"/>
<path d="M31.7393 201.534C32.3005 201.534 32.7607 202.1 32.7607 202.805C32.7607 203.504 32.3005 204.075 31.7393 204.075C31.1733 204.075 30.7178 203.504 30.7178 202.805C30.7178 202.1 31.1733 201.534 31.7393 201.534Z" fill="white"/>
<path d="M28.6017 204.837C29.0769 204.837 29.4621 204.355 29.4621 203.761C29.4621 203.167 29.0769 202.686 28.6017 202.686C28.1264 202.686 27.7412 203.167 27.7412 203.761C27.7412 204.355 28.1264 204.837 28.6017 204.837Z" fill="white"/>
<path d="M33.4199 198.722V196.809C33.4199 196.809 35.7664 196.276 36.9399 199.098C36.9399 199.093 35.1085 200.473 33.4199 198.722Z" fill="#004D40"/>
<path d="M27.6732 198.722V196.809C27.6732 196.809 25.3266 196.276 24.1533 199.098C24.1533 199.093 25.9801 200.473 27.6732 198.722Z" fill="#004D40"/>
<path d="M34.8273 206.64C31.0131 205.417 27.8059 206.074 26.2369 206.569L24.6541 210.504C23.9455 212.854 26.9178 213.164 26.9178 213.164H34.1925C37.3811 212.607 36.2675 210.323 36.2675 210.323L34.8273 206.64Z" fill="white"/>
<path d="M29.3285 208.101C29.3285 208.524 28.7763 208.872 28.0999 208.872C27.4238 208.872 26.8716 208.524 26.8716 208.101C26.8716 207.673 27.419 207.33 28.0999 207.33C28.7811 207.33 29.3285 207.677 29.3285 208.101Z" fill="#004D40"/>
<path d="M33.7086 208.101C33.7086 208.524 33.1565 208.872 32.4801 208.872C31.7991 208.872 31.2515 208.524 31.2515 208.101C31.2515 207.673 31.7991 207.33 32.4801 207.33C33.1565 207.33 33.7086 207.677 33.7086 208.101Z" fill="#004D40"/>
</g>
<path d="M209.5 188L195.25 173.75H176.25C174.99 173.75 173.782 174.25 172.891 175.141C172 176.032 171.5 177.24 171.5 178.5V216.5C171.5 217.76 172 218.968 172.891 219.859C173.782 220.75 174.99 221.25 176.25 221.25H204.75C206.01 221.25 207.218 220.75 208.109 219.859C209 218.968 209.5 217.76 209.5 216.5V188ZM206.151 188H195.25V177.099L206.151 188ZM207.125 216.5C207.125 217.13 206.875 217.734 206.429 218.179C205.984 218.625 205.38 218.875 204.75 218.875H176.25C175.62 218.875 175.016 218.625 174.571 218.179C174.125 217.734 173.875 217.13 173.875 216.5V178.5C173.875 177.87 174.125 177.266 174.571 176.821C175.016 176.375 175.62 176.125 176.25 176.125H192.875V190.375H207.125V216.5Z" fill="#999999"/>
<path d="M183.375 192.75L185.75 209.375L189.312 192.75H191.688L195.25 209.375L197.625 195.125H195.25V192.75H202.375L197.625 214.125H192.875L190.5 199.875L188.125 214.125H183.375L178.625 192.75H183.375Z" fill="#4B7FC1"/>
<path d="M129.5 188L115.25 173.75H96.25C94.9902 173.75 93.782 174.25 92.8913 175.141C92.0004 176.032 91.5 177.24 91.5 178.5V216.5C91.5 217.76 92.0004 218.968 92.8913 219.859C93.782 220.75 94.9902 221.25 96.25 221.25H124.75C126.01 221.25 127.218 220.75 128.109 219.859C129 218.968 129.5 217.76 129.5 216.5V188ZM126.151 188H115.25V177.099L126.151 188ZM127.125 216.5C127.125 217.13 126.875 217.734 126.429 218.179C125.984 218.625 125.38 218.875 124.75 218.875H96.25C95.6201 218.875 95.016 218.625 94.5706 218.179C94.1252 217.734 93.875 217.13 93.875 216.5V178.5C93.875 177.87 94.1252 177.266 94.5706 176.821C95.016 176.375 95.6201 176.125 96.25 176.125H112.875V190.375H127.125V216.5Z" fill="#999999"/>
<path d="M106.273 207.631C105.191 206.554 104.535 205.053 104.535 203.421C104.535 201.757 105.224 200.288 106.306 199.211C107.224 198.298 107.257 196.829 106.306 195.915C105.355 195.002 103.912 194.969 102.961 195.915C101.026 197.808 99.8125 200.484 99.8125 203.421C99.8125 206.358 100.993 209.001 102.928 210.96C103.846 211.873 105.322 211.906 106.273 210.96C107.191 210.013 107.191 208.545 106.273 207.631Z" fill="#FFD85F"/>
<path d="M106.305 199.211C107.387 198.135 108.896 197.482 110.536 197.482C112.208 197.482 113.684 198.167 114.766 199.244C115.684 200.158 117.16 200.19 118.079 199.244C118.997 198.33 119.029 196.862 118.079 195.915C116.144 193.99 113.487 192.783 110.536 192.75C107.584 192.75 104.928 193.925 102.993 195.85C102.075 196.764 102.042 198.232 102.993 199.179C103.911 200.093 105.387 200.093 106.305 199.211Z" fill="#3BB4E7"/>
<path d="M114.766 207.664C113.684 208.74 112.175 209.393 110.536 209.393C108.863 209.393 107.387 208.708 106.305 207.631C105.387 206.717 103.911 206.685 102.993 207.631C102.075 208.545 102.042 210.013 102.993 210.96C104.928 212.885 107.584 214.093 110.536 214.125C113.487 214.125 116.144 212.95 118.111 211.025C119.029 210.111 119.062 208.643 118.111 207.696C117.16 206.75 115.684 206.75 114.766 207.664Z" fill="#ED5C68"/>
<path d="M106.307 199.211C105.389 200.125 103.88 200.125 102.962 199.211C102.044 198.298 102.044 196.797 102.962 195.915C103.88 195.002 105.389 195.002 106.307 195.915C107.258 196.797 107.225 198.298 106.307 199.211Z" fill="#308BC5"/>
<path d="M106.274 210.927C105.355 211.841 103.847 211.841 102.928 210.927C102.01 210.013 102.01 208.512 102.928 207.631C103.847 206.717 105.355 206.717 106.274 207.631C107.192 208.545 107.192 210.013 106.274 210.927Z" fill="#D5465F"/>
</svg>
