<svg width="116" height="24" viewBox="0 0 116 24" fill="none" xmlns="http://www.w3.org/2000/svg">
<path d="M30 13.0117C30 14.7955 30.5426 16.2255 31.6267 17.3039C32.7119 18.3812 34.1781 18.9204 36.0275 18.9204C37.8769 18.9204 39.1215 18.4649 40.0462 17.5549C40.9709 16.6381 41.4332 15.5743 41.4332 14.3659V14.2563H38.7575V14.3546C38.7575 14.8418 38.5461 15.2612 38.1244 15.6105C37.7016 15.9598 36.9963 16.135 36.006 16.135C34.8925 16.135 34.0763 15.8615 33.5597 15.3155C33.0431 14.7695 32.7843 14.0415 32.7843 13.1315V12.5414C32.7843 11.6314 33.0465 10.9034 33.571 10.3574C34.0956 9.81139 34.9072 9.53783 36.006 9.53783C36.9669 9.53783 37.6655 9.70513 38.1029 10.0397C38.5472 10.3744 38.7688 10.7971 38.7688 11.307V11.4166H41.4445L41.4332 11.2742C41.3891 10.0578 40.9166 9.00313 40.0134 8.1067C39.1102 7.20348 37.7819 6.75244 36.0275 6.75244C34.1781 6.75244 32.7108 7.29166 31.6267 8.36896C30.5415 9.43948 30 10.8695 30 12.6612V13.0105V13.0117Z" fill="#263238"/>
<path d="M43.6839 18.5926H46.4139V12.9201C46.4139 11.6777 47.0107 11.0356 47.5059 10.6852C48.001 10.328 48.5651 10.1505 49.1981 10.1505C49.3948 10.1505 49.5734 10.1618 49.7328 10.1833C49.9001 10.2048 50.0573 10.2308 50.2019 10.2602V6.9186C50.1296 6.88921 50.0019 6.85643 49.8199 6.82025C49.6446 6.78408 49.474 6.76599 49.3066 6.76599C48.6589 6.76599 48.0801 6.94121 47.5703 7.29051C47.1113 7.60477 46.7406 7.97669 46.4591 8.40286C46.4297 8.44695 46.3607 8.42886 46.3573 8.37573L46.1188 7.08251H43.6827V18.5926H43.6839Z" fill="#263238"/>
<path d="M51.3177 13.0117C51.3177 14.7955 51.8818 16.2255 53.0099 17.3039C54.1381 18.3812 55.6235 18.9205 57.4661 18.9205C59.3087 18.9205 60.7828 18.3812 61.911 17.3039C63.0471 16.2266 63.6145 14.7955 63.6145 13.0117V12.6624C63.6145 10.8718 63.0471 9.44064 61.911 8.37012C60.7828 7.29282 59.3008 6.7536 57.4661 6.7536C55.6314 6.7536 54.1393 7.29282 53.0099 8.37012C51.8818 9.44064 51.3177 10.8706 51.3177 12.6624V13.0117ZM54.1019 12.5426C54.1019 11.5455 54.3936 10.8175 54.9758 10.3586C55.5579 9.8996 56.3877 9.67012 57.4661 9.67012C58.5446 9.67012 59.363 9.8996 59.9452 10.3586C60.5352 10.8175 60.8303 11.5455 60.8303 12.5426V13.1326C60.8303 14.167 60.5386 14.9052 59.9565 15.3494C59.3811 15.7858 58.5513 16.0051 57.4661 16.0051C56.3809 16.0051 55.5478 15.7869 54.9656 15.3494C54.3902 14.9052 54.1031 14.1659 54.1031 13.1326V12.5426H54.1019Z" fill="#263238"/>
<path d="M64.8546 7.08029L68.2832 18.5904H71.3885L73.8235 10.2319C73.8495 10.1426 73.9761 10.1404 74.0043 10.2297L76.6303 18.5904H79.7345L83.1857 7.08029H79.8091L78.1056 13.491C78.0332 13.7826 77.9631 14.0698 77.8976 14.3535C77.8603 14.5321 77.7981 14.8158 77.7585 14.9956C77.7495 15.0352 77.693 15.0363 77.6839 14.9956C77.6353 14.7898 77.5833 14.5762 77.5256 14.3524C77.4533 14.0607 77.373 13.7736 77.2849 13.4899L75.3846 7.07916H72.1516C72.1516 7.07916 70.2434 13.6187 69.8907 14.9221C69.876 14.9786 69.7957 14.9775 69.781 14.9221L67.805 7.08029H64.8524H64.8546Z" fill="#263238"/>
<path d="M84.0799 13.0117C84.0799 14.7152 84.5422 16.109 85.4669 17.1943C86.3984 18.2716 87.6916 18.8108 89.3443 18.8108C90.2034 18.8108 90.9461 18.6548 91.5713 18.3417C92.0065 18.1212 92.5649 17.6272 92.8724 17.339C92.9979 17.868 93.1663 18.5937 93.1663 18.5937H95.8726V1.85089H93.0239V8.46845C92.6599 7.95862 92.1795 7.56523 91.5826 7.28941C90.9857 7.00567 90.2611 6.86323 89.4099 6.86323C87.8081 6.86323 86.5194 7.40584 85.5438 8.48993C84.5682 9.56723 84.0799 10.9577 84.0799 12.6612V13.0105V13.0117ZM86.8653 13.1213L86.8551 12.5538C86.8551 11.7241 87.1095 11.0538 87.6193 10.5439C88.1291 10.0273 88.9193 9.76845 89.9898 9.76845C90.7393 9.76845 91.3768 9.94366 91.9002 10.293C91.9059 10.2964 91.9104 10.2998 91.9161 10.3031C92.6169 10.7757 93.025 11.576 93.025 12.4216V13.2129C93.025 14.0822 92.5943 14.9017 91.8629 15.3709C91.8573 15.3743 91.8516 15.3777 91.846 15.3811C91.2853 15.7304 90.6375 15.9056 89.9028 15.9056C88.8243 15.9056 88.05 15.6467 87.5763 15.1301C87.1027 14.6135 86.8664 13.9431 86.8664 13.1202L86.8653 13.1213Z" fill="#263238"/>
<path d="M99.1057 18.5926H101.826V7.08141H99.1057V18.5915V18.5926ZM98.5281 3.93654C98.5281 4.43167 98.6954 4.83976 99.03 5.15967C99.3725 5.4728 99.8518 5.6288 100.471 5.6288C101.091 5.6288 101.557 5.46828 101.891 5.14836C102.234 4.82845 102.404 4.42376 102.404 3.93654C102.404 3.44932 102.237 3.05593 101.901 2.73489C101.567 2.41498 101.086 2.25446 100.46 2.25446C99.8337 2.25446 99.3725 2.41498 99.03 2.73489C98.6954 3.0548 98.5281 3.45611 98.5281 3.93654Z" fill="#263238"/>
<path d="M105.123 18.5926H107.843V13.9239C107.843 11.2809 108.778 9.60563 110.812 9.60563C112.847 9.60563 113.281 10.7892 113.281 12.4509V18.5926H116V11.767C116 9.80911 115.6 8.5012 114.798 7.84668C113.997 7.18424 112.975 6.85303 111.729 6.85303C110.907 6.85303 110.147 7.00564 109.447 7.31198C108.818 7.58329 108.306 7.9699 107.912 8.46955C107.879 8.29207 107.699 7.08251 107.699 7.08251H105.122V18.5926H105.123Z" fill="#263238"/>
<path d="M16.5766 24H7.42342C2.67476 24 0 21.2748 0 16.5766V7.42342C0 2.72521 2.67476 0 7.42342 0H16.5766C21.425 0 24 2.62544 24 7.42342V16.5766C24 21.3746 21.425 24 16.5766 24Z" fill="#263238"/>
<path d="M15.4188 16.3512C14.9697 16.3512 14.5696 16.2119 14.2384 15.9389C13.8427 15.6175 13.5282 15.1383 13.517 14.5751C13.5115 14.2905 13.8105 14.2905 13.8105 14.2905C13.8105 14.2905 14.2962 14.2848 14.5318 14.2848C14.7675 14.2905 14.8364 14.6303 14.8475 14.7156C14.9386 15.4793 15.3554 15.8122 15.6755 15.9642C15.8678 16.0552 15.82 16.3397 15.4188 16.3524V16.3512Z" fill="white"/>
<path d="M11.3864 12.4706C10.9908 12.4222 10.4039 12.3808 10.0249 12.284C9.41024 12.1274 9.42691 11.5549 9.45359 11.3683C9.52806 10.8085 9.7259 10.2901 10.0304 9.80865C10.4095 9.21889 10.9541 8.70055 11.6543 8.27897C12.9681 7.48994 14.8054 7.04993 16.8238 7.04993C18.3032 7.04993 19.847 7.2492 19.8626 7.2492C20.0015 7.26763 20.1027 7.40585 20.0971 7.56251C20.0916 7.71916 19.9849 7.83896 19.8459 7.85163C19.6214 7.84587 19.4024 7.84587 19.1946 7.84587C17.1384 7.84587 15.6745 8.13499 14.5853 8.7616C13.5116 9.37555 12.7636 10.3155 12.2567 11.7069C12.2034 11.8279 12.0267 12.5443 11.3864 12.4718V12.4706Z" fill="white"/>
<path d="M13.1804 18.2128C12.1601 18.2346 11.1987 17.7566 10.4707 16.9227C9.85379 16.2166 9.48255 15.5047 9.41364 14.5913C9.37141 13.9946 9.62594 13.7884 9.97161 13.8241C10.2106 13.8483 10.9542 13.8852 11.3799 13.9762C11.6988 14.043 11.9111 14.2261 11.9645 14.6028C12.2457 16.6117 13.4683 17.4018 14.1963 17.5723C14.3242 17.6023 14.4031 17.6875 14.3986 17.8407C14.3931 17.987 14.3119 18.1874 13.1816 18.2116L13.1804 18.2128Z" fill="white"/>
<path d="M10.2738 19.9958C9.55022 20.0269 8.84221 19.876 8.63992 19.8392C7.78853 19.6825 7.07496 19.4118 6.46364 19.0098C4.99983 18.0492 4.1162 16.3525 4.01061 14.3436C3.98393 13.8667 3.92502 12.9556 5.02205 13.0247C5.47443 13.0501 6.19244 13.2758 6.69817 13.4267C7.32615 13.6087 7.62959 14.1109 7.62959 14.6074C7.62959 17.4398 10.1049 19.3116 11.1852 19.3116C11.4431 19.3116 11.5042 19.4706 11.4731 19.6226C11.4486 19.7436 11.3831 19.9486 10.2749 19.997L10.2738 19.9958Z" fill="white"/>
<path d="M6.49807 11.6723C6.07015 11.5928 5.65224 11.4097 5.24543 11.3049C3.98724 10.9812 4.20175 9.66577 4.31957 9.30524C5.4644 5.81278 9.09893 4.64478 12.0321 4.33263C14.7942 4.0389 17.684 4.26582 20.376 5.04218C20.5683 5.09516 21.0985 5.22763 20.984 5.55015C20.8695 5.87267 20.5505 5.64806 17.614 5.58125C16.6459 5.55937 15.6789 5.62272 14.7086 5.77707C13.0436 6.03969 11.3319 6.58453 9.95588 7.73409C9.29233 8.29044 8.7088 8.99999 8.31868 9.83855C8.21642 10.0586 8.13639 10.2786 8.06748 10.4986C7.99746 10.7312 7.73515 11.8992 6.49918 11.6735L6.49807 11.6723Z" fill="white"/>
<path d="M13.5393 12.3463C13.775 11.2532 14.822 9.52075 18.063 9.64054C18.8066 9.66473 18.4665 10.19 18.0997 10.1785C16.2669 10.1128 15.3977 11.3372 14.942 12.579C14.7953 12.9787 14.4607 13.0385 14.0417 12.9671C13.7483 12.913 13.4293 12.8773 13.5393 12.3463Z" fill="white"/>
</svg>
