<svg width="96" height="25" viewBox="0 0 96 25" fill="none" xmlns="http://www.w3.org/2000/svg">
<path d="M30 9.08467C30 10.4373 30.4113 11.5217 31.2338 12.339C32.0563 13.1558 33.1684 13.5647 34.5706 13.5647C35.9728 13.5647 36.9165 13.2198 37.6179 12.5294C38.3187 11.8337 38.6694 11.0279 38.6694 10.1114V10.0289H36.6408V10.1033C36.6408 10.473 36.4804 10.7903 36.1603 11.0556C35.8402 11.3204 35.3049 11.453 34.5539 11.453C33.7095 11.453 33.0911 11.246 32.6989 10.8318C32.3067 10.4177 32.1111 9.86566 32.1111 9.1758V8.72877C32.1111 8.03891 32.3101 7.48691 32.7075 7.07276C33.105 6.65861 33.7204 6.45154 34.5539 6.45154C35.2824 6.45154 35.8125 6.57843 36.1436 6.83223C36.4804 7.08603 36.6489 7.40615 36.6489 7.79262V7.87568H38.6775L38.6694 7.76781C38.6365 6.84607 38.2772 6.04546 37.5931 5.36656C36.9084 4.68189 35.9013 4.33984 34.5706 4.33984C33.1684 4.33984 32.0563 4.74822 31.2338 5.56556C30.4113 6.37713 30 7.46153 30 8.81991V9.08467Z" fill="#263238"/>
<path d="M40.3752 13.3163H42.4453V9.01559C42.4453 8.07366 42.8981 7.58625 43.273 7.3215C43.6485 7.05098 44.0765 6.916 44.5564 6.916C44.7052 6.916 44.8408 6.92408 44.9619 6.94081C45.0888 6.95753 45.2076 6.97657 45.3178 6.99849V4.46457C45.2624 4.44265 45.1661 4.41785 45.0283 4.39016C44.8956 4.36248 44.7658 4.34863 44.6389 4.34863C44.1475 4.34863 43.7085 4.4813 43.3221 4.74605C42.9742 4.98485 42.6933 5.26576 42.4793 5.58992C42.4574 5.62338 42.4049 5.60953 42.4026 5.56916L42.2215 4.58858H40.3746V13.3163H40.3752Z" fill="#263238"/>
<path d="M46.1633 9.08467C46.1633 10.4373 46.5913 11.5217 47.4467 12.339C48.3021 13.1558 49.4286 13.5647 50.8251 13.5647C52.2215 13.5647 53.3394 13.1564 54.1953 12.339C55.0565 11.5223 55.4868 10.4373 55.4868 9.08467V8.81991C55.4868 7.4621 55.0559 6.37713 54.1953 5.56556C53.3399 4.7488 52.2163 4.33984 50.8251 4.33984C49.4338 4.33984 48.3021 4.74822 47.4467 5.56556C46.5913 6.37713 46.1633 7.46153 46.1633 8.81991V9.08467ZM48.275 8.72877C48.275 7.97258 48.4959 7.42057 48.9372 7.07276C49.379 6.72494 50.0083 6.55132 50.8251 6.55132C51.6418 6.55132 52.263 6.72494 52.7049 7.07276C53.1519 7.42057 53.3757 7.97258 53.3757 8.72877V9.1758C53.3757 9.95968 53.1548 10.5198 52.7135 10.8566C52.2775 11.1877 51.6482 11.3533 50.8256 11.3533C50.0031 11.3533 49.3709 11.1877 48.9297 10.8566C48.4936 10.5198 48.2756 9.95968 48.2756 9.1758V8.72877H48.275Z" fill="#263238"/>
<path d="M56.4276 4.58838L59.0279 13.3161H61.383L63.2293 6.97867C63.2489 6.91061 63.3453 6.90945 63.3666 6.97752L65.3578 13.3172H67.7111L70.3275 4.58953H67.7671L66.4756 9.45029C66.4202 9.67121 66.3677 9.88924 66.3181 10.1044C66.2899 10.2399 66.2426 10.4551 66.2132 10.5912C66.2068 10.6212 66.1636 10.6218 66.1566 10.5912C66.1203 10.4355 66.0799 10.2728 66.0367 10.1038C65.9813 9.8829 65.9207 9.66487 65.8544 9.44972L64.4135 4.58896H61.9627C61.9627 4.58896 60.5154 9.5472 60.249 10.5353C60.2374 10.578 60.1769 10.5774 60.1659 10.5347L58.6674 4.58896H56.4282L56.4276 4.58838Z" fill="#263238"/>
<path d="M71.0041 9.08491C71.0041 10.3764 71.3548 11.4337 72.0556 12.2562C72.7622 13.073 73.7422 13.4819 74.9956 13.4819C75.6468 13.4819 76.2098 13.3631 76.6845 13.126C77.0145 12.9593 77.4378 12.5838 77.6709 12.3652C77.7655 12.7667 77.8935 13.3164 77.8935 13.3164H79.9452V0.622559H77.7856V5.64021C77.5099 5.25375 77.1454 4.95554 76.6926 4.74616C76.2404 4.53101 75.6907 4.42314 75.0452 4.42314C73.8305 4.42314 72.8534 4.83441 72.1139 5.65694C71.3739 6.4737 71.0041 7.5281 71.0041 8.82015V9.08491ZM73.1158 9.16739L73.1077 8.73709C73.1077 8.10779 73.301 7.59963 73.6869 7.21374C74.0733 6.82209 74.6726 6.62597 75.4842 6.62597C76.0523 6.62597 76.5357 6.75864 76.9331 7.02339C76.9372 7.02628 76.9412 7.02859 76.9452 7.03147C77.4765 7.38967 77.7856 7.99705 77.7856 8.63788V9.23776C77.7856 9.89647 77.4586 10.5183 76.9043 10.8742C76.9003 10.877 76.8956 10.8794 76.8916 10.8822C76.4665 11.147 75.9751 11.2797 75.4179 11.2797C74.6005 11.2797 74.0127 11.0835 73.654 10.6919C73.2952 10.3002 73.1158 9.79207 73.1158 9.16854V9.16739Z" fill="#263238"/>
<path d="M82.3978 13.3164H84.4599V4.58868H82.3978V13.3164ZM81.9594 2.20416C81.9594 2.57966 82.0863 2.88883 82.3401 3.13166C82.5997 3.36931 82.9636 3.48755 83.4332 3.48755C83.9027 3.48755 84.2557 3.36585 84.5095 3.12301C84.769 2.88017 84.8988 2.57389 84.8988 2.20416C84.8988 1.83442 84.7719 1.53621 84.5176 1.29338C84.2638 1.05054 83.8998 0.928833 83.4245 0.928833C82.9492 0.928833 82.5997 1.05054 82.3401 1.29338C82.0863 1.53621 81.9594 1.83961 81.9594 2.20416Z" fill="#263238"/>
<path d="M86.9604 13.3162H89.0224V9.77577C89.0224 7.77136 89.7308 6.50181 91.2743 6.50181C92.8178 6.50181 93.146 7.39874 93.146 8.65965V13.3162H95.2076V8.1411C95.2076 6.65639 94.9042 5.66544 94.2968 5.16823C93.6894 4.66583 92.9142 4.41492 91.9699 4.41492C91.3464 4.41492 90.7696 4.53086 90.2395 4.76273C89.7625 4.96865 89.3743 5.26109 89.0755 5.64063C89.0507 5.50624 88.9146 4.58911 88.9146 4.58911H86.9604V13.3168V13.3162Z" fill="#263238"/>
<path d="M30 19.9425C30 20.7399 30.2438 21.3857 30.7315 21.88C31.2192 22.3709 31.9045 22.6164 32.7876 22.6164C33.351 22.6164 33.837 22.5126 34.2456 22.305C34.6575 22.0974 34.9458 21.8486 35.1106 21.5587L34.2703 21.0298C34.1023 21.1089 33.8865 21.1896 33.6229 21.272C33.3626 21.3544 33.0644 21.3956 32.7283 21.3956C32.2044 21.3956 31.8205 21.2687 31.5767 21.015C31.3328 20.7613 31.2109 20.4203 31.2109 19.9919V19.73C31.2109 19.2917 31.3295 18.9457 31.5668 18.692C31.8073 18.435 32.1599 18.3065 32.6245 18.3065C33.1319 18.3065 33.4762 18.4087 33.6575 18.6129C33.8387 18.8139 33.931 19.0462 33.9342 19.3098L33.9293 19.2703H30.8254L30.8303 20.3527H35.1699V19.6954C35.1798 18.8914 34.9623 18.2604 34.5175 17.8024C34.0759 17.3411 33.4532 17.1104 32.6492 17.1104C31.8617 17.1104 31.2225 17.3559 30.7315 17.8469C30.2438 18.3378 30 18.9836 30 19.7843V19.9425Z" fill="#263238" fill-opacity="0.87"/>
<path d="M36.2523 22.4681H37.483V19.3049C37.6181 19.0512 37.8026 18.8485 38.0365 18.697C38.2705 18.5454 38.5341 18.4696 38.8273 18.4696C39.1503 18.4696 39.4172 18.5437 39.628 18.692C39.8389 18.837 39.9444 19.0545 39.9444 19.3444V22.4681H41.175V19.379C41.175 18.4927 40.9938 17.9012 40.6314 17.6047C40.2689 17.3048 39.806 17.1549 39.2425 17.1549C38.8702 17.1549 38.5259 17.2241 38.2095 17.3625C37.8965 17.4976 37.6477 17.6953 37.4632 17.9556H37.4484L37.4187 17.2587H36.2523V22.4681Z" fill="#263238" fill-opacity="0.87"/>
<path d="M41.8769 18.5487H45.1587V17.2587H41.8769V18.5487ZM42.7913 20.7926C42.7913 21.4944 42.9346 21.9739 43.2213 22.2309C43.5079 22.4846 43.8901 22.6114 44.3679 22.6114C44.5261 22.6114 44.6727 22.5999 44.8078 22.5768C44.9462 22.5571 45.0549 22.5307 45.134 22.4978V21.2819C45.0516 21.3116 44.9676 21.3363 44.8819 21.356C44.7996 21.3725 44.7155 21.3808 44.6299 21.3808C44.4322 21.3808 44.2806 21.3198 44.1752 21.1979C44.073 21.076 44.0219 20.8651 44.0219 20.5652V16.0033H42.7962V17.8123L42.7913 17.9259V20.7926Z" fill="#263238" fill-opacity="0.87"/>
<path d="M45.8754 19.9425C45.8754 20.7399 46.1192 21.3857 46.6069 21.88C47.0945 22.3709 47.7799 22.6164 48.663 22.6164C49.2264 22.6164 49.7124 22.5126 50.121 22.305C50.5329 22.0974 50.8212 21.8486 50.986 21.5587L50.1457 21.0298C49.9777 21.1089 49.7619 21.1896 49.4983 21.272C49.2379 21.3544 48.9398 21.3956 48.6037 21.3956C48.0798 21.3956 47.6959 21.2687 47.4521 21.015C47.2082 20.7613 47.0863 20.4203 47.0863 19.9919V19.73C47.0863 19.2917 47.2049 18.9457 47.4422 18.692C47.6827 18.435 48.0353 18.3065 48.4999 18.3065C49.0073 18.3065 49.3516 18.4087 49.5329 18.6129C49.7141 18.8139 49.8063 19.0462 49.8096 19.3098L49.8047 19.2703H46.7008L46.7057 20.3527H51.0453V19.6954C51.0552 18.8914 50.8377 18.2604 50.3929 17.8024C49.9513 17.3411 49.3286 17.1104 48.5246 17.1104C47.7371 17.1104 47.0978 17.3559 46.6069 17.8469C46.1192 18.3378 45.8754 18.9836 45.8754 19.7843V19.9425Z" fill="#263238" fill-opacity="0.87"/>
<path d="M52.1277 22.4681H53.3633V19.4878C53.4687 19.2472 53.6335 19.0479 53.8576 18.8897C54.0816 18.7283 54.337 18.6475 54.6237 18.6475C54.7126 18.6475 54.7933 18.6525 54.8658 18.6624C54.9416 18.6723 55.0125 18.6838 55.0784 18.697V17.1846C55.0454 17.1714 54.9878 17.1565 54.9054 17.1401C54.8263 17.1236 54.7489 17.1154 54.6731 17.1154C54.3798 17.1154 54.1179 17.1944 53.8872 17.3526C53.6566 17.5108 53.4753 17.7002 53.3435 17.921H53.3238L53.2991 17.2587H52.1277V22.4681Z" fill="#263238" fill-opacity="0.87"/>
<path d="M55.9927 24.5242H57.2234V21.8157C57.3519 22.0299 57.5612 22.2095 57.8511 22.3544C58.1444 22.4961 58.5052 22.567 58.9335 22.567C59.6057 22.567 60.1626 22.3248 60.6041 21.8404C61.0456 21.356 61.2664 20.7234 61.2664 19.9425V19.7843C61.2664 18.9968 61.0506 18.3625 60.6189 17.8814C60.1873 17.3971 59.6222 17.1549 58.9236 17.1549C58.4986 17.1549 58.1328 17.2406 57.8264 17.4119C57.5233 17.58 57.3124 17.7842 57.1938 18.0248H57.174L57.1443 17.2587H55.9927V24.5242ZM57.2185 20.3428V19.3889C57.3272 19.1484 57.4969 18.9359 57.7276 18.7513C57.9615 18.5668 58.2597 18.4746 58.6222 18.4746C59.0736 18.4746 59.4163 18.5816 59.6502 18.7958C59.8874 19.0067 60.0061 19.3181 60.0061 19.73V19.9969C60.0061 20.3824 59.8825 20.6888 59.6354 20.9162C59.3915 21.1402 59.0571 21.2523 58.632 21.2523C58.3157 21.2523 58.0274 21.1633 57.7671 20.9854C57.5101 20.8074 57.3272 20.5932 57.2185 20.3428Z" fill="#263238" fill-opacity="0.87"/>
<path d="M62.3982 22.4681H63.6339V19.4878C63.7393 19.2472 63.9041 19.0479 64.1281 18.8897C64.3522 18.7283 64.6075 18.6475 64.8942 18.6475C64.9832 18.6475 65.0639 18.6525 65.1364 18.6624C65.2122 18.6723 65.283 18.6838 65.3489 18.697V17.1846C65.316 17.1714 65.2583 17.1565 65.1759 17.1401C65.0969 17.1236 65.0194 17.1154 64.9436 17.1154C64.6504 17.1154 64.3884 17.1944 64.1578 17.3526C63.9271 17.5108 63.7459 17.7002 63.6141 17.921H63.5943L63.5696 17.2587H62.3982V22.4681Z" fill="#263238" fill-opacity="0.87"/>
<path d="M66.3078 22.4681H67.5385V17.2587H66.3078V22.4681ZM66.0458 15.8352C66.0458 16.0593 66.1216 16.2438 66.2732 16.3888C66.428 16.5305 66.6455 16.6013 66.9256 16.6013C67.2024 16.6013 67.4165 16.5288 67.5681 16.3839C67.723 16.2389 67.8004 16.056 67.8004 15.8352C67.8004 15.6178 67.7246 15.4365 67.5731 15.2916C67.4215 15.1466 67.204 15.0741 66.9207 15.0741C66.6439 15.0741 66.428 15.1466 66.2732 15.2916C66.1216 15.4365 66.0458 15.6178 66.0458 15.8352Z" fill="#263238" fill-opacity="0.87"/>
<path d="M68.6901 20.7283V20.7827C68.6901 21.4121 68.901 21.875 69.3227 22.1716C69.7478 22.4681 70.3541 22.6164 71.1416 22.6164C71.9357 22.6164 72.5354 22.4698 72.9406 22.1765C73.3492 21.88 73.5535 21.4747 73.5535 20.9606C73.5535 20.5125 73.4003 20.1682 73.0939 19.9277C72.7874 19.6838 72.2701 19.4911 71.5419 19.3494C70.9192 19.2308 70.56 19.1187 70.4644 19.0133C70.3722 18.9046 70.326 18.7826 70.326 18.6475C70.326 18.5092 70.4002 18.4054 70.5485 18.3362C70.7 18.2637 70.9389 18.2274 71.2651 18.2274C71.5979 18.2274 71.8467 18.2867 72.0114 18.4054C72.1795 18.5207 72.2635 18.6788 72.2635 18.8798V18.9589H73.4744V18.8749C73.4744 18.3741 73.2701 17.9539 72.8616 17.6146C72.4563 17.2752 71.9027 17.1071 71.2009 17.1104C70.5056 17.1104 69.9455 17.2406 69.5204 17.5009C69.0987 17.7612 68.8878 18.1549 68.8878 18.6821C68.8878 19.0841 69.036 19.407 69.3326 19.6509C69.6324 19.8947 70.102 20.0776 70.7412 20.1995C71.3244 20.3049 71.7034 20.4137 71.878 20.5257C72.0559 20.6344 72.1449 20.7778 72.1449 20.9557C72.1449 21.1369 72.0493 21.272 71.8582 21.361C71.6704 21.45 71.4085 21.4944 71.0724 21.4944C70.7396 21.4944 70.4611 21.4401 70.2371 21.3313C70.013 21.2193 69.901 21.043 69.901 20.8025V20.7283H68.6901Z" fill="#263238" fill-opacity="0.87"/>
<path d="M74.4333 19.9425C74.4333 20.7399 74.6771 21.3857 75.1648 21.88C75.6524 22.3709 76.3378 22.6164 77.2209 22.6164C77.7843 22.6164 78.2703 22.5126 78.6789 22.305C79.0908 22.0974 79.3791 21.8486 79.5439 21.5587L78.7036 21.0298C78.5356 21.1089 78.3198 21.1896 78.0562 21.272C77.7958 21.3544 77.4976 21.3956 77.1616 21.3956C76.6376 21.3956 76.2538 21.2687 76.01 21.015C75.7661 20.7613 75.6442 20.4203 75.6442 19.9919V19.73C75.6442 19.2917 75.7628 18.9457 76.0001 18.692C76.2406 18.435 76.5932 18.3065 77.0578 18.3065C77.5652 18.3065 77.9095 18.4087 78.0908 18.6129C78.272 18.8139 78.3642 19.0462 78.3675 19.3098L78.3626 19.2703H75.2587L75.2636 20.3527H79.6032V19.6954C79.613 18.8914 79.3956 18.2604 78.9507 17.8024C78.5092 17.3411 77.8865 17.1104 77.0825 17.1104C76.295 17.1104 75.6557 17.3559 75.1648 17.8469C74.6771 18.3378 74.4333 18.9836 74.4333 19.7843V19.9425Z" fill="#263238" fill-opacity="0.87"/>
<path d="M16.5766 24.25H7.42342C4.89084 24.25 3.11311 23.4308 2.04301 22.0422C1.21893 20.9728 0.75 19.486 0.75 17.5766V8.42342C0.75 6.51404 1.21893 5.02718 2.04301 3.9578C3.11311 2.56916 4.89084 1.75 7.42342 1.75H16.5766C19.2005 1.75 20.9704 2.55792 22.0144 3.94998C22.8054 5.00483 23.25 6.48377 23.25 8.42342V17.5766C23.25 19.5162 22.8054 20.9952 22.0144 22.05C20.9704 23.4421 19.2005 24.25 16.5766 24.25Z" fill="white" stroke="#263238" stroke-width="1.5"/>
<path d="M14.7932 17.2069C14.3689 17.2069 13.99 17.078 13.6776 16.8258C13.3032 16.5298 13.0063 16.087 12.9964 15.5669C12.9919 15.3046 13.2744 15.3046 13.2744 15.3046C13.2744 15.3046 13.7341 15.299 13.9557 15.299C14.1773 15.3046 14.2437 15.6184 14.2537 15.6958C14.339 16.4009 14.7334 16.7081 15.0358 16.8482C15.2175 16.9323 15.172 17.1957 14.7932 17.2069Z" fill="#263238"/>
<path d="M10.9813 13.6264C10.608 13.5816 10.0519 13.5435 9.69408 13.4538C9.1136 13.3092 9.12801 12.7812 9.15348 12.6085C9.22438 12.0917 9.41049 11.6131 9.69851 11.1691C10.0574 10.6243 10.5714 10.1468 11.2339 9.75777C12.4757 9.0291 14.2127 8.62329 16.1203 8.62329C17.5183 8.62329 18.9773 8.80602 18.9928 8.80602C19.1246 8.82283 19.2199 8.95063 19.2143 9.09524C19.2088 9.23985 19.108 9.35084 18.9773 9.36205C18.7646 9.35644 18.5574 9.35644 18.3613 9.35644C16.4183 9.35644 15.0347 9.62324 14.0044 10.2017C12.9897 10.7678 12.283 11.6366 11.8033 12.9202C11.7534 13.0312 11.5862 13.6926 10.9802 13.6264H10.9813Z" fill="#263238"/>
<path d="M12.6774 18.9254C11.7137 18.9467 10.8042 18.5039 10.1162 17.7349C9.53355 17.0836 9.18239 16.4267 9.11703 15.5837C9.07715 15.0332 9.31754 14.8427 9.64433 14.8763C9.87032 14.8987 10.5738 14.9323 10.9748 15.0164C11.2761 15.0781 11.4766 15.2462 11.5264 15.5949C11.7923 17.449 12.9477 18.1788 13.6357 18.3358C13.7564 18.3638 13.8317 18.4423 13.8262 18.5835C13.8218 18.718 13.7431 18.903 12.6763 18.9265H12.6774V18.9254Z" fill="#263238"/>
<path d="M9.93009 20.5712C9.24659 20.6003 8.57638 20.4613 8.38584 20.4254C7.58049 20.2808 6.90696 20.0308 6.3287 19.6609C4.94509 18.7742 4.10982 17.2092 4.01012 15.3539C3.98464 14.9134 3.92925 14.0726 4.96613 14.1365C5.39374 14.1589 6.0728 14.3686 6.55026 14.5076C7.14403 14.6757 7.43094 15.1398 7.43094 15.5972C7.43094 18.2114 9.77057 19.9389 10.7908 19.9389C11.0345 19.9389 11.0921 20.0858 11.0633 20.2259C11.0401 20.338 10.978 20.5263 9.9312 20.5712H9.93009Z" fill="#263238"/>
<path d="M6.36197 12.8887C5.95763 12.8148 5.56215 12.6466 5.17886 12.5502C3.99022 12.2509 4.19294 11.0368 4.30372 10.7039C5.38602 7.48092 8.82013 6.40138 11.5929 6.11439C14.2028 5.84311 16.9346 6.05162 19.4792 6.76907C19.6608 6.8184 20.1616 6.94059 20.0541 7.23766C19.9467 7.53473 19.6453 7.32734 16.8692 7.26681C15.9531 7.24551 15.0403 7.30492 14.1231 7.44729C12.55 7.68943 10.9316 8.19277 9.63102 9.25326C9.00402 9.76669 8.45235 10.4214 8.08346 11.1949C7.98708 11.3978 7.91175 11.6018 7.84639 11.8047C7.78103 12.0188 7.53289 13.0973 6.36419 12.8887H6.36197Z" fill="#263238"/>
<path d="M13.0163 13.5109C13.239 12.502 14.2294 10.9034 17.2935 11.0144C17.9958 11.0368 17.6745 11.5211 17.3278 11.5099C15.5952 11.4494 14.7744 12.5793 14.3435 13.7262C14.205 14.095 13.8882 14.1499 13.4927 14.0849C13.2157 14.0356 12.9133 14.0019 13.0174 13.512L13.0163 13.5109Z" fill="#263238"/>
</svg>
