<svg width="128" height="128" viewBox="0 0 128 128" fill="none" xmlns="http://www.w3.org/2000/svg">
<g clip-path="url(#clip0_14524_100663)">
<path d="M0 7.00001C0 4.79087 1.79203 2.99917 4.00116 2.99346C25.6633 2.93739 44.6861 2.80179 64 15C83.1221 2.59647 102.407 2.91325 123.999 2.99133C126.208 2.99932 128 4.79087 128 7.00001V63.5V111.742C128 113.639 126.668 115.281 124.802 115.623C104.16 119.409 83.6703 118.86 64 127.5C44.3297 118.86 23.8401 119.409 3.19836 115.623C1.33243 115.281 0 113.639 0 111.742V63.5L0 7.00001Z" fill="#263238"/>
<path d="M78.4577 82.3445C78.4176 81.913 78.056 80.2653 76.891 80.2261C75.726 80.2261 73.2755 80.2261 73.2755 80.2261C73.2755 80.2261 71.7891 80.2261 71.7891 81.6384C71.8293 84.3846 73.4362 86.7384 75.4046 88.3077C77.0517 89.6415 79.0603 90.3477 81.3502 90.3477C83.3588 90.3085 83.5998 88.8961 82.6357 88.4646C81.0288 87.7192 78.9398 86.0715 78.4979 82.3445H78.4577Z" fill="white"/>
<path d="M89.2641 44.526C84.0848 44.526 78.9054 45.1524 74.1995 46.2844C69.7073 47.3649 65.6465 48.9062 62.4289 50.803C58.8937 52.8822 56.162 55.393 54.2739 58.2961C52.7473 60.65 51.743 63.2 51.3815 65.9462C51.261 66.8485 51.1806 69.6731 54.2337 70.4185C56.1218 70.8893 59.0946 71.0855 61.063 71.3208C64.2768 71.6739 65.1606 68.1824 65.4418 67.5939C67.9727 60.7677 71.7489 56.1776 77.132 53.1568C80.4156 51.3178 84.3811 50.0738 89.2641 49.374C92.5059 48.9093 96.152 48.6845 100.271 48.6845C101.637 48.6845 104.811 48.8414 104.811 47.3114C104.811 46.1372 102.314 45.4651 99.3073 45.0803C95.2825 44.5652 90.3449 44.5652 89.2641 44.5652V44.526Z" fill="white"/>
<path d="M75.1636 96.3502C71.5079 95.5263 65.3615 91.6425 63.9555 81.7954C63.6743 79.9516 62.6298 79.0493 61.0229 78.7354C58.8937 78.3039 55.1577 78.1077 53.9525 77.99C52.2251 77.8331 50.9396 78.8139 51.1405 81.7562C51.502 86.2286 53.3499 89.7201 56.4432 93.1725C60.0989 97.2525 64.9196 99.6064 70.0617 99.4887C75.726 99.371 76.1277 98.3902 76.1679 97.6448C76.1679 96.8994 75.8064 96.4679 75.1636 96.311V96.3502Z" fill="white"/>
<path d="M59.7775 104.589C54.1132 104.589 42.2221 95.7225 42.2221 81.8347C42.2221 79.4023 40.6956 76.9308 37.5621 76.0285C35.0313 75.2831 31.4157 74.1846 29.1259 74.0669C23.6223 73.7138 23.9035 78.1862 24.0642 80.54C24.5864 90.387 29.0456 98.704 36.3971 103.412C39.4502 105.373 43.0658 106.707 47.324 107.492C48.3284 107.688 51.9037 108.394 55.5192 108.276C61.1032 108.041 61.6656 106.472 61.6656 105.844C61.6656 105.02 61.063 104.628 59.7775 104.628V104.589Z" fill="white"/>
<path d="M106.217 34.9142C103.941 34.2724 101.635 33.7077 99.3075 33.219C95.9952 32.5234 92.6395 31.9819 89.2644 31.5917C80.9479 30.6302 72.5131 30.5874 64.3171 31.4226C57.0941 32.1722 49.0324 33.9292 42.0118 37.5426C34.7021 41.3048 28.5211 47.0794 25.5908 55.8243C24.9882 57.5897 23.9035 64.0629 30.2508 65.6321C32.2996 66.1421 34.3886 67.0444 36.5579 67.4367C42.7444 68.5352 44.0701 62.8075 44.4317 61.6698C44.7932 60.5713 45.195 59.5121 45.677 58.4136C47.6455 54.2943 50.5781 50.8028 53.9124 48.0958C60.8221 42.4465 69.419 39.7788 77.7748 38.4842C82.6357 37.7388 87.4966 37.4249 92.3575 37.5426C95.104 37.6011 97.3946 37.6868 99.3075 37.7774C101.399 37.8765 103.038 37.9814 104.329 38.063C108.195 38.3075 108.927 38.3431 109.27 37.3857C109.832 35.8165 107.181 35.1495 106.217 34.9142Z" fill="white"/>
<path d="M93.6429 57.3936C77.3329 57.3936 73.0746 65.3967 71.8694 70.7321C71.307 73.3214 72.9139 73.5175 74.4003 73.7922C76.4893 74.1452 78.1765 73.8314 78.9398 71.8698C81.2296 65.789 84.3631 59.8259 94.2857 59.8259C95.29 59.8259 96.1738 59.1982 96.1738 58.6097C96.1738 58.0213 95.531 57.3936 93.6831 57.3936H93.6429Z" fill="white"/>
</g>
<defs>
<clipPath id="clip0_14524_100663">
<rect width="128" height="128" fill="white"/>
</clipPath>
</defs>
</svg>
