<svg width="180" height="118" viewBox="0 0 180 118" fill="none" xmlns="http://www.w3.org/2000/svg">
<path d="M2.23474 99.8912C2.23474 103.531 3.34181 106.449 5.55596 108.649C7.7701 110.847 10.7637 111.947 14.5383 111.947C18.3129 111.947 20.8531 111.019 22.7412 109.161C24.6277 107.289 25.5717 105.121 25.5717 102.654V102.432H20.1109V102.632C20.1109 103.627 19.6793 104.481 18.8175 105.195C17.9558 105.908 16.5149 106.265 14.4933 106.265C12.2201 106.265 10.5556 105.707 9.4998 104.593C8.44397 103.478 7.9176 101.993 7.9176 100.136V98.9335C7.9176 97.0771 8.45328 95.5916 9.52309 94.4771C10.5929 93.3626 12.2496 92.8054 14.4933 92.8054C16.4543 92.8054 17.8812 93.1468 18.7725 93.8298C19.6793 94.5128 20.1326 95.3743 20.1326 96.4143V96.6378H25.5935L25.5717 96.3475C25.4832 93.8671 24.5159 91.7126 22.6744 89.8856C20.8314 88.0431 18.1204 87.1227 14.5383 87.1227C10.7637 87.1227 7.7701 88.2217 5.55596 90.4211C3.34181 92.6051 2.23474 95.5233 2.23474 99.1788V99.8912Z" fill="#263238"/>
<path d="M30.1633 111.279H35.7359V99.7052C35.7359 97.1705 36.9548 95.8588 37.964 95.1464C38.9748 94.4184 40.1269 94.0552 41.4188 94.0552C41.8194 94.0552 42.1843 94.0769 42.5103 94.1219C42.8519 94.1669 43.1718 94.2181 43.4683 94.2771V87.4582C43.3193 87.3993 43.06 87.3325 42.6889 87.258C42.3318 87.1835 41.9824 87.1462 41.6408 87.1462C40.3179 87.1462 39.1363 87.5033 38.096 88.2157C37.1597 88.8583 36.4036 89.6143 35.8275 90.4866C35.7685 90.5766 35.6272 90.5394 35.621 90.4307L35.1335 87.792H30.1617V111.279H30.1633Z" fill="#263238"/>
<path d="M45.7443 99.8912C45.7443 103.531 46.8964 106.449 49.199 108.649C51.5017 110.847 54.5341 111.947 58.2931 111.947C62.0522 111.947 65.0613 110.848 67.3655 108.649C69.6837 106.451 70.842 103.531 70.842 99.8912V99.1788C70.842 95.5248 69.6821 92.6051 67.3655 90.4211C65.0629 88.2232 62.0382 87.1227 58.2931 87.1227C54.548 87.1227 51.5017 88.2217 49.199 90.4211C46.8964 92.6051 45.7443 95.5233 45.7443 99.1788V99.8912ZM51.4287 98.9335C51.4287 96.8986 52.0234 95.4131 53.2112 94.4771C54.4005 93.5411 56.0945 93.0739 58.2931 93.0739C60.4917 93.0739 62.164 93.5411 63.3534 94.4771C64.5567 95.4131 65.1592 96.8986 65.1592 98.9335V100.136C65.1592 102.246 64.5645 103.753 63.3767 104.66C62.2028 105.551 60.5088 105.996 58.2947 105.996C56.0805 105.996 54.3788 105.551 53.191 104.66C52.0171 103.753 51.4302 102.246 51.4302 100.136V98.9335H51.4287Z" fill="#263238"/>
<path d="M73.3746 87.7915L80.3742 111.278H86.7138L91.684 94.2239C91.7368 94.0407 91.9961 94.0376 92.0535 94.2208L97.4134 111.281H103.748L110.791 87.7946H103.899L100.423 100.875C100.273 101.47 100.132 102.056 99.9987 102.635C99.9226 103 99.7953 103.579 99.7161 103.945C99.699 104.026 99.5826 104.028 99.5639 103.945C99.4661 103.526 99.3574 103.089 99.241 102.634C99.0919 102.039 98.9289 101.453 98.7503 100.874L94.8717 87.7931H88.2743C88.2743 87.7931 84.3786 101.136 83.6612 103.795C83.6302 103.91 83.4671 103.908 83.4376 103.793L79.4037 87.7931H73.3762L73.3746 87.7915Z" fill="#263238"/>
<path d="M112.613 99.892C112.613 103.367 113.557 106.213 115.443 108.426C117.345 110.624 119.983 111.725 123.357 111.725C125.11 111.725 126.626 111.405 127.904 110.767C128.792 110.318 129.932 109.308 130.559 108.719C130.813 109.8 131.158 111.279 131.158 111.279H136.681V77.1194H130.868V90.6221C130.126 89.5821 129.144 88.7797 127.925 88.2162C126.708 87.6372 125.228 87.347 123.491 87.347C120.221 87.347 117.591 88.4537 115.6 90.6671C113.608 92.8651 112.613 95.7025 112.613 99.1795V99.892ZM118.297 100.114L118.275 98.956C118.275 97.2625 118.796 95.895 119.834 94.8566C120.875 93.8026 122.488 93.2749 124.673 93.2749C126.202 93.2749 127.503 93.6319 128.573 94.3444C128.584 94.3521 128.595 94.3583 128.606 94.3661C130.036 95.33 130.868 96.9645 130.868 98.689V100.303C130.868 102.076 129.987 103.749 128.495 104.707C128.484 104.715 128.472 104.721 128.461 104.729C127.317 105.441 125.994 105.798 124.494 105.798C122.294 105.798 120.712 105.27 119.746 104.216C118.78 103.163 118.297 101.795 118.297 100.117V100.114Z" fill="#263238"/>
<path d="M143.283 111.279H148.834V87.7924H143.283V111.279ZM142.103 81.3756C142.103 82.3861 142.445 83.218 143.128 83.8715C143.827 84.511 144.806 84.8292 146.07 84.8292C147.334 84.8292 148.284 84.5017 148.967 83.8482C149.666 83.1948 150.016 82.3705 150.016 81.3756C150.016 80.3806 149.674 79.5781 148.989 78.9246C148.306 78.2711 147.326 77.9436 146.047 77.9436C144.767 77.9436 143.827 78.2711 143.128 78.9246C142.445 79.5781 142.103 80.3946 142.103 81.3756Z" fill="#263238"/>
<path d="M155.565 111.279H161.116V101.751C161.116 96.3573 163.023 92.9409 167.178 92.9409C171.333 92.9409 172.216 95.3546 172.216 98.7477V111.279H177.765V97.3523C177.765 93.3569 176.949 90.6902 175.314 89.3521C173.679 88.0002 171.592 87.325 169.05 87.325C167.372 87.325 165.819 87.6369 164.392 88.2609C163.108 88.8151 162.063 89.6021 161.259 90.6234C161.192 90.2617 160.825 87.7937 160.825 87.7937H155.565V111.28V111.279Z" fill="#263238"/>
<path d="M104.286 68.5504H75.7142C63.5714 68.5504 55.7142 60.6957 55.7142 48.5566V19.7751C55.7142 7.85474 63.5714 0 75.4954 0H104.286C116.429 0 124.286 7.85474 124.286 19.9939V48.5566C124.286 60.6957 116.429 68.5504 104.286 68.5504Z" fill="#263238"/>
<path d="M99.7686 46.7035C98.4856 46.7035 97.3424 46.3054 96.3961 45.5256C95.2655 44.6077 94.3668 43.2391 94.3351 41.6302C94.3192 40.8176 95.1734 40.8176 95.1734 40.8176C95.1734 40.8176 96.5612 40.8011 97.2344 40.8011C97.9077 40.8176 98.1046 41.7882 98.1363 42.0316C98.3967 44.2129 99.5876 45.1637 100.502 45.598C101.052 45.8579 100.915 46.6706 99.7686 46.7068V46.7035Z" fill="white"/>
<path d="M88.2473 35.6194C87.1168 35.4813 85.44 35.3628 84.3571 35.0864C82.601 34.639 82.6486 33.0038 82.7248 32.4709C82.9376 30.8719 83.5029 29.3914 84.373 28.0162C85.4559 26.3316 87.012 24.8511 89.0126 23.647C92.7663 21.3933 98.5187 19.9939 104.286 19.9939C105.354 19.9939 113.135 19.9939 113.135 21.6006C113.135 22.4931 111.338 22.4099 110.556 22.4099C104.681 22.4099 100.499 23.2357 97.3868 25.0255C94.3191 26.7791 92.1819 29.4638 90.7338 33.4381C90.5814 33.7836 90.0765 35.83 88.2473 35.6227V35.6194Z" fill="white"/>
<path d="M93.3727 52.0202C90.4574 52.0827 87.7105 50.7173 85.6304 48.3353C83.868 46.3185 82.8073 44.2853 82.6104 41.6763C82.4897 39.9721 83.2169 39.3831 84.2046 39.4851C84.8873 39.5542 87.0119 39.6595 88.2281 39.9194C89.1395 40.1102 89.7461 40.6334 89.8985 41.7092C90.702 47.447 94.1952 49.704 96.2752 50.1909C96.6404 50.2765 96.8659 50.5199 96.8532 50.9575C96.8373 51.3753 96.6055 51.9478 93.3759 52.0169L93.3727 52.0202Z" fill="white"/>
<path d="M85.0683 57.1134C83.001 57.2022 80.9781 56.7712 80.4001 56.6659C77.9676 56.2185 75.9288 55.4453 74.1822 54.2971C69.9998 51.5532 67.4752 46.707 67.1735 40.9691C67.0973 39.607 66.929 37.0046 70.0633 37.202C71.3558 37.2744 73.4073 37.9193 74.8522 38.3503C76.6465 38.8701 77.5134 40.3045 77.5134 41.7225C77.5134 49.8128 84.2857 54.9831 87.5 54.9831C88.2367 54.9831 88.5714 55.2218 88.5714 55.6972C88.5714 56.0542 88.2376 56.9785 85.0715 57.1166L85.0683 57.1134Z" fill="white"/>
<path d="M74.2802 33.339C73.0576 33.112 71.8635 32.5889 70.7012 32.2895C67.1064 31.365 67.7193 27.6078 68.0559 26.578C71.3268 16.6026 81.7112 13.2665 90.0918 12.3749C97.9833 11.5359 106.24 12.1841 113.931 14.4015C114.481 14.5529 115.996 14.9312 115.669 15.8525C115.341 16.7737 114.43 16.1321 106.04 15.9413C103.274 15.8788 100.511 16.0597 97.7388 16.5006C92.9816 17.2507 88.0911 18.8069 84.1597 22.0904C82.2638 23.6795 80.5966 25.7061 79.4819 28.1013C79.1898 28.7297 78.9611 29.3581 78.7642 29.9865C78.5642 30.6511 77.8147 33.9872 74.2834 33.3423L74.2802 33.339Z" fill="white"/>
<path d="M94.3984 35.2643C95.0716 32.1421 97.4999 27.4916 106.786 27.4916C107.857 27.4916 108.214 27.8486 108.214 28.2056C108.214 28.5627 107.714 28.9197 107.143 28.9197C101.5 28.9197 99.7081 32.3822 98.4061 35.9289C97.9869 37.0705 97.031 37.2416 95.8338 37.0376C94.9954 36.883 94.084 36.781 94.3984 35.2643Z" fill="white"/>
</svg>
