<svg width="131" height="36" viewBox="0 0 131 36" fill="none" xmlns="http://www.w3.org/2000/svg">
<rect width="131" height="36" rx="12" fill="white"/>
<path d="M36 19.0117C36 20.7955 36.5426 22.2255 37.6267 23.3039C38.7119 24.3812 40.1781 24.9204 42.0275 24.9204C43.8769 24.9204 45.1215 24.4649 46.0462 23.5549C46.9709 22.6381 47.4332 21.5743 47.4332 20.3659V20.2563H44.7575V20.3546C44.7575 20.8418 44.5461 21.2612 44.1244 21.6105C43.7016 21.9598 42.9963 22.135 42.006 22.135C40.8925 22.135 40.0763 21.8615 39.5597 21.3155C39.0431 20.7695 38.7843 20.0415 38.7843 19.1315V18.5414C38.7843 17.6314 39.0465 16.9034 39.571 16.3574C40.0956 15.8114 40.9072 15.5378 42.006 15.5378C42.9669 15.5378 43.6655 15.7051 44.1029 16.0397C44.5472 16.3744 44.7688 16.7971 44.7688 17.307V17.4166H47.4445L47.4332 17.2742C47.3891 16.0578 46.9166 15.0031 46.0134 14.1067C45.1102 13.2035 43.7819 12.7524 42.0275 12.7524C40.1781 12.7524 38.7108 13.2917 37.6267 14.369C36.5415 15.4395 36 16.8695 36 18.6612V19.0105V19.0117Z" fill="#263238"/>
<path d="M49.6839 24.5926H52.4139V18.9201C52.4139 17.6777 53.0107 17.0356 53.5059 16.6852C54.001 16.328 54.5651 16.1505 55.1981 16.1505C55.3948 16.1505 55.5734 16.1618 55.7328 16.1833C55.9001 16.2048 56.0573 16.2308 56.2019 16.2602V12.9186C56.1296 12.8892 56.0019 12.8564 55.8199 12.8203C55.6446 12.7841 55.474 12.766 55.3066 12.766C54.6589 12.766 54.0801 12.9412 53.5703 13.2905C53.1113 13.6048 52.7406 13.9767 52.4591 14.4029C52.4297 14.4469 52.3607 14.4289 52.3573 14.3757L52.1188 13.0825H49.6827V24.5926H49.6839Z" fill="#263238"/>
<path d="M57.3177 19.0117C57.3177 20.7955 57.8818 22.2255 59.0099 23.3039C60.1381 24.3812 61.6235 24.9205 63.4661 24.9205C65.3087 24.9205 66.7828 24.3812 67.911 23.3039C69.0471 22.2266 69.6145 20.7955 69.6145 19.0117V18.6624C69.6145 16.8718 69.0471 15.4406 67.911 14.3701C66.7828 13.2928 65.3008 12.7536 63.4661 12.7536C61.6314 12.7536 60.1393 13.2928 59.0099 14.3701C57.8818 15.4406 57.3177 16.8706 57.3177 18.6624V19.0117ZM60.1019 18.5426C60.1019 17.5455 60.3936 16.8175 60.9758 16.3586C61.5579 15.8996 62.3877 15.6701 63.4661 15.6701C64.5446 15.6701 65.363 15.8996 65.9452 16.3586C66.5352 16.8175 66.8303 17.5455 66.8303 18.5426V19.1326C66.8303 20.167 66.5386 20.9052 65.9565 21.3494C65.3811 21.7858 64.5513 22.0051 63.4661 22.0051C62.3809 22.0051 61.5478 21.7869 60.9656 21.3494C60.3902 20.9052 60.1031 20.1659 60.1031 19.1326V18.5426H60.1019Z" fill="#263238"/>
<path d="M70.8546 13.0803L74.2832 24.5904H77.3885L79.8235 16.2319C79.8495 16.1426 79.9761 16.1404 80.0043 16.2297L82.6303 24.5904H85.7345L89.1857 13.0803H85.8091L84.1056 19.491C84.0332 19.7826 83.9631 20.0698 83.8976 20.3535C83.8603 20.5321 83.7981 20.8158 83.7585 20.9956C83.7495 21.0352 83.693 21.0363 83.6839 20.9956C83.6353 20.7898 83.5833 20.5762 83.5256 20.3524C83.4533 20.0607 83.373 19.7736 83.2849 19.4899L81.3846 13.0792H78.1516C78.1516 13.0792 76.2434 19.6187 75.8907 20.9221C75.876 20.9786 75.7957 20.9775 75.781 20.9221L73.805 13.0803H70.8524H70.8546Z" fill="#263238"/>
<path d="M90.0799 19.0117C90.0799 20.7152 90.5423 22.109 91.467 23.1943C92.3984 24.2716 93.6917 24.8108 95.3443 24.8108C96.2035 24.8108 96.9462 24.6548 97.5713 24.3417C98.0065 24.1212 98.565 23.6272 98.8724 23.339C98.9979 23.868 99.1663 24.5937 99.1663 24.5937H101.873V7.85089H99.0239V14.4684C98.6599 13.9586 98.1795 13.5652 97.5826 13.2894C96.9857 13.0057 96.2611 12.8632 95.4099 12.8632C93.8081 12.8632 92.5194 13.4058 91.5438 14.4899C90.5683 15.5672 90.0799 16.9577 90.0799 18.6612V19.0105V19.0117ZM92.8653 19.1213L92.8551 18.5538C92.8551 17.7241 93.1095 17.0538 93.6193 16.5439C94.1291 16.0273 94.9193 15.7684 95.9898 15.7684C96.7393 15.7684 97.3769 15.9437 97.9003 16.293C97.9059 16.2964 97.9104 16.2998 97.9161 16.3031C98.617 16.7757 99.025 17.576 99.025 18.4216V19.2129C99.025 20.0822 98.5943 20.9017 97.863 21.3709C97.8573 21.3743 97.8517 21.3777 97.846 21.3811C97.2853 21.7304 96.6376 21.9056 95.9028 21.9056C94.8243 21.9056 94.05 21.6467 93.5764 21.1301C93.1027 20.6135 92.8664 19.9431 92.8664 19.1202L92.8653 19.1213Z" fill="#263238"/>
<path d="M105.106 24.5926H107.826V13.0814H105.106V24.5915V24.5926ZM104.528 9.93654C104.528 10.4317 104.695 10.8398 105.03 11.1597C105.373 11.4728 105.852 11.6288 106.471 11.6288C107.091 11.6288 107.557 11.4683 107.891 11.1484C108.234 10.8285 108.404 10.4238 108.404 9.93654C108.404 9.44932 108.237 9.05593 107.901 8.73489C107.567 8.41498 107.086 8.25446 106.46 8.25446C105.834 8.25446 105.373 8.41498 105.03 8.73489C104.695 9.0548 104.528 9.45611 104.528 9.93654Z" fill="#263238"/>
<path d="M111.123 24.5926H113.843V19.9239C113.843 17.2809 114.778 15.6056 116.812 15.6056C118.847 15.6056 119.281 16.7892 119.281 18.4509V24.5926H122V17.767C122 15.8091 121.6 14.5012 120.798 13.8467C119.997 13.1842 118.975 12.853 117.729 12.853C116.907 12.853 116.147 13.0056 115.447 13.312C114.818 13.5833 114.306 13.9699 113.912 14.4695C113.879 14.2921 113.699 13.0825 113.699 13.0825H111.122V24.5926H111.123Z" fill="#263238"/>
<path d="M23 6H12.92C11.8372 6 10.8477 6.18643 9.97735 6.5356C9.17571 6.85719 8.47517 7.31683 7.896 7.896C7.29511 8.49689 6.82288 9.22843 6.5 10.068C6.17378 10.9162 6 11.8746 6 12.92V23C6 24.1112 6.18758 25.1176 6.53997 26C6.86245 26.8075 7.32294 27.5111 7.904 28.096C8.48318 28.679 9.18395 29.1386 9.98903 29.46C10.8742 29.8135 11.8856 30 13 30H23C24.1112 30 25.1176 29.8124 26 29.46C26.8075 29.1376 27.5111 28.6771 28.096 28.096C28.6816 27.5142 29.1427 26.8097 29.4644 26C29.815 25.1174 30 24.1098 30 23V13C30 11.9173 29.8219 10.934 29.4868 10.068C29.1632 9.23192 28.6933 8.50523 28.096 7.904C27.5142 7.31837 26.8097 6.85727 26 6.5356C25.1174 6.18496 24.1098 6 23 6Z" fill="#263238"/>
<path d="M20.848 20.712C20.84 20.624 20.768 20.288 20.536 20.28C20.304 20.28 19.816 20.28 19.816 20.28C19.816 20.28 19.52 20.28 19.52 20.568C19.528 21.128 19.848 21.608 20.24 21.928C20.568 22.2 20.968 22.344 21.424 22.344C21.824 22.336 21.872 22.048 21.68 21.96C21.36 21.808 20.944 21.472 20.856 20.712H20.848Z" fill="white"/>
<path d="M23 13.0001C21.9686 13.0001 20.9371 13.1278 20 13.3586C19.1054 13.579 18.2967 13.8933 17.656 14.2801C16.952 14.7041 16.408 15.2161 16.032 15.8081C15.728 16.2881 15.528 16.8081 15.456 17.3681C15.432 17.5521 15.416 18.1281 16.024 18.2801C16.4 18.3761 16.992 18.4161 17.384 18.4641C18.024 18.5361 18.2 17.8241 18.256 17.7041C18.76 16.3121 19.512 15.3761 20.584 14.7601C21.2379 14.385 22.0276 14.1314 23 13.9887C23.6456 13.8939 24.3716 13.8481 25.192 13.8481C25.464 13.8481 26.096 13.8801 26.096 13.5681C26.096 13.3286 25.5987 13.1916 25 13.1131C24.1985 13.0081 23.2152 13.0081 23 13.0081V13.0001Z" fill="white"/>
<path d="M20.192 23.5681C19.464 23.4001 18.24 22.6081 17.96 20.6001C17.904 20.2241 17.696 20.0401 17.376 19.9761C16.952 19.8881 16.208 19.8481 15.968 19.8241C15.624 19.7921 15.368 19.9921 15.408 20.5921C15.48 21.5041 15.848 22.2161 16.464 22.9201C17.192 23.7521 18.152 24.2321 19.176 24.2081C20.304 24.1841 20.384 23.9841 20.392 23.8321C20.392 23.6801 20.32 23.5921 20.192 23.5601V23.5681Z" fill="white"/>
<path d="M17.128 25.248C16 25.248 13.632 23.44 13.632 20.608C13.632 20.112 13.328 19.608 12.704 19.424C12.2 19.272 11.48 19.048 11.024 19.024C9.92801 18.952 9.98401 19.864 10.016 20.344C10.12 22.352 11.008 24.048 12.472 25.008C13.08 25.408 13.8 25.68 14.648 25.84C14.848 25.88 15.56 26.024 16.28 26C17.392 25.952 17.504 25.632 17.504 25.504C17.504 25.336 17.384 25.256 17.128 25.256V25.248Z" fill="white"/>
<path d="M26.376 11.04C25.9227 10.9092 25.4635 10.794 25.0001 10.6943C24.3404 10.5525 23.6722 10.4421 23.0001 10.3625C21.3439 10.1664 19.6642 10.1577 18.032 10.328C16.5936 10.4809 14.9882 10.8392 13.5901 11.576C12.1345 12.3432 10.9036 13.5208 10.32 15.304C10.2 15.664 9.98402 16.984 11.248 17.304C11.656 17.408 12.072 17.592 12.504 17.672C13.736 17.896 14 16.728 14.072 16.496C14.144 16.272 14.224 16.056 14.32 15.832C14.712 14.992 15.296 14.28 15.96 13.728C17.336 12.576 19.048 12.032 20.712 11.768C21.68 11.616 22.648 11.552 23.616 11.576C24.163 11.5879 24.6191 11.6054 25.0001 11.6239C25.4165 11.6441 25.7431 11.6655 26.0001 11.6821C26.77 11.732 26.9157 11.7392 26.984 11.544C27.096 11.224 26.568 11.088 26.376 11.04Z" fill="white"/>
<path d="M23.872 15.624C20.624 15.624 19.776 17.256 19.536 18.344C19.424 18.872 19.744 18.912 20.04 18.968C20.456 19.04 20.792 18.976 20.944 18.576C21.4 17.336 22.024 16.12 24 16.12C24.2 16.12 24.376 15.992 24.376 15.872C24.376 15.752 24.248 15.624 23.88 15.624H23.872Z" fill="white"/>
</svg>
