<svg width="235" height="39" viewBox="0 0 235 39" fill="none" xmlns="http://www.w3.org/2000/svg">
<path fill-rule="evenodd" clip-rule="evenodd" d="M106.02 25.68C105.43 24.99 104.49 23.23 104.5 20.13C104.5 16.62 105.53 15.46 106.12 14.8C107.33 13.44 108.94 12.75 110.93 12.75C111.99 12.75 112.89 12.94 113.63 13.3C114.37 13.64 114.97 14.14 115.42 14.77V6.5H119V27.5H115.59C115.59 27.5 115.38 26.52 115.22 25.86C114.84 26.22 114.14 26.84 113.6 27.11C112.82 27.5 111.9 27.7 110.83 27.7C108.77 27.7 107.16 27.03 106.01 25.68H106.02ZM107.75 20.23C107.75 21.42 108.05 22.45 108.64 23.1C109.23 23.75 110.19 24.07 111.53 24.07C112.45 24.07 113.25 23.85 113.95 23.41H113.97C114.88 22.81 115.42 21.79 115.42 20.7V19.71C115.42 18.65 114.91 17.65 114.04 17.06C114.04 17.06 114.04 17.06 114.03 17.06C113.38 16.62 112.59 16.4 111.65 16.4C110.32 16.4 109.33 16.72 108.7 17.37C108.07 18.01 107.76 19.05 107.76 20.24L107.75 20.23ZM37.0004 20.5C36.9903 22 37.1904 22.66 37.5204 23.53C37.8504 24.4 38.3504 25.14 39.0204 25.82C40.9004 27.7 43.9904 28.27 46.5904 27.61C49.1904 26.95 51.3004 25.06 51.2204 22.01H47.8904C47.9704 23.45 46.7004 24.18 45.2404 24.35C43.7804 24.52 42.1204 24.13 41.4204 23.34C41.0104 22.94 40.3704 22.1 40.3704 20.51C40.3704 17.54 41.3304 16.12 44.4604 16.12C45.4204 16.12 46.2904 16.26 46.9104 16.63C47.5304 17 47.9104 17.6 47.9004 18.51H49.5604L51.2204 18.52C51.1404 15.52 49.0204 13.58 46.4504 12.87C43.8804 12.16 40.8704 12.7 39.0104 14.65C38.3304 15.32 37.8404 16.03 37.5004 16.95C37.3708 17.3007 37.0104 19 37.0004 20.5ZM54.0004 27.5H57.4204V20.34C57.4204 18.79 58.1604 17.98 58.7804 17.55C59.4004 17.1 60.1004 16.88 60.8904 16.88C61.1304 16.88 61.3604 16.89 61.5604 16.92C61.7704 16.95 61.9604 16.98 62.1404 17.02V12.84C62.0504 12.8 61.8904 12.76 61.6604 12.72C61.4404 12.67 61.2304 12.65 61.0204 12.65C60.2104 12.65 59.4904 12.87 58.8604 13.31C58.2904 13.7 57.8304 14.17 57.4804 14.7C57.4404 14.76 57.3604 14.73 57.3504 14.67L57.0504 13.01H53.9904V27.51L54.0004 27.5ZM65.6304 25.82C64.9304 25.15 64.4004 24.45 64.0504 23.59C63.7004 22.73 63.5204 21.73 63.5204 20.45C63.5204 19.17 63.7004 18.05 64.0504 17.09C64.4004 16.13 64.9304 15.32 65.6304 14.65C66.3304 13.98 67.2304 13.5 68.2404 13.2C69.2504 12.9 70.3604 12.76 71.5004 12.76C72.6404 12.76 73.5904 12.9 74.4304 13.2C75.2704 13.5 76.0004 13.98 76.7004 14.65C77.4104 15.32 77.9804 16.22 78.3804 17.24C78.7804 18.26 79.0004 19.38 79.0004 20.5C79.0004 21.61 78.7804 22.61 78.3804 23.49C77.9804 24.37 77.4104 25.14 76.7004 25.82C76.0004 26.49 75.1904 27 74.2704 27.34C73.3504 27.68 72.3204 27.85 71.1704 27.85C70.0204 27.85 68.9904 27.68 68.0604 27.34C67.1304 27 66.3204 26.5 65.6204 25.82H65.6304ZM68.0804 17.14C67.7204 17.43 67.4504 17.8 67.2604 18.25C67.0704 18.7 66.9904 19.24 66.9904 19.87V20.61C66.9904 21.26 67.0804 21.81 67.2604 22.27C67.4404 22.73 67.7104 23.1 68.0704 23.38C68.4304 23.65 68.8704 23.86 69.3904 23.99C69.9104 24.12 70.5104 24.19 71.1804 24.19C71.8504 24.19 72.4504 24.12 72.9704 23.98C73.4904 23.84 73.9204 23.64 74.2804 23.37C74.6404 23.09 74.9104 22.72 75.1004 22.26C75.2904 21.8 75.3704 21.24 75.3704 20.6V19.86C75.3704 19.24 75.2804 18.7 75.0904 18.24C74.9004 17.78 74.6304 17.41 74.2604 17.13C73.9004 16.84 73.4604 16.63 72.9504 16.48C72.4404 16.33 71.8504 16.26 71.1804 16.26C70.5104 16.26 69.9204 16.33 69.4004 16.48C68.8804 16.63 68.4404 16.84 68.0804 17.13V17.14ZM80.0004 13.01L84.5004 27.51H88.4904L91.5204 16.99C91.5504 16.88 91.7104 16.88 91.7504 16.99L95.0004 27.52H99.0004L103.17 13.02H98.9704L96.8504 21.07C96.7604 21.43 96.6704 21.79 96.5904 22.15C96.5404 22.37 96.4704 22.73 96.4204 22.95C96.4104 23 96.3404 23 96.3304 22.95C96.2704 22.69 96.2004 22.43 96.1304 22.15C96.0404 21.79 95.9404 21.43 95.8304 21.07L93.4704 13.02L89.4504 13.06C89.4504 13.06 87.0804 21.23 86.6404 22.86C86.6204 22.93 86.5204 22.93 86.5004 22.86L84.0004 13.02H80.0004V13.01ZM126.36 27.51V13.01H123V27.51H126.36ZM122.26 9.12C122.26 9.74 122.47 10.25 122.88 10.65C123.31 11.04 123.9 11.24 124.67 11.24C125.44 11.24 126.02 11.04 126.43 10.64C126.86 10.24 127.07 9.73 127.07 9.13C127.07 8.53 126.86 8.03 126.44 7.63C126.02 7.23 125.43 7.03 124.65 7.03C123.87 7.03 123.3 7.23 122.87 7.63C122.45 8.03 122.25 8.53 122.25 9.13L122.26 9.12ZM134 27.51H130.47V13.01H133.67C133.67 13.01 133.89 14.56 133.93 14.78C134.42 14.16 135.06 13.67 135.84 13.33C136.71 12.95 137.66 12.76 138.68 12.76C140.23 12.76 141.5 13.17 142.5 14C143.5 14.82 143.99 16.45 143.99 18.9V27.5H140.61V19.75C140.61 17.67 140.07 16.19 137.54 16.19C135.01 16.19 133.99 18.19 133.99 21.5V27.5L134 27.51Z" fill="#263238"/>
<path d="M21.25 4.5H8.65C7.29656 4.5 6.05964 4.73304 4.97168 5.1695C3.96964 5.57149 3.09396 6.14604 2.37 6.87C1.61889 7.62111 1.0286 8.53553 0.625 9.58495C0.217219 10.6452 0 11.8433 0 13.15V25.75C0 27.1389 0.234477 28.397 0.674959 29.5C1.07806 30.5094 1.65368 31.3889 2.38 32.12C3.10397 32.8487 3.97994 33.4232 4.98628 33.825C6.0928 34.2669 7.35695 34.5 8.75 34.5H21.25C22.6389 34.5 23.897 34.2655 25 33.825C26.0094 33.4219 26.8889 32.8463 27.62 32.12C28.352 31.3927 28.9284 30.5121 29.3305 29.5C29.7688 28.3968 30 27.1373 30 25.75V13.25C30 11.8966 29.7774 10.6674 29.3584 9.58495C28.954 8.5399 28.3666 7.63154 27.62 6.88C26.8927 6.14796 26.0121 5.57158 25 5.1695C23.8968 4.7312 22.6373 4.5 21.25 4.5Z" fill="#263238"/>
<path d="M18.5599 22.89C18.5499 22.78 18.4599 22.36 18.1699 22.35C17.8799 22.35 17.2699 22.35 17.2699 22.35C17.2699 22.35 16.8999 22.35 16.8999 22.71C16.9099 23.41 17.3099 24.01 17.7999 24.41C18.2099 24.75 18.7099 24.93 19.2799 24.93C19.7799 24.92 19.8399 24.56 19.5999 24.45C19.1999 24.26 18.6799 23.84 18.5699 22.89H18.5599Z" fill="white"/>
<path d="M21.25 13.2501C19.9608 13.2501 18.6715 13.4097 17.5001 13.6983C16.3818 13.9737 15.371 14.3666 14.57 14.8501C13.69 15.3801 13.01 16.0201 12.54 16.7601C12.16 17.3601 11.91 18.0101 11.82 18.7101C11.79 18.9401 11.77 19.6601 12.53 19.8501C13 19.9701 13.74 20.0201 14.23 20.0801C15.03 20.1701 15.25 19.2801 15.32 19.1301C15.95 17.3901 16.89 16.2201 18.23 15.4501C19.0474 14.9813 20.0345 14.6642 21.25 14.4858C22.057 14.3674 22.9646 14.3101 23.99 14.3101C24.33 14.3101 25.12 14.3501 25.12 13.9601C25.12 13.6608 24.4984 13.4894 23.7501 13.3914C22.7482 13.2601 21.5191 13.2601 21.25 13.2601V13.2501Z" fill="white"/>
<path d="M17.74 26.4601C16.83 26.2501 15.3 25.2601 14.95 22.7501C14.88 22.2801 14.62 22.0501 14.22 21.9701C13.69 21.8601 12.76 21.8101 12.46 21.7801C12.03 21.7401 11.71 21.9901 11.76 22.7401C11.85 23.8801 12.31 24.7701 13.08 25.6501C13.99 26.6901 15.19 27.2901 16.47 27.2601C17.88 27.2301 17.98 26.9801 17.99 26.7901C17.99 26.6001 17.9 26.4901 17.74 26.4501V26.4601Z" fill="white"/>
<path d="M13.91 28.5601C12.5 28.5601 9.54 26.3001 9.54 22.7601C9.54 22.1401 9.16 21.5101 8.38 21.2801C7.75 21.0901 6.85 20.8101 6.28 20.7801C4.91 20.6901 4.98 21.8301 5.02 22.4301C5.15 24.9401 6.26 27.0601 8.09 28.2601C8.85 28.7601 9.75 29.1001 10.81 29.3001C11.06 29.3501 11.95 29.5301 12.85 29.5001C14.24 29.4401 14.38 29.0401 14.38 28.8801C14.38 28.6701 14.23 28.5701 13.91 28.5701V28.5601Z" fill="white"/>
<path d="M25.47 10.8001C24.9034 10.6365 24.3294 10.4925 23.7501 10.368C22.9255 10.1907 22.0902 10.0526 21.2501 9.95317C19.1799 9.70809 17.0802 9.69717 15.04 9.91006C13.242 10.1011 11.2352 10.549 9.48764 11.4701C7.66805 12.429 6.12944 13.901 5.40001 16.1301C5.25001 16.5801 4.98001 18.2301 6.56001 18.6301C7.07001 18.7601 7.59001 18.9901 8.13001 19.0901C9.67001 19.3701 10 17.9101 10.09 17.6201C10.18 17.3401 10.28 17.0701 10.4 16.7901C10.89 15.7401 11.62 14.8501 12.45 14.1601C14.17 12.7201 16.31 12.0401 18.39 11.7101C19.6 11.5201 20.81 11.4401 22.02 11.4701C22.7037 11.485 23.2739 11.5068 23.7501 11.5299C24.2706 11.5551 24.6788 11.5819 25.0001 11.6027C25.9624 11.665 26.1446 11.6741 26.23 11.4301C26.37 11.0301 25.71 10.8601 25.47 10.8001Z" fill="white"/>
<path d="M22.34 16.53C18.28 16.53 17.22 18.57 16.92 19.93C16.78 20.59 17.18 20.64 17.55 20.71C18.07 20.8 18.49 20.72 18.68 20.22C19.25 18.67 20.03 17.15 22.5 17.15C22.75 17.15 22.97 16.99 22.97 16.84C22.97 16.69 22.81 16.53 22.35 16.53H22.34Z" fill="white"/>
<path d="M167.207 23.023C167.207 24.829 166.787 26.11 165.947 26.866C165.128 27.622 163.763 28 161.852 28H155.678V5.95H161.474C163.364 5.95 164.792 6.3385 165.758 7.1155C166.724 7.8715 167.207 9.121 167.207 10.864V23.023ZM164.466 10.5805C164.466 9.8875 164.256 9.3415 163.836 8.9425C163.416 8.5225 162.86 8.3125 162.167 8.3125H158.418V25.6375H162.135C162.933 25.6375 163.521 25.459 163.899 25.102C164.277 24.724 164.466 24.136 164.466 23.338V10.5805ZM182.655 22.96C182.655 24.724 182.214 26.005 181.332 26.803C180.471 27.601 179.127 28 177.3 28H176.891C175.064 28 173.709 27.601 172.827 26.803C171.966 26.005 171.536 24.724 171.536 22.96V17.29C171.536 15.526 171.966 14.245 172.827 13.447C173.709 12.649 175.064 12.25 176.891 12.25H177.3C179.127 12.25 180.471 12.649 181.332 13.447C182.214 14.245 182.655 15.526 182.655 17.29V22.96ZM179.978 16.66C179.978 16.009 179.778 15.505 179.379 15.148C178.98 14.791 178.392 14.6125 177.615 14.6125H176.576C175.799 14.6125 175.211 14.791 174.812 15.148C174.413 15.505 174.213 16.009 174.213 16.66V23.59C174.213 24.241 174.413 24.745 174.812 25.102C175.211 25.459 175.799 25.6375 176.576 25.6375H177.615C178.392 25.6375 178.98 25.459 179.379 25.102C179.778 24.745 179.978 24.241 179.978 23.59V16.66ZM192.175 28C190.327 28 188.973 27.6115 188.112 26.8345C187.251 26.0365 186.82 24.745 186.82 22.96V17.29C186.82 15.526 187.251 14.245 188.112 13.447C188.994 12.649 190.348 12.25 192.175 12.25H195.609V14.6125H191.86C191.083 14.6125 190.495 14.791 190.096 15.148C189.697 15.505 189.498 16.009 189.498 16.66V23.59C189.498 24.241 189.697 24.745 190.096 25.102C190.495 25.459 191.083 25.6375 191.86 25.6375H195.609V28H192.175ZM207.783 24.0625C207.783 25.3855 207.373 26.3725 206.554 27.0235C205.756 27.6745 204.591 28 203.058 28H198.994V25.6375H203.373C203.94 25.6375 204.37 25.522 204.664 25.291C204.958 25.039 205.105 24.682 205.105 24.22V22.5505C205.105 21.6055 204.654 21.133 203.751 21.133H203.215C201.745 21.133 200.643 20.818 199.908 20.188C199.194 19.537 198.837 18.5185 198.837 17.1325V16.219C198.837 14.812 199.236 13.804 200.034 13.195C200.832 12.565 202.008 12.25 203.562 12.25H207.153V14.6125H203.247C202.722 14.6125 202.302 14.7385 201.987 14.9905C201.672 15.2215 201.514 15.568 201.514 16.03V17.164C201.514 17.647 201.651 18.004 201.924 18.235C202.218 18.466 202.585 18.5815 203.026 18.5815H203.467C204.874 18.5815 205.945 18.928 206.68 19.621C207.415 20.293 207.783 21.301 207.783 22.645V24.0625Z" fill="#263238" fill-opacity="0.54"/>
</svg>
