<svg width="235" height="39" viewBox="0 0 235 39" fill="none" xmlns="http://www.w3.org/2000/svg">
<path d="M37.5 20.8065C37.5 23.0538 38.178 24.8555 39.534 26.2135C40.89 27.5705 42.7234 28.25 45.0351 28.25C47.3467 28.25 48.9024 27.6769 50.0587 26.5298C51.2141 25.374 51.7923 24.0352 51.7923 22.5124V22.3753H48.4479V22.499C48.4479 23.1133 48.1835 23.6404 47.6558 24.0812C47.128 24.5211 46.2456 24.7415 45.0075 24.7415C43.6153 24.7415 42.596 24.3974 41.9493 23.7094C41.3027 23.0213 40.9804 22.1041 40.9804 20.9579V20.2152C40.9804 19.069 41.3084 18.1519 41.9636 17.4638C42.6188 16.7757 43.6334 16.4317 45.0075 16.4317C46.2085 16.4317 47.0824 16.6425 47.6282 17.0642C48.1835 17.4858 48.4612 18.0177 48.4612 18.6598V18.7978H51.8056L51.7923 18.6186C51.7381 17.0872 51.1456 15.757 50.0179 14.629C48.8891 13.4915 47.2288 12.9232 45.0351 12.9232C42.7234 12.9232 40.89 13.6017 39.534 14.9596C38.178 16.308 37.5 18.1097 37.5 20.3666V20.8065Z" fill="white"/>
<path d="M54.6041 27.837H58.0169V20.6915C58.0169 19.1266 58.7634 18.3168 59.3815 17.8769C60.0005 17.4274 60.7061 17.2032 61.4973 17.2032C61.7426 17.2032 61.9661 17.2166 62.1658 17.2444C62.375 17.2722 62.5708 17.3038 62.7525 17.3402V13.1302C62.6612 13.0938 62.5024 13.0526 62.2751 13.0066C62.0564 12.9606 61.8424 12.9376 61.6332 12.9376C60.8231 12.9376 60.0994 13.158 59.4623 13.5979C58.8889 13.9946 58.4258 14.4613 58.073 14.9999C58.0369 15.0555 57.9503 15.0325 57.9465 14.9654L57.648 13.3362H54.6031V27.837H54.6041Z" fill="white"/>
<path d="M64.1466 20.8065C64.1466 23.0538 64.8522 24.8555 66.2624 26.2135C67.6726 27.5705 69.5297 28.25 71.8319 28.25C74.134 28.25 75.9769 27.5715 77.3881 26.2135C78.8078 24.8565 79.5172 23.0538 79.5172 20.8065V20.3666C79.5172 18.1107 78.8068 16.308 77.3881 14.9596C75.9779 13.6026 74.1255 12.9232 71.8319 12.9232C69.5383 12.9232 67.6726 13.6017 66.2624 14.9596C64.8522 16.308 64.1466 18.1097 64.1466 20.3666V20.8065ZM67.6279 20.2152C67.6279 18.9588 67.9921 18.0417 68.7195 17.4638C69.4479 16.8859 70.4854 16.5975 71.8319 16.5975C73.1784 16.5975 74.2025 16.8859 74.9309 17.4638C75.6679 18.0417 76.0368 18.9588 76.0368 20.2152V20.9579C76.0368 22.2603 75.6726 23.1909 74.9452 23.7506C74.2263 24.3007 73.1888 24.5757 71.8328 24.5757C70.4768 24.5757 69.4346 24.3007 68.7072 23.7506C67.9883 23.1909 67.6288 22.2603 67.6288 20.9579V20.2152H67.6279Z" fill="white"/>
<path d="M81.0681 13.3353L85.3548 27.836H89.2374L92.2813 17.3067C92.3137 17.1936 92.4724 17.1917 92.5076 17.3047L95.7902 27.8379H99.6699L103.983 13.3372H99.7622L97.6331 21.4132C97.5418 21.7802 97.4553 22.1425 97.3735 22.4999C97.3269 22.7252 97.2489 23.0826 97.2004 23.3088C97.1899 23.3586 97.1186 23.3596 97.1072 23.3088C97.0473 23.05 96.9807 22.7798 96.9094 22.499C96.8181 22.1319 96.7183 21.7697 96.6089 21.4122L94.2335 13.3362H90.1931C90.1931 13.3362 87.8073 21.5742 87.3679 23.2158C87.3489 23.2867 87.2491 23.2858 87.231 23.2149L84.7605 13.3362H81.0691L81.0681 13.3353Z" fill="white"/>
<path d="M105.099 20.8066C105.099 22.9523 105.677 24.7089 106.832 26.0755C107.997 27.4326 109.613 28.112 111.679 28.112C112.753 28.112 113.681 27.9146 114.463 27.5207C115.007 27.2438 115.705 26.6199 116.089 26.2567C116.245 26.9237 116.456 27.837 116.456 27.837H119.839V6.74664H116.279V15.0833C115.824 14.4412 115.223 13.9457 114.477 13.5979C113.731 13.2404 112.825 13.0612 111.761 13.0612C109.758 13.0612 108.147 13.7445 106.928 15.1111C105.708 16.4681 105.099 18.22 105.099 20.3667V20.8066ZM108.58 20.9436L108.567 20.2287C108.567 19.1831 108.885 18.3388 109.521 17.6977C110.159 17.047 111.147 16.7211 112.484 16.7211C113.421 16.7211 114.218 16.9415 114.873 17.3814C114.88 17.3862 114.887 17.39 114.893 17.3948C115.769 17.99 116.279 18.9991 116.279 20.0638V21.0605C116.279 22.1549 115.739 23.188 114.826 23.7793C114.819 23.7841 114.811 23.788 114.805 23.7928C114.104 24.2326 113.294 24.4531 112.375 24.4531C111.028 24.4531 110.059 24.1272 109.467 23.4765C108.876 22.8258 108.58 21.9815 108.58 20.9455V20.9436Z" fill="white"/>
<path d="M123.882 27.8371H127.281V13.3363H123.882V27.8371ZM123.159 9.37452C123.159 9.9984 123.369 10.5121 123.787 10.9155C124.215 11.3104 124.815 11.5068 125.589 11.5068C126.363 11.5068 126.944 11.3046 127.363 10.9012C127.791 10.4977 128.005 9.98882 128.005 9.37452C128.005 8.76022 127.795 8.26475 127.376 7.86129C126.958 7.45783 126.358 7.25562 125.574 7.25562C124.791 7.25562 124.215 7.45783 123.787 7.86129C123.369 8.26475 123.159 8.76885 123.159 9.37452Z" fill="white"/>
<path d="M131.404 27.837H134.803V21.9547C134.803 18.6244 135.971 16.5151 138.516 16.5151C141.06 16.5151 141.601 18.0053 141.601 20.1003V27.837H145V19.2387C145 16.7719 144.5 15.1255 143.499 14.2994C142.497 13.4647 141.219 13.0478 139.663 13.0478C138.635 13.0478 137.684 13.2404 136.81 13.6257C136.023 13.9678 135.383 14.4537 134.891 15.0843C134.85 14.861 134.626 13.3372 134.626 13.3372H131.404V27.838V27.837Z" fill="white"/>
<path d="M21.25 4.5H8.65C7.29656 4.5 6.05964 4.73304 4.97168 5.1695C3.96964 5.57149 3.09396 6.14604 2.37 6.87C1.61889 7.62111 1.0286 8.53553 0.625 9.58495C0.217219 10.6452 0 11.8433 0 13.15V25.75C0 27.1389 0.234477 28.397 0.674959 29.5C1.07806 30.5094 1.65368 31.3889 2.38 32.12C3.10397 32.8487 3.97994 33.4232 4.98628 33.825C6.0928 34.2669 7.35695 34.5 8.75 34.5H21.25C22.6389 34.5 23.897 34.2655 25 33.825C26.0094 33.4219 26.8889 32.8463 27.62 32.12C28.352 31.3927 28.9284 30.5121 29.3305 29.5C29.7688 28.3968 30 27.1373 30 25.75V13.25C30 11.8966 29.7774 10.6674 29.3584 9.58495C28.954 8.5399 28.3666 7.63154 27.62 6.88C26.8927 6.14796 26.0121 5.57158 25 5.1695C23.8968 4.7312 22.6373 4.5 21.25 4.5Z" fill="white"/>
<path d="M18.5599 22.8032C18.5499 22.6917 18.4599 22.2662 18.1699 22.2561C17.8799 22.2561 17.2699 22.2561 17.2699 22.2561C17.2699 22.2561 16.8999 22.2561 16.8999 22.6208C16.9099 23.33 17.3099 23.9379 17.7999 24.3432C18.2099 24.6876 18.7099 24.87 19.2799 24.87C19.7799 24.8598 19.8399 24.4951 19.5999 24.3837C19.1999 24.1912 18.6799 23.7657 18.5699 22.8032H18.5599Z" fill="#263238"/>
<path d="M21.25 13.0366C19.9607 13.0366 18.6714 13.1983 17.5 13.4907C16.3818 13.7697 15.3709 14.1677 14.57 14.6576C13.69 15.1945 13.01 15.8429 12.54 16.5926C12.16 17.2005 11.91 17.8591 11.82 18.5683C11.79 18.8013 11.77 19.5307 12.53 19.7232C13 19.8448 13.74 19.8955 14.23 19.9562C15.03 20.0474 15.25 19.1457 15.32 18.9938C15.95 17.2309 16.89 16.0456 18.23 15.2654C19.0473 14.7905 20.0345 14.4693 21.25 14.2885C22.0569 14.1685 22.9646 14.1105 23.99 14.1105C24.33 14.1105 25.12 14.151 25.12 13.7559C25.12 13.4526 24.4984 13.2791 23.75 13.1797C22.7481 13.0467 21.519 13.0467 21.25 13.0467V13.0366Z" fill="#263238"/>
<path d="M17.7399 26.4201C16.8299 26.2074 15.2999 25.2044 14.9499 22.6614C14.8799 22.1853 14.6199 21.9522 14.2199 21.8712C13.6899 21.7597 12.7599 21.7091 12.4599 21.6787C12.0299 21.6382 11.7099 21.8914 11.7599 22.6513C11.8499 23.8063 12.3099 24.7079 13.0799 25.5995C13.9899 26.6532 15.1899 27.261 16.4699 27.2306C17.8799 27.2002 17.9799 26.947 17.9899 26.7545C17.9899 26.562 17.8999 26.4505 17.7399 26.41V26.4201Z" fill="#263238"/>
<path d="M13.9099 28.5476C12.4999 28.5476 9.53994 26.258 9.53994 22.6715C9.53994 22.0434 9.15994 21.4051 8.37994 21.1721C7.74994 20.9796 6.84994 20.6959 6.27994 20.6655C4.90994 20.5743 4.97994 21.7293 5.01994 22.3372C5.14994 24.8801 6.25994 27.028 8.08994 28.2437C8.84994 28.7503 9.74994 29.0947 10.8099 29.2974C11.0599 29.348 11.9499 29.5304 12.8499 29.5C14.2399 29.4392 14.3799 29.034 14.3799 28.8719C14.3799 28.6591 14.2299 28.5578 13.9099 28.5578V28.5476Z" fill="#263238"/>
<path d="M25.47 10.5544C24.9033 10.3887 24.3293 10.2429 23.75 10.1167C22.9255 9.93705 22.0902 9.79721 21.25 9.69644C19.1798 9.44814 17.0802 9.43707 15.04 9.65276C13.242 9.84633 11.2352 10.3001 9.48757 11.2332C7.66799 12.2048 6.12938 13.6961 5.39995 15.9544C5.24995 16.4103 4.97995 18.082 6.55995 18.4873C7.06995 18.619 7.58995 18.852 8.12995 18.9533C9.66995 19.237 9.99995 17.7578 10.09 17.464C10.18 17.1803 10.28 16.9068 10.4 16.6231C10.89 15.5593 11.62 14.6576 12.45 13.9586C14.17 12.4997 16.31 11.8107 18.39 11.4764C19.6 11.2839 20.81 11.2028 22.02 11.2332C22.7036 11.2483 23.2738 11.2705 23.75 11.2939C24.2706 11.3195 24.6787 11.3465 25 11.3676C25.9624 11.4308 26.1445 11.4399 26.23 11.1927C26.37 10.7875 25.71 10.6152 25.47 10.5544Z" fill="#263238"/>
<path d="M22.3399 16.3597C18.2799 16.3597 17.2199 18.4265 16.9199 19.8043C16.7799 20.473 17.1799 20.5236 17.5499 20.5946C18.0699 20.6857 18.4899 20.6047 18.6799 20.0981C19.2499 18.5278 20.0299 16.9878 22.4999 16.9878C22.7499 16.9878 22.9699 16.8257 22.9699 16.6738C22.9699 16.5218 22.8099 16.3597 22.3499 16.3597H22.3399Z" fill="#263238"/>
<path d="M167.207 23.023C167.207 24.829 166.787 26.11 165.947 26.866C165.128 27.622 163.763 28 161.852 28H155.678V5.95H161.474C163.364 5.95 164.792 6.3385 165.758 7.1155C166.724 7.8715 167.207 9.121 167.207 10.864V23.023ZM164.466 10.5805C164.466 9.8875 164.256 9.3415 163.836 8.9425C163.416 8.5225 162.86 8.3125 162.167 8.3125H158.418V25.6375H162.135C162.933 25.6375 163.521 25.459 163.899 25.102C164.277 24.724 164.466 24.136 164.466 23.338V10.5805ZM182.655 22.96C182.655 24.724 182.214 26.005 181.332 26.803C180.471 27.601 179.127 28 177.3 28H176.891C175.064 28 173.709 27.601 172.827 26.803C171.966 26.005 171.536 24.724 171.536 22.96V17.29C171.536 15.526 171.966 14.245 172.827 13.447C173.709 12.649 175.064 12.25 176.891 12.25H177.3C179.127 12.25 180.471 12.649 181.332 13.447C182.214 14.245 182.655 15.526 182.655 17.29V22.96ZM179.978 16.66C179.978 16.009 179.778 15.505 179.379 15.148C178.98 14.791 178.392 14.6125 177.615 14.6125H176.576C175.799 14.6125 175.211 14.791 174.812 15.148C174.413 15.505 174.213 16.009 174.213 16.66V23.59C174.213 24.241 174.413 24.745 174.812 25.102C175.211 25.459 175.799 25.6375 176.576 25.6375H177.615C178.392 25.6375 178.98 25.459 179.379 25.102C179.778 24.745 179.978 24.241 179.978 23.59V16.66ZM192.175 28C190.327 28 188.973 27.6115 188.112 26.8345C187.251 26.0365 186.82 24.745 186.82 22.96V17.29C186.82 15.526 187.251 14.245 188.112 13.447C188.994 12.649 190.348 12.25 192.175 12.25H195.609V14.6125H191.86C191.083 14.6125 190.495 14.791 190.096 15.148C189.697 15.505 189.498 16.009 189.498 16.66V23.59C189.498 24.241 189.697 24.745 190.096 25.102C190.495 25.459 191.083 25.6375 191.86 25.6375H195.609V28H192.175ZM207.783 24.0625C207.783 25.3855 207.373 26.3725 206.554 27.0235C205.756 27.6745 204.591 28 203.058 28H198.994V25.6375H203.373C203.94 25.6375 204.37 25.522 204.664 25.291C204.958 25.039 205.105 24.682 205.105 24.22V22.5505C205.105 21.6055 204.654 21.133 203.751 21.133H203.215C201.745 21.133 200.643 20.818 199.908 20.188C199.194 19.537 198.837 18.5185 198.837 17.1325V16.219C198.837 14.812 199.236 13.804 200.034 13.195C200.832 12.565 202.008 12.25 203.562 12.25H207.153V14.6125H203.247C202.722 14.6125 202.302 14.7385 201.987 14.9905C201.672 15.2215 201.514 15.568 201.514 16.03V17.164C201.514 17.647 201.651 18.004 201.924 18.235C202.218 18.466 202.585 18.5815 203.026 18.5815H203.467C204.874 18.5815 205.945 18.928 206.68 19.621C207.415 20.293 207.783 21.301 207.783 22.645V24.0625Z" fill="white" fill-opacity="0.54"/>
</svg>
